M48
;GenerationSoftware,Autodesk,EAGLE,9.4.2*%
;CreationDate,2019-06-27T08:09:49Z*%
FMAT,2
ICI,OFF
METRIC,TZ,000.000
T3C0.800
T2C1.000
T1C2.200
%
G90
M71
T1
X2540Y5080
X55880Y5080
X55880Y67310
X2540Y67310
T2
X25400Y20320
X30480Y20320
X50800Y7620
X48260Y7620
X45720Y7620
X43180Y7620
X40640Y7620
X38100Y7620
X35560Y7620
X33020Y7620
X30480Y7620
X27940Y7620
X25400Y7620
X22860Y7620
X20320Y7620
X17780Y7620
X15240Y7620
X12700Y7620
X10160Y7620
X7620Y7620
X5080Y30480
X7620Y30480
X10160Y30480
X12700Y30480
X15240Y30480
X17780Y30480
X20320Y30480
X22860Y30480
X25400Y30480
X27940Y30480
X30480Y30480
X33020Y30480
X35560Y30480
X38100Y30480
X40640Y30480
X43180Y30480
X45720Y30480
X48260Y30480
X50800Y30480
X53340Y30480
X5080Y27940
X7620Y27940
X10160Y27940
X12700Y27940
X15240Y27940
X17780Y27940
X20320Y27940
X22860Y27940
X25400Y27940
X27940Y27940
X30480Y27940
X33020Y27940
X35560Y27940
X38100Y27940
X40640Y27940
X43180Y27940
X45720Y27940
X48260Y27940
X50800Y27940
X53340Y27940
X5080Y25400
X7620Y25400
X10160Y25400
X12700Y25400
X15240Y25400
X17780Y25400
X20320Y25400
X22860Y25400
X25400Y25400
X27940Y25400
X30480Y25400
X33020Y25400
X35560Y25400
X38100Y25400
X40640Y25400
X43180Y25400
X45720Y25400
X48260Y25400
X50800Y25400
X53340Y25400
X5080Y22860
X7620Y22860
X10160Y22860
X12700Y22860
X15240Y22860
X17780Y22860
X20320Y22860
X22860Y22860
X25400Y22860
X27940Y22860
X30480Y22860
X33020Y22860
X35560Y22860
X38100Y22860
X40640Y22860
X43180Y22860
X45720Y22860
X48260Y22860
X50800Y22860
X53340Y22860
X5080Y20320
X7620Y20320
X10160Y20320
X12700Y20320
X15240Y20320
X17780Y20320
X20320Y20320
X22860Y20320
X5080Y7620
X27940Y20320
X53340Y7620
X33020Y20320
X35560Y20320
X38100Y20320
X40640Y20320
X43180Y20320
X45720Y20320
X48260Y20320
X50800Y20320
X53340Y20320
X5080Y17780
X7620Y17780
X10160Y17780
X12700Y17780
X15240Y17780
X17780Y17780
X20320Y17780
X22860Y17780
X25400Y17780
X27940Y17780
X30480Y17780
X33020Y17780
X35560Y17780
X38100Y17780
X40640Y17780
X43180Y17780
X45720Y17780
X48260Y17780
X50800Y17780
X53340Y17780
X5080Y15240
X7620Y15240
X10160Y15240
X12700Y15240
X15240Y15240
X17780Y15240
X20320Y15240
X22860Y15240
X25400Y15240
X27940Y15240
X30480Y15240
X33020Y15240
X35560Y15240
X38100Y15240
X40640Y15240
X43180Y15240
X45720Y15240
X48260Y15240
X50800Y15240
X53340Y15240
X5080Y12700
X7620Y12700
X10160Y12700
X12700Y12700
X15240Y12700
X17780Y12700
X20320Y12700
X22860Y12700
X25400Y12700
X27940Y12700
X30480Y12700
X33020Y12700
X35560Y12700
X38100Y12700
X40640Y12700
X43180Y12700
X45720Y12700
X48260Y12700
X50800Y12700
X53340Y12700
X5080Y10160
X7620Y10160
X10160Y10160
X12700Y10160
X15240Y10160
X17780Y10160
X20320Y10160
X22860Y10160
X25400Y10160
X27940Y10160
X30480Y10160
X33020Y10160
X35560Y10160
X38100Y10160
X40640Y10160
X43180Y10160
X45720Y10160
X48260Y10160
X50800Y10160
X53340Y10160
T3
X18210Y62086
X40210Y62086
X40210Y60086
X40210Y58086
X40210Y56086
X40210Y54086
X40210Y52086
X40210Y50086
X40210Y48086
X40210Y46086
X40210Y44086
X18210Y44086
X18210Y46086
X18210Y48086
X18210Y50086
X18210Y52086
X18210Y54086
X18210Y56086
X18210Y58086
X18210Y60086
M30