G75*
%MOIN*%
%OFA0B0*%
%FSLAX25Y25*%
%IPPOS*%
%LPD*%
%AMOC8*
5,1,8,0,0,1.08239X$1,22.5*
%
%ADD10C,0.09461*%
%ADD11C,0.05950*%
%ADD12R,0.06312X0.06312*%
%ADD13C,0.06312*%
D10*
X0011267Y0011277D03*
X0221267Y0011277D03*
X0221267Y0256277D03*
X0011267Y0256277D03*
D11*
X0072960Y0236710D03*
X0072960Y0228836D03*
X0072960Y0220962D03*
X0072960Y0213088D03*
X0072960Y0205214D03*
X0072960Y0197340D03*
X0072960Y0189466D03*
X0072960Y0181592D03*
X0072960Y0173718D03*
X0072960Y0165844D03*
X0159574Y0165844D03*
X0159574Y0173718D03*
X0159574Y0181592D03*
X0159574Y0189466D03*
X0159574Y0197340D03*
X0159574Y0205214D03*
X0159574Y0213088D03*
X0159574Y0220962D03*
X0159574Y0228836D03*
X0159574Y0236710D03*
D12*
X0021267Y0111277D03*
D13*
X0031267Y0111277D03*
X0041267Y0111277D03*
X0041267Y0101277D03*
X0041267Y0091277D03*
X0041267Y0081277D03*
X0041267Y0071277D03*
X0041267Y0061277D03*
X0041267Y0051277D03*
X0041267Y0041277D03*
X0041267Y0031277D03*
X0041267Y0021277D03*
X0031267Y0021277D03*
X0031267Y0031277D03*
X0031267Y0041277D03*
X0031267Y0051277D03*
X0031267Y0061277D03*
X0031267Y0071277D03*
X0031267Y0081277D03*
X0031267Y0091277D03*
X0031267Y0101277D03*
X0021267Y0101277D03*
X0021267Y0091277D03*
X0021267Y0081277D03*
X0021267Y0071277D03*
X0021267Y0061277D03*
X0021267Y0051277D03*
X0021267Y0041277D03*
X0021267Y0031277D03*
X0021267Y0021277D03*
X0051267Y0021277D03*
X0051267Y0031277D03*
X0051267Y0041277D03*
X0051267Y0051277D03*
X0051267Y0061277D03*
X0051267Y0071277D03*
X0051267Y0081277D03*
X0051267Y0091277D03*
X0051267Y0101277D03*
X0051267Y0111277D03*
X0061267Y0111277D03*
X0071267Y0111277D03*
X0081267Y0111277D03*
X0081267Y0101277D03*
X0081267Y0091277D03*
X0081267Y0081277D03*
X0081267Y0071277D03*
X0081267Y0061277D03*
X0081267Y0051277D03*
X0081267Y0041277D03*
X0081267Y0031277D03*
X0081267Y0021277D03*
X0071267Y0021277D03*
X0071267Y0031277D03*
X0071267Y0041277D03*
X0071267Y0051277D03*
X0071267Y0061277D03*
X0071267Y0071277D03*
X0071267Y0081277D03*
X0071267Y0091277D03*
X0071267Y0101277D03*
X0061267Y0101277D03*
X0061267Y0091277D03*
X0061267Y0081277D03*
X0061267Y0071277D03*
X0061267Y0061277D03*
X0061267Y0051277D03*
X0061267Y0041277D03*
X0061267Y0031277D03*
X0061267Y0021277D03*
X0091267Y0021277D03*
X0091267Y0031277D03*
X0091267Y0041277D03*
X0091267Y0051277D03*
X0091267Y0061277D03*
X0091267Y0071277D03*
X0091267Y0081277D03*
X0091267Y0091277D03*
X0091267Y0101277D03*
X0091267Y0111277D03*
X0101267Y0111277D03*
X0111267Y0111277D03*
X0111267Y0101277D03*
X0111267Y0091277D03*
X0111267Y0081277D03*
X0111267Y0071277D03*
X0111267Y0061277D03*
X0111267Y0051277D03*
X0111267Y0041277D03*
X0111267Y0031277D03*
X0111267Y0021277D03*
X0101267Y0021277D03*
X0101267Y0031277D03*
X0101267Y0041277D03*
X0101267Y0051277D03*
X0101267Y0061277D03*
X0101267Y0071277D03*
X0101267Y0081277D03*
X0101267Y0091277D03*
X0101267Y0101277D03*
X0121267Y0101277D03*
X0121267Y0091277D03*
X0131267Y0091277D03*
X0131267Y0101277D03*
X0131267Y0111277D03*
X0141267Y0111277D03*
X0141267Y0101277D03*
X0141267Y0091277D03*
X0141267Y0081277D03*
X0141267Y0071277D03*
X0141267Y0061277D03*
X0141267Y0051277D03*
X0141267Y0041277D03*
X0141267Y0031277D03*
X0141267Y0021277D03*
X0131267Y0021277D03*
X0131267Y0031277D03*
X0131267Y0041277D03*
X0131267Y0051277D03*
X0131267Y0061277D03*
X0131267Y0071277D03*
X0131267Y0081277D03*
X0121267Y0081277D03*
X0121267Y0071277D03*
X0121267Y0061277D03*
X0121267Y0051277D03*
X0121267Y0041277D03*
X0121267Y0031277D03*
X0121267Y0021277D03*
X0151267Y0021277D03*
X0151267Y0031277D03*
X0151267Y0041277D03*
X0151267Y0051277D03*
X0151267Y0061277D03*
X0151267Y0071277D03*
X0151267Y0081277D03*
X0151267Y0091277D03*
X0151267Y0101277D03*
X0151267Y0111277D03*
X0161267Y0111277D03*
X0171267Y0111277D03*
X0181267Y0111277D03*
X0181267Y0101277D03*
X0181267Y0091277D03*
X0181267Y0081277D03*
X0181267Y0071277D03*
X0181267Y0061277D03*
X0181267Y0051277D03*
X0181267Y0041277D03*
X0181267Y0031277D03*
X0181267Y0021277D03*
X0171267Y0021277D03*
X0171267Y0031277D03*
X0171267Y0041277D03*
X0171267Y0051277D03*
X0171267Y0061277D03*
X0171267Y0071277D03*
X0171267Y0081277D03*
X0171267Y0091277D03*
X0171267Y0101277D03*
X0161267Y0101277D03*
X0161267Y0091277D03*
X0161267Y0081277D03*
X0161267Y0071277D03*
X0161267Y0061277D03*
X0161267Y0051277D03*
X0161267Y0041277D03*
X0161267Y0031277D03*
X0161267Y0021277D03*
X0191267Y0021277D03*
X0191267Y0031277D03*
X0191267Y0041277D03*
X0191267Y0051277D03*
X0191267Y0061277D03*
X0191267Y0071277D03*
X0191267Y0081277D03*
X0191267Y0091277D03*
X0191267Y0101277D03*
X0191267Y0111277D03*
X0201267Y0111277D03*
X0211267Y0111277D03*
X0211267Y0101277D03*
X0211267Y0091277D03*
X0211267Y0081277D03*
X0211267Y0071277D03*
X0211267Y0061277D03*
X0211267Y0051277D03*
X0211267Y0041277D03*
X0211267Y0031277D03*
X0211267Y0021277D03*
X0201267Y0021277D03*
X0201267Y0031277D03*
X0201267Y0041277D03*
X0201267Y0051277D03*
X0201267Y0061277D03*
X0201267Y0071277D03*
X0201267Y0081277D03*
X0201267Y0091277D03*
X0201267Y0101277D03*
X0121267Y0111277D03*
M02*
