G75*
%MOIN*%
%OFA0B0*%
%FSLAX25Y25*%
%IPPOS*%
%LPD*%
%AMOC8*
5,1,8,0,0,1.08239X$1,22.5*
%
%ADD10C,0.00400*%
%ADD11R,0.00670X0.00033*%
%ADD12R,0.01330X0.00033*%
%ADD13R,0.01730X0.00034*%
%ADD14R,0.02070X0.00033*%
%ADD15R,0.02360X0.00033*%
%ADD16R,0.02640X0.00034*%
%ADD17R,0.02870X0.00033*%
%ADD18R,0.03070X0.00033*%
%ADD19R,0.03270X0.00034*%
%ADD20R,0.03470X0.00033*%
%ADD21R,0.03670X0.00033*%
%ADD22R,0.03840X0.00034*%
%ADD23R,0.04000X0.00033*%
%ADD24R,0.04130X0.00033*%
%ADD25R,0.04300X0.00034*%
%ADD26R,0.04470X0.00033*%
%ADD27R,0.04600X0.00033*%
%ADD28R,0.04730X0.00034*%
%ADD29R,0.04870X0.00033*%
%ADD30R,0.05000X0.00033*%
%ADD31R,0.05130X0.00034*%
%ADD32R,0.05240X0.00033*%
%ADD33R,0.05330X0.00033*%
%ADD34R,0.05470X0.00034*%
%ADD35R,0.05600X0.00033*%
%ADD36R,0.05700X0.00033*%
%ADD37R,0.05800X0.00034*%
%ADD38R,0.05930X0.00033*%
%ADD39R,0.06000X0.00033*%
%ADD40R,0.06130X0.00034*%
%ADD41R,0.06200X0.00033*%
%ADD42R,0.06330X0.00033*%
%ADD43R,0.06400X0.00034*%
%ADD44R,0.06530X0.00033*%
%ADD45R,0.06600X0.00033*%
%ADD46R,0.06700X0.00034*%
%ADD47R,0.06800X0.00033*%
%ADD48R,0.06870X0.00033*%
%ADD49R,0.07000X0.00034*%
%ADD50R,0.07070X0.00033*%
%ADD51R,0.07130X0.00033*%
%ADD52R,0.07240X0.00034*%
%ADD53R,0.07330X0.00033*%
%ADD54R,0.07400X0.00033*%
%ADD55R,0.07470X0.00034*%
%ADD56R,0.07560X0.00033*%
%ADD57R,0.07670X0.00033*%
%ADD58R,0.07730X0.00034*%
%ADD59R,0.07800X0.00033*%
%ADD60R,0.07870X0.00033*%
%ADD61R,0.07930X0.00034*%
%ADD62R,0.08040X0.00033*%
%ADD63R,0.08100X0.00033*%
%ADD64R,0.08200X0.00034*%
%ADD65R,0.08270X0.00033*%
%ADD66R,0.08330X0.00033*%
%ADD67R,0.08400X0.00034*%
%ADD68R,0.08470X0.00033*%
%ADD69R,0.08530X0.00033*%
%ADD70R,0.08600X0.00034*%
%ADD71R,0.08670X0.00033*%
%ADD72R,0.08730X0.00033*%
%ADD73R,0.08800X0.00034*%
%ADD74R,0.08870X0.00033*%
%ADD75R,0.08930X0.00033*%
%ADD76R,0.09000X0.00034*%
%ADD77R,0.09070X0.00033*%
%ADD78R,0.09130X0.00033*%
%ADD79R,0.09200X0.00034*%
%ADD80R,0.09270X0.00033*%
%ADD81R,0.09330X0.00033*%
%ADD82R,0.09400X0.00034*%
%ADD83R,0.09470X0.00033*%
%ADD84R,0.09530X0.00033*%
%ADD85R,0.09600X0.00034*%
%ADD86R,0.09670X0.00033*%
%ADD87R,0.09700X0.00033*%
%ADD88R,0.09760X0.00034*%
%ADD89R,0.09800X0.00033*%
%ADD90R,0.09870X0.00033*%
%ADD91R,0.09930X0.00034*%
%ADD92R,0.10000X0.00033*%
%ADD93R,0.10070X0.00033*%
%ADD94R,0.10130X0.00034*%
%ADD95R,0.10160X0.00033*%
%ADD96R,0.10240X0.00033*%
%ADD97R,0.04700X0.00034*%
%ADD98R,0.04670X0.00034*%
%ADD99R,0.04460X0.00033*%
%ADD100R,0.04300X0.00033*%
%ADD101R,0.04200X0.00034*%
%ADD102R,0.04070X0.00033*%
%ADD103R,0.04100X0.00033*%
%ADD104R,0.03960X0.00033*%
%ADD105R,0.03970X0.00033*%
%ADD106R,0.03900X0.00034*%
%ADD107R,0.03830X0.00033*%
%ADD108R,0.03840X0.00033*%
%ADD109R,0.03760X0.00033*%
%ADD110R,0.03770X0.00033*%
%ADD111R,0.03700X0.00034*%
%ADD112R,0.03730X0.00034*%
%ADD113R,0.03640X0.00033*%
%ADD114R,0.03630X0.00033*%
%ADD115R,0.03600X0.00033*%
%ADD116R,0.03560X0.00034*%
%ADD117R,0.03570X0.00034*%
%ADD118R,0.03540X0.00033*%
%ADD119R,0.03500X0.00033*%
%ADD120R,0.03440X0.00033*%
%ADD121R,0.03400X0.00034*%
%ADD122R,0.03360X0.00033*%
%ADD123R,0.03370X0.00033*%
%ADD124R,0.03330X0.00033*%
%ADD125R,0.03300X0.00034*%
%ADD126R,0.03270X0.00033*%
%ADD127R,0.03230X0.00033*%
%ADD128R,0.03200X0.00034*%
%ADD129R,0.03170X0.00033*%
%ADD130R,0.03200X0.00033*%
%ADD131R,0.03130X0.00033*%
%ADD132R,0.03140X0.00033*%
%ADD133R,0.03130X0.00034*%
%ADD134R,0.03100X0.00034*%
%ADD135R,0.03100X0.00033*%
%ADD136R,0.03040X0.00033*%
%ADD137R,0.03030X0.00033*%
%ADD138R,0.03030X0.00034*%
%ADD139R,0.03040X0.00034*%
%ADD140R,0.03000X0.00033*%
%ADD141R,0.02960X0.00033*%
%ADD142R,0.02970X0.00034*%
%ADD143R,0.02930X0.00034*%
%ADD144R,0.02930X0.00033*%
%ADD145R,0.02940X0.00033*%
%ADD146R,0.02900X0.00033*%
%ADD147R,0.02900X0.00034*%
%ADD148R,0.02870X0.00034*%
%ADD149R,0.02860X0.00033*%
%ADD150R,0.02830X0.00034*%
%ADD151R,0.02800X0.00034*%
%ADD152R,0.02800X0.00033*%
%ADD153R,0.02770X0.00034*%
%ADD154R,0.02760X0.00034*%
%ADD155R,0.02770X0.00033*%
%ADD156R,0.02740X0.00033*%
%ADD157R,0.02730X0.00033*%
%ADD158R,0.02700X0.00034*%
%ADD159R,0.02700X0.00033*%
%ADD160R,0.02670X0.00033*%
%ADD161R,0.02670X0.00034*%
%ADD162R,0.02660X0.00033*%
%ADD163R,0.02630X0.00033*%
%ADD164R,0.02600X0.00034*%
%ADD165R,0.02600X0.00033*%
%ADD166R,0.02570X0.00033*%
%ADD167R,0.02560X0.00034*%
%ADD168R,0.02570X0.00034*%
%ADD169R,0.02560X0.00033*%
%ADD170R,0.02540X0.00033*%
%ADD171R,0.02530X0.00033*%
%ADD172R,0.02530X0.00034*%
%ADD173R,0.02540X0.00034*%
%ADD174R,0.02500X0.00033*%
%ADD175R,0.02500X0.00034*%
%ADD176R,0.02470X0.00033*%
%ADD177R,0.02460X0.00033*%
%ADD178R,0.02430X0.00034*%
%ADD179R,0.02470X0.00034*%
%ADD180R,0.02430X0.00033*%
%ADD181R,0.02440X0.00033*%
%ADD182R,0.02400X0.00034*%
%ADD183R,0.02400X0.00033*%
%ADD184R,0.02370X0.00034*%
%ADD185R,0.02370X0.00033*%
%ADD186R,0.02330X0.00033*%
%ADD187R,0.02340X0.00034*%
%ADD188R,0.02330X0.00034*%
%ADD189R,0.02300X0.00033*%
%ADD190R,0.02300X0.00034*%
%ADD191R,0.02260X0.00033*%
%ADD192R,0.02270X0.00034*%
%ADD193R,0.02260X0.00034*%
%ADD194R,0.02240X0.00033*%
%ADD195R,0.02270X0.00033*%
%ADD196R,0.02230X0.00033*%
%ADD197R,0.02200X0.00034*%
%ADD198R,0.02200X0.00033*%
%ADD199R,0.02160X0.00033*%
%ADD200R,0.02170X0.00034*%
%ADD201R,0.02170X0.00033*%
%ADD202R,0.02130X0.00033*%
%ADD203R,0.02130X0.00034*%
%ADD204R,0.02140X0.00033*%
%ADD205R,0.02140X0.00034*%
%ADD206R,0.02100X0.00033*%
%ADD207R,0.02100X0.00034*%
%ADD208R,0.02060X0.00033*%
%ADD209R,0.02060X0.00034*%
%ADD210R,0.02070X0.00034*%
%ADD211R,0.02030X0.00033*%
%ADD212R,0.02040X0.00033*%
%ADD213R,0.02030X0.00034*%
%ADD214R,0.02000X0.00033*%
%ADD215R,0.02000X0.00034*%
%ADD216R,0.02040X0.00034*%
%ADD217R,0.01960X0.00033*%
%ADD218R,0.01970X0.00034*%
%ADD219R,0.01970X0.00033*%
%ADD220R,0.01960X0.00034*%
%ADD221R,0.01930X0.00033*%
%ADD222R,0.01940X0.00034*%
%ADD223R,0.01930X0.00034*%
%ADD224R,0.01940X0.00033*%
%ADD225R,0.01900X0.00034*%
%ADD226R,0.01900X0.00033*%
%ADD227R,0.01870X0.00033*%
%ADD228R,0.01860X0.00033*%
%ADD229R,0.01870X0.00034*%
%ADD230R,0.01860X0.00034*%
%ADD231R,0.01830X0.00033*%
%ADD232R,0.01840X0.00034*%
%ADD233R,0.01840X0.00033*%
%ADD234R,0.01830X0.00034*%
%ADD235R,0.01800X0.00033*%
%ADD236R,0.01800X0.00034*%
%ADD237R,0.01760X0.00033*%
%ADD238R,0.01770X0.00033*%
%ADD239R,0.01770X0.00034*%
%ADD240R,0.01760X0.00034*%
%ADD241R,0.01740X0.00033*%
%ADD242R,0.01740X0.00034*%
%ADD243R,0.01730X0.00033*%
%ADD244R,0.01700X0.00033*%
%ADD245R,0.01700X0.00034*%
%ADD246R,0.01660X0.00033*%
%ADD247R,0.01660X0.00034*%
%ADD248R,0.01670X0.00033*%
%ADD249R,0.01670X0.00034*%
%ADD250R,0.01640X0.00033*%
%ADD251R,0.01630X0.00034*%
%ADD252R,0.01630X0.00033*%
%ADD253R,0.01640X0.00034*%
%ADD254R,0.01200X0.00033*%
%ADD255R,0.03460X0.00034*%
%ADD256R,0.03500X0.00034*%
%ADD257R,0.04170X0.00033*%
%ADD258R,0.04160X0.00033*%
%ADD259R,0.04760X0.00033*%
%ADD260R,0.01600X0.00033*%
%ADD261R,0.04770X0.00033*%
%ADD262R,0.05300X0.00034*%
%ADD263R,0.05770X0.00033*%
%ADD264R,0.05760X0.00033*%
%ADD265R,0.06240X0.00033*%
%ADD266R,0.06630X0.00034*%
%ADD267R,0.07000X0.00033*%
%ADD268R,0.07360X0.00033*%
%ADD269R,0.07740X0.00034*%
%ADD270R,0.08060X0.00033*%
%ADD271R,0.08070X0.00033*%
%ADD272R,0.08370X0.00033*%
%ADD273R,0.08360X0.00033*%
%ADD274R,0.08670X0.00034*%
%ADD275R,0.01600X0.00034*%
%ADD276R,0.08660X0.00034*%
%ADD277R,0.08970X0.00033*%
%ADD278R,0.09230X0.00033*%
%ADD279R,0.09240X0.00033*%
%ADD280R,0.09500X0.00034*%
%ADD281R,0.01570X0.00034*%
%ADD282R,0.09770X0.00033*%
%ADD283R,0.10030X0.00033*%
%ADD284R,0.01570X0.00033*%
%ADD285R,0.10040X0.00033*%
%ADD286R,0.10300X0.00034*%
%ADD287R,0.12070X0.00033*%
%ADD288R,0.12130X0.00033*%
%ADD289R,0.12140X0.00033*%
%ADD290R,0.12200X0.00034*%
%ADD291R,0.12300X0.00033*%
%ADD292R,0.12260X0.00033*%
%ADD293R,0.12330X0.00033*%
%ADD294R,0.12430X0.00034*%
%ADD295R,0.12470X0.00033*%
%ADD296R,0.12540X0.00033*%
%ADD297R,0.12530X0.00033*%
%ADD298R,0.12600X0.00034*%
%ADD299R,0.12630X0.00033*%
%ADD300R,0.12670X0.00033*%
%ADD301R,0.12730X0.00033*%
%ADD302R,0.12740X0.00033*%
%ADD303R,0.12940X0.00034*%
%ADD304R,0.12930X0.00034*%
%ADD305R,0.13130X0.00033*%
%ADD306R,0.13300X0.00033*%
%ADD307R,0.13340X0.00033*%
%ADD308R,0.13460X0.00034*%
%ADD309R,0.13470X0.00034*%
%ADD310R,0.13670X0.00033*%
%ADD311R,0.13870X0.00033*%
%ADD312R,0.13860X0.00033*%
%ADD313R,0.14030X0.00034*%
%ADD314R,0.14200X0.00033*%
%ADD315R,0.14360X0.00033*%
%ADD316R,0.14370X0.00033*%
%ADD317R,0.14570X0.00034*%
%ADD318R,0.14700X0.00033*%
%ADD319R,0.14870X0.00033*%
%ADD320R,0.15030X0.00034*%
%ADD321R,0.15200X0.00033*%
%ADD322R,0.15330X0.00033*%
%ADD323R,0.15530X0.00034*%
%ADD324R,0.15540X0.00034*%
%ADD325R,0.15660X0.00033*%
%ADD326R,0.15670X0.00033*%
%ADD327R,0.15800X0.00033*%
%ADD328R,0.15840X0.00033*%
%ADD329R,0.15960X0.00034*%
%ADD330R,0.15970X0.00034*%
%ADD331R,0.16100X0.00033*%
%ADD332R,0.16270X0.00033*%
%ADD333R,0.16440X0.00034*%
%ADD334R,0.16430X0.00034*%
%ADD335R,0.07270X0.00033*%
%ADD336R,0.07340X0.00033*%
%ADD337R,0.06860X0.00033*%
%ADD338R,0.06900X0.00033*%
%ADD339R,0.06930X0.00033*%
%ADD340R,0.06830X0.00033*%
%ADD341R,0.06570X0.00034*%
%ADD342R,0.06640X0.00034*%
%ADD343R,0.06560X0.00034*%
%ADD344R,0.06360X0.00033*%
%ADD345R,0.06400X0.00033*%
%ADD346R,0.06170X0.00033*%
%ADD347R,0.06130X0.00033*%
%ADD348R,0.06000X0.00034*%
%ADD349R,0.06040X0.00034*%
%ADD350R,0.06030X0.00034*%
%ADD351R,0.05970X0.00034*%
%ADD352R,0.05830X0.00033*%
%ADD353R,0.05870X0.00033*%
%ADD354R,0.05900X0.00033*%
%ADD355R,0.05740X0.00033*%
%ADD356R,0.05570X0.00034*%
%ADD357R,0.05640X0.00034*%
%ADD358R,0.05630X0.00034*%
%ADD359R,0.05460X0.00033*%
%ADD360R,0.05540X0.00033*%
%ADD361R,0.05500X0.00033*%
%ADD362R,0.05470X0.00033*%
%ADD363R,0.05370X0.00033*%
%ADD364R,0.05360X0.00033*%
%ADD365R,0.05270X0.00034*%
%ADD366R,0.05600X0.00034*%
%ADD367R,0.05160X0.00033*%
%ADD368R,0.05170X0.00033*%
%ADD369R,0.05100X0.00033*%
%ADD370R,0.05800X0.00033*%
%ADD371R,0.05840X0.00033*%
%ADD372R,0.05030X0.00034*%
%ADD373R,0.05930X0.00034*%
%ADD374R,0.05940X0.00034*%
%ADD375R,0.05000X0.00034*%
%ADD376R,0.04930X0.00033*%
%ADD377R,0.06100X0.00033*%
%ADD378R,0.04860X0.00033*%
%ADD379R,0.04800X0.00034*%
%ADD380R,0.06230X0.00034*%
%ADD381R,0.01500X0.00033*%
%ADD382R,0.04800X0.00033*%
%ADD383R,0.04730X0.00033*%
%ADD384R,0.04700X0.00033*%
%ADD385R,0.01470X0.00033*%
%ADD386R,0.04630X0.00034*%
%ADD387R,0.01460X0.00034*%
%ADD388R,0.01500X0.00034*%
%ADD389R,0.04640X0.00034*%
%ADD390R,0.04640X0.00033*%
%ADD391R,0.04630X0.00033*%
%ADD392R,0.04530X0.00033*%
%ADD393R,0.04570X0.00033*%
%ADD394R,0.01460X0.00033*%
%ADD395R,0.04500X0.00033*%
%ADD396R,0.04470X0.00034*%
%ADD397R,0.01470X0.00034*%
%ADD398R,0.04500X0.00034*%
%ADD399R,0.04540X0.00034*%
%ADD400R,0.04460X0.00034*%
%ADD401R,0.04430X0.00033*%
%ADD402R,0.04440X0.00033*%
%ADD403R,0.04400X0.00033*%
%ADD404R,0.04370X0.00034*%
%ADD405R,0.04360X0.00034*%
%ADD406R,0.04330X0.00034*%
%ADD407R,0.04330X0.00033*%
%ADD408R,0.04260X0.00033*%
%ADD409R,0.04270X0.00033*%
%ADD410R,0.04240X0.00033*%
%ADD411R,0.04230X0.00034*%
%ADD412R,0.04270X0.00034*%
%ADD413R,0.04200X0.00033*%
%ADD414R,0.04140X0.00033*%
%ADD415R,0.04100X0.00034*%
%ADD416R,0.01430X0.00034*%
%ADD417R,0.04130X0.00034*%
%ADD418R,0.04060X0.00033*%
%ADD419R,0.04030X0.00033*%
%ADD420R,0.04040X0.00033*%
%ADD421R,0.04000X0.00034*%
%ADD422R,0.04040X0.00034*%
%ADD423R,0.04030X0.00034*%
%ADD424R,0.03930X0.00033*%
%ADD425R,0.03940X0.00033*%
%ADD426R,0.03930X0.00034*%
%ADD427R,0.01440X0.00034*%
%ADD428R,0.03900X0.00033*%
%ADD429R,0.01430X0.00033*%
%ADD430R,0.01440X0.00033*%
%ADD431R,0.03860X0.00033*%
%ADD432R,0.03870X0.00033*%
%ADD433R,0.03830X0.00034*%
%ADD434R,0.03800X0.00033*%
%ADD435R,0.03770X0.00034*%
%ADD436R,0.03760X0.00034*%
%ADD437R,0.03700X0.00033*%
%ADD438R,0.03740X0.00033*%
%ADD439R,0.03730X0.00033*%
%ADD440R,0.03670X0.00034*%
%ADD441R,0.03660X0.00033*%
%ADD442R,0.03600X0.00034*%
%ADD443R,0.03640X0.00034*%
%ADD444R,0.03630X0.00034*%
%ADD445R,0.03570X0.00033*%
%ADD446R,0.03560X0.00033*%
%ADD447R,0.03530X0.00034*%
%ADD448R,0.03530X0.00033*%
%ADD449R,0.03470X0.00034*%
%ADD450R,0.03460X0.00033*%
%ADD451R,0.03430X0.00033*%
%ADD452R,0.06840X0.00033*%
%ADD453R,0.01400X0.00034*%
%ADD454R,0.01400X0.00033*%
%ADD455R,0.06470X0.00033*%
%ADD456R,0.03400X0.00033*%
%ADD457R,0.06270X0.00033*%
%ADD458R,0.03360X0.00034*%
%ADD459R,0.06100X0.00034*%
%ADD460R,0.03330X0.00034*%
%ADD461R,0.03340X0.00033*%
%ADD462R,0.05730X0.00033*%
%ADD463R,0.05530X0.00034*%
%ADD464R,0.03300X0.00033*%
%ADD465R,0.05200X0.00033*%
%ADD466R,0.03230X0.00034*%
%ADD467R,0.03240X0.00034*%
%ADD468R,0.03260X0.00033*%
%ADD469R,0.04840X0.00033*%
%ADD470R,0.04670X0.00033*%
%ADD471R,0.03160X0.00033*%
%ADD472R,0.03170X0.00034*%
%ADD473R,0.03960X0.00034*%
%ADD474R,0.03160X0.00034*%
%ADD475R,0.03070X0.00034*%
%ADD476R,0.03060X0.00033*%
%ADD477R,0.03060X0.00034*%
%ADD478R,0.04070X0.00034*%
%ADD479R,0.01360X0.00034*%
%ADD480R,0.01370X0.00033*%
%ADD481R,0.02970X0.00033*%
%ADD482R,0.02960X0.00034*%
%ADD483R,0.01370X0.00034*%
%ADD484R,0.04870X0.00034*%
%ADD485R,0.05130X0.00033*%
%ADD486R,0.01360X0.00033*%
%ADD487R,0.05400X0.00033*%
%ADD488R,0.05530X0.00033*%
%ADD489R,0.05670X0.00034*%
%ADD490R,0.02840X0.00033*%
%ADD491R,0.02830X0.00033*%
%ADD492R,0.02840X0.00034*%
%ADD493R,0.02730X0.00034*%
%ADD494R,0.02740X0.00034*%
%ADD495R,0.02760X0.00033*%
%ADD496R,0.01330X0.00034*%
%ADD497R,0.01340X0.00033*%
%ADD498R,0.02660X0.00034*%
%ADD499R,0.02630X0.00034*%
%ADD500R,0.02640X0.00033*%
%ADD501R,0.01340X0.00034*%
%ADD502R,0.01300X0.00034*%
%ADD503R,0.01300X0.00033*%
%ADD504R,0.02460X0.00034*%
%ADD505R,0.02440X0.00034*%
%ADD506R,0.02360X0.00034*%
%ADD507R,0.02340X0.00033*%
%ADD508R,0.01270X0.00033*%
%ADD509R,0.01260X0.00034*%
%ADD510R,0.02230X0.00034*%
%ADD511R,0.02240X0.00034*%
%ADD512R,0.03370X0.00034*%
%ADD513R,0.01560X0.00033*%
%ADD514R,0.02160X0.00034*%
%ADD515R,0.00100X0.00033*%
%ADD516R,0.00200X0.00034*%
%ADD517R,0.00330X0.00033*%
%ADD518R,0.00300X0.00033*%
%ADD519R,0.00440X0.00033*%
%ADD520R,0.00430X0.00033*%
%ADD521R,0.00530X0.00034*%
%ADD522R,0.00540X0.00034*%
%ADD523R,0.00660X0.00033*%
%ADD524R,0.00630X0.00033*%
%ADD525R,0.00770X0.00033*%
%ADD526R,0.00760X0.00033*%
%ADD527R,0.00870X0.00034*%
%ADD528R,0.01000X0.00033*%
%ADD529R,0.00970X0.00033*%
%ADD530R,0.01100X0.00033*%
%ADD531R,0.01060X0.00033*%
%ADD532R,0.01200X0.00034*%
%ADD533R,0.01170X0.00034*%
%ADD534R,0.01260X0.00033*%
%ADD535R,0.01530X0.00033*%
%ADD536R,0.02860X0.00034*%
%ADD537R,0.03000X0.00034*%
%ADD538R,0.04160X0.00034*%
%ADD539R,0.04600X0.00034*%
%ADD540R,0.01240X0.00034*%
%ADD541R,0.10870X0.00034*%
%ADD542R,0.01240X0.00033*%
%ADD543R,0.10930X0.00033*%
%ADD544R,0.11000X0.00033*%
%ADD545R,0.01270X0.00034*%
%ADD546R,0.11070X0.00034*%
%ADD547R,0.11130X0.00033*%
%ADD548R,0.11070X0.00033*%
%ADD549R,0.01230X0.00033*%
%ADD550R,0.11040X0.00033*%
%ADD551R,0.01230X0.00034*%
%ADD552R,0.11000X0.00034*%
%ADD553R,0.10930X0.00034*%
%ADD554R,0.10870X0.00033*%
%ADD555R,0.10840X0.00034*%
%ADD556R,0.10800X0.00033*%
%ADD557R,0.10730X0.00034*%
%ADD558R,0.10730X0.00033*%
%ADD559R,0.10670X0.00033*%
%ADD560R,0.10670X0.00034*%
%ADD561R,0.10640X0.00033*%
%ADD562R,0.10600X0.00033*%
%ADD563R,0.10560X0.00034*%
%ADD564R,0.10530X0.00033*%
%ADD565R,0.10470X0.00034*%
%ADD566R,0.10470X0.00033*%
%ADD567R,0.10400X0.00033*%
%ADD568R,0.10360X0.00034*%
%ADD569R,0.10330X0.00033*%
%ADD570R,0.10270X0.00033*%
%ADD571R,0.10270X0.00034*%
%ADD572R,0.10200X0.00033*%
%ADD573R,0.10130X0.00033*%
%ADD574R,0.10070X0.00034*%
%ADD575R,0.09730X0.00034*%
%ADD576R,0.09600X0.00033*%
%ADD577R,0.09530X0.00034*%
%ADD578R,0.09440X0.00034*%
%ADD579R,0.09400X0.00033*%
%ADD580R,0.09360X0.00034*%
%ADD581R,0.09330X0.00034*%
%ADD582R,0.09300X0.00033*%
%ADD583R,0.09270X0.00034*%
%ADD584R,0.09560X0.00033*%
%ADD585R,0.09670X0.00034*%
%ADD586R,0.09730X0.00033*%
%ADD587R,0.09870X0.00034*%
%ADD588R,0.09930X0.00033*%
%ADD589R,0.10000X0.00034*%
%ADD590R,0.04430X0.00034*%
%ADD591R,0.04440X0.00034*%
%ADD592R,0.04530X0.00034*%
%ADD593R,0.05100X0.00034*%
%ADD594R,0.05230X0.00033*%
%ADD595R,0.03800X0.00034*%
%ADD596R,0.05340X0.00033*%
%ADD597R,0.05440X0.00033*%
%ADD598R,0.05460X0.00034*%
%ADD599R,0.05500X0.00034*%
%ADD600R,0.05570X0.00033*%
%ADD601R,0.03440X0.00034*%
%ADD602R,0.05660X0.00033*%
%ADD603R,0.05660X0.00034*%
%ADD604R,0.05670X0.00033*%
%ADD605R,0.05640X0.00033*%
%ADD606R,0.05630X0.00033*%
%ADD607R,0.05560X0.00033*%
%ADD608R,0.05560X0.00034*%
%ADD609R,0.05540X0.00034*%
%ADD610R,0.03430X0.00034*%
%ADD611R,0.05700X0.00034*%
%ADD612R,0.05430X0.00033*%
%ADD613R,0.05330X0.00034*%
%ADD614R,0.05260X0.00033*%
%ADD615R,0.05140X0.00034*%
%ADD616R,0.05030X0.00033*%
%ADD617R,0.04570X0.00034*%
%ADD618R,0.04540X0.00033*%
%ADD619R,0.04660X0.00033*%
%ADD620R,0.04940X0.00034*%
%ADD621R,0.04930X0.00034*%
%ADD622R,0.09960X0.00033*%
%ADD623R,0.09900X0.00033*%
%ADD624R,0.09840X0.00033*%
%ADD625R,0.09800X0.00034*%
%ADD626R,0.09700X0.00034*%
%ADD627R,0.09360X0.00033*%
%ADD628R,0.10200X0.00034*%
%ADD629R,0.10330X0.00034*%
%ADD630R,0.10500X0.00033*%
%ADD631R,0.10530X0.00034*%
%ADD632R,0.10700X0.00033*%
%ADD633R,0.10760X0.00033*%
%ADD634R,0.10800X0.00034*%
%ADD635R,0.10900X0.00034*%
%ADD636R,0.10960X0.00033*%
%ADD637R,0.11100X0.00033*%
%ADD638R,0.11130X0.00034*%
%ADD639R,0.01170X0.00033*%
%ADD640R,0.01140X0.00033*%
%ADD641R,0.01070X0.00033*%
%ADD642R,0.01030X0.00033*%
%ADD643R,0.00930X0.00034*%
%ADD644R,0.00830X0.00033*%
%ADD645R,0.00840X0.00033*%
%ADD646R,0.00740X0.00033*%
%ADD647R,0.00730X0.00033*%
%ADD648R,0.00600X0.00034*%
%ADD649R,0.00500X0.00033*%
%ADD650R,0.00400X0.00033*%
%ADD651R,0.00300X0.00034*%
%ADD652R,0.00270X0.00034*%
%ADD653R,0.00170X0.00033*%
%ADD654R,0.00070X0.00033*%
%ADD655R,0.00060X0.00033*%
%ADD656R,0.02940X0.00034*%
%ADD657R,0.05730X0.00034*%
%ADD658R,0.05070X0.00033*%
%ADD659R,0.03260X0.00034*%
%ADD660R,0.06600X0.00034*%
%ADD661R,0.03740X0.00034*%
%ADD662R,0.03940X0.00034*%
%ADD663R,0.03870X0.00034*%
%ADD664R,0.03970X0.00034*%
%ADD665R,0.04240X0.00034*%
%ADD666R,0.04230X0.00033*%
%ADD667R,0.04340X0.00034*%
%ADD668R,0.04360X0.00033*%
%ADD669R,0.04370X0.00033*%
%ADD670R,0.04560X0.00033*%
%ADD671R,0.04660X0.00034*%
%ADD672R,0.06260X0.00034*%
%ADD673R,0.06270X0.00034*%
%ADD674R,0.04770X0.00034*%
%ADD675R,0.04830X0.00033*%
%ADD676R,0.04900X0.00033*%
%ADD677R,0.06030X0.00033*%
%ADD678R,0.06040X0.00033*%
%ADD679R,0.04970X0.00034*%
%ADD680R,0.05260X0.00034*%
%ADD681R,0.05230X0.00034*%
%ADD682R,0.05960X0.00034*%
%ADD683R,0.05900X0.00034*%
%ADD684R,0.06060X0.00033*%
%ADD685R,0.06300X0.00033*%
%ADD686R,0.06500X0.00034*%
%ADD687R,0.06530X0.00034*%
%ADD688R,0.06470X0.00034*%
%ADD689R,0.06730X0.00033*%
%ADD690R,0.07200X0.00033*%
%ADD691R,0.07160X0.00033*%
%ADD692R,0.07870X0.00034*%
%ADD693R,0.07800X0.00034*%
%ADD694R,0.16330X0.00033*%
%ADD695R,0.16200X0.00033*%
%ADD696R,0.16170X0.00033*%
%ADD697R,0.16000X0.00034*%
%ADD698R,0.15870X0.00033*%
%ADD699R,0.15740X0.00033*%
%ADD700R,0.15700X0.00033*%
%ADD701R,0.15570X0.00034*%
%ADD702R,0.15440X0.00033*%
%ADD703R,0.15400X0.00033*%
%ADD704R,0.15230X0.00033*%
%ADD705R,0.15240X0.00033*%
%ADD706R,0.15100X0.00034*%
%ADD707R,0.14930X0.00033*%
%ADD708R,0.14900X0.00033*%
%ADD709R,0.14770X0.00033*%
%ADD710R,0.14760X0.00033*%
%ADD711R,0.14600X0.00034*%
%ADD712R,0.14440X0.00033*%
%ADD713R,0.14400X0.00033*%
%ADD714R,0.14270X0.00033*%
%ADD715R,0.14060X0.00034*%
%ADD716R,0.14070X0.00034*%
%ADD717R,0.13930X0.00033*%
%ADD718R,0.13900X0.00033*%
%ADD719R,0.13730X0.00033*%
%ADD720R,0.13570X0.00034*%
%ADD721R,0.13530X0.00034*%
%ADD722R,0.13370X0.00033*%
%ADD723R,0.13160X0.00033*%
%ADD724R,0.13170X0.00033*%
%ADD725R,0.12970X0.00034*%
%ADD726R,0.12960X0.00034*%
%ADD727R,0.12800X0.00033*%
%ADD728R,0.12770X0.00033*%
%ADD729R,0.12660X0.00033*%
%ADD730R,0.12640X0.00034*%
%ADD731R,0.12570X0.00033*%
%ADD732R,0.12500X0.00033*%
%ADD733R,0.12470X0.00034*%
%ADD734R,0.12400X0.00034*%
%ADD735R,0.12370X0.00033*%
%ADD736R,0.12360X0.00033*%
%ADD737R,0.12230X0.00034*%
%ADD738R,0.12240X0.00034*%
%ADD739R,0.12160X0.00033*%
%ADD740R,0.12100X0.00033*%
%ADD741R,0.12000X0.00034*%
%ADD742R,0.10370X0.00034*%
%ADD743R,0.09640X0.00034*%
%ADD744R,0.09060X0.00033*%
%ADD745R,0.08740X0.00034*%
%ADD746R,0.08170X0.00033*%
%ADD747R,0.08130X0.00033*%
%ADD748R,0.07830X0.00034*%
%ADD749R,0.07500X0.00033*%
%ADD750R,0.07170X0.00033*%
%ADD751R,0.07100X0.00033*%
%ADD752R,0.06770X0.00034*%
%ADD753R,0.06340X0.00033*%
%ADD754R,0.05430X0.00034*%
%ADD755R,0.04960X0.00033*%
%ADD756R,0.04940X0.00033*%
%ADD757R,0.03660X0.00034*%
%ADD758R,0.04140X0.00034*%
%ADD759R,0.04560X0.00034*%
%ADD760R,0.09960X0.00034*%
%ADD761R,0.09240X0.00034*%
%ADD762R,0.09200X0.00033*%
%ADD763R,0.09070X0.00034*%
%ADD764R,0.09000X0.00033*%
%ADD765R,0.08870X0.00034*%
%ADD766R,0.08800X0.00033*%
%ADD767R,0.08560X0.00033*%
%ADD768R,0.08500X0.00033*%
%ADD769R,0.08440X0.00034*%
%ADD770R,0.08000X0.00034*%
%ADD771R,0.07930X0.00033*%
%ADD772R,0.07840X0.00033*%
%ADD773R,0.07600X0.00033*%
%ADD774R,0.07530X0.00034*%
%ADD775R,0.07470X0.00033*%
%ADD776R,0.07270X0.00034*%
%ADD777R,0.06730X0.00034*%
%ADD778R,0.06670X0.00033*%
%ADD779R,0.06160X0.00034*%
%ADD780R,0.06070X0.00033*%
%ADD781R,0.05960X0.00033*%
%ADD782R,0.05870X0.00034*%
%ADD783R,0.05300X0.00033*%
%ADD784R,0.05200X0.00034*%
%ADD785R,0.04400X0.00034*%
%ADD786R,0.01040X0.00033*%
%ADD787C,0.00800*%
%ADD788C,0.00600*%
%ADD789C,0.00300*%
D10*
X0019467Y0012477D02*
X0022536Y0012477D01*
X0021001Y0012477D02*
X0021001Y0017081D01*
X0019467Y0015546D01*
X0029467Y0016313D02*
X0030234Y0017081D01*
X0031769Y0017081D01*
X0032536Y0016313D01*
X0032536Y0015546D01*
X0029467Y0012477D01*
X0032536Y0012477D01*
X0039467Y0013244D02*
X0040234Y0012477D01*
X0041769Y0012477D01*
X0042536Y0013244D01*
X0042536Y0014011D01*
X0041769Y0014779D01*
X0041001Y0014779D01*
X0041769Y0014779D02*
X0042536Y0015546D01*
X0042536Y0016313D01*
X0041769Y0017081D01*
X0040234Y0017081D01*
X0039467Y0016313D01*
X0049467Y0014779D02*
X0052536Y0014779D01*
X0051769Y0012477D02*
X0051769Y0017081D01*
X0049467Y0014779D01*
X0059467Y0014779D02*
X0061001Y0015546D01*
X0061769Y0015546D01*
X0062536Y0014779D01*
X0062536Y0013244D01*
X0061769Y0012477D01*
X0060234Y0012477D01*
X0059467Y0013244D01*
X0059467Y0014779D02*
X0059467Y0017081D01*
X0062536Y0017081D01*
X0069467Y0014779D02*
X0069467Y0013244D01*
X0070234Y0012477D01*
X0071769Y0012477D01*
X0072536Y0013244D01*
X0072536Y0014011D01*
X0071769Y0014779D01*
X0069467Y0014779D01*
X0071001Y0016313D01*
X0072536Y0017081D01*
X0079467Y0017081D02*
X0082536Y0017081D01*
X0082536Y0016313D01*
X0079467Y0013244D01*
X0079467Y0012477D01*
X0089467Y0013244D02*
X0089467Y0014011D01*
X0090234Y0014779D01*
X0091769Y0014779D01*
X0092536Y0014011D01*
X0092536Y0013244D01*
X0091769Y0012477D01*
X0090234Y0012477D01*
X0089467Y0013244D01*
X0090234Y0014779D02*
X0089467Y0015546D01*
X0089467Y0016313D01*
X0090234Y0017081D01*
X0091769Y0017081D01*
X0092536Y0016313D01*
X0092536Y0015546D01*
X0091769Y0014779D01*
X0099467Y0015546D02*
X0100234Y0014779D01*
X0102536Y0014779D01*
X0102536Y0016313D02*
X0101769Y0017081D01*
X0100234Y0017081D01*
X0099467Y0016313D01*
X0099467Y0015546D01*
X0099467Y0013244D02*
X0100234Y0012477D01*
X0101769Y0012477D01*
X0102536Y0013244D01*
X0102536Y0016313D01*
X0101769Y0115977D02*
X0102536Y0116744D01*
X0102536Y0119813D01*
X0101769Y0120581D01*
X0100234Y0120581D01*
X0099467Y0119813D01*
X0099467Y0119046D01*
X0100234Y0118279D01*
X0102536Y0118279D01*
X0101769Y0115977D02*
X0100234Y0115977D01*
X0099467Y0116744D01*
X0092536Y0116744D02*
X0091769Y0115977D01*
X0090234Y0115977D01*
X0089467Y0116744D01*
X0089467Y0117511D01*
X0090234Y0118279D01*
X0091769Y0118279D01*
X0092536Y0117511D01*
X0092536Y0116744D01*
X0091769Y0118279D02*
X0092536Y0119046D01*
X0092536Y0119813D01*
X0091769Y0120581D01*
X0090234Y0120581D01*
X0089467Y0119813D01*
X0089467Y0119046D01*
X0090234Y0118279D01*
X0082536Y0119813D02*
X0079467Y0116744D01*
X0079467Y0115977D01*
X0082536Y0119813D02*
X0082536Y0120581D01*
X0079467Y0120581D01*
X0072536Y0120581D02*
X0071001Y0119813D01*
X0069467Y0118279D01*
X0071769Y0118279D01*
X0072536Y0117511D01*
X0072536Y0116744D01*
X0071769Y0115977D01*
X0070234Y0115977D01*
X0069467Y0116744D01*
X0069467Y0118279D01*
X0062536Y0118279D02*
X0062536Y0116744D01*
X0061769Y0115977D01*
X0060234Y0115977D01*
X0059467Y0116744D01*
X0059467Y0118279D02*
X0061001Y0119046D01*
X0061769Y0119046D01*
X0062536Y0118279D01*
X0062536Y0120581D02*
X0059467Y0120581D01*
X0059467Y0118279D01*
X0052536Y0118279D02*
X0049467Y0118279D01*
X0051769Y0120581D01*
X0051769Y0115977D01*
X0042536Y0116744D02*
X0041769Y0115977D01*
X0040234Y0115977D01*
X0039467Y0116744D01*
X0041001Y0118279D02*
X0041769Y0118279D01*
X0042536Y0117511D01*
X0042536Y0116744D01*
X0041769Y0118279D02*
X0042536Y0119046D01*
X0042536Y0119813D01*
X0041769Y0120581D01*
X0040234Y0120581D01*
X0039467Y0119813D01*
X0032536Y0119813D02*
X0031769Y0120581D01*
X0030234Y0120581D01*
X0029467Y0119813D01*
X0032536Y0119813D02*
X0032536Y0119046D01*
X0029467Y0115977D01*
X0032536Y0115977D01*
X0022536Y0115977D02*
X0019467Y0115977D01*
X0021001Y0115977D02*
X0021001Y0120581D01*
X0019467Y0119046D01*
X0083099Y0194643D02*
X0084469Y0195630D01*
X0090829Y0201605D01*
X0087704Y0209226D01*
X0087101Y0209829D01*
X0093131Y0209829D01*
X0093131Y0209500D01*
X0092967Y0209171D01*
X0093131Y0208897D01*
X0093131Y0208623D01*
X0094502Y0205169D01*
X0098394Y0209007D01*
X0098614Y0209281D01*
X0098778Y0209610D01*
X0098833Y0209829D01*
X0102286Y0209829D01*
X0101574Y0209335D01*
X0101026Y0208952D01*
X0100258Y0208294D01*
X0095105Y0203470D01*
X0098175Y0195904D01*
X0099052Y0194698D01*
X0099216Y0194698D01*
X0099545Y0195027D01*
X0099984Y0196342D01*
X0100642Y0198809D01*
X0101409Y0201935D01*
X0102835Y0207746D01*
X0103054Y0208733D01*
X0103054Y0209829D01*
X0115499Y0209829D01*
X0116157Y0209664D01*
X0116595Y0209390D01*
X0116924Y0208787D01*
X0117143Y0208239D01*
X0117143Y0207307D01*
X0116979Y0206868D01*
X0116321Y0204127D01*
X0116102Y0203579D01*
X0115280Y0202757D01*
X0114622Y0202483D01*
X0113745Y0202263D01*
X0112648Y0202263D01*
X0114238Y0202044D01*
X0115389Y0201496D01*
X0115444Y0201386D01*
X0115444Y0199906D01*
X0114841Y0197494D01*
X0114457Y0196891D01*
X0114347Y0196233D01*
X0113525Y0195301D01*
X0112867Y0194972D01*
X0111826Y0194643D01*
X0092802Y0194643D01*
X0093131Y0195246D01*
X0093131Y0195630D01*
X0091377Y0199961D01*
X0086827Y0195520D01*
X0086333Y0194643D01*
X0083099Y0194643D01*
X0104425Y0196507D02*
X0105686Y0201331D01*
X0110675Y0201331D01*
X0111113Y0201167D01*
X0111387Y0200783D01*
X0111387Y0200619D01*
X0110565Y0197384D01*
X0110345Y0197055D01*
X0109962Y0196616D01*
X0109742Y0196507D01*
X0104425Y0196507D01*
X0106069Y0203305D02*
X0107221Y0207965D01*
X0112264Y0207965D01*
X0112758Y0207691D01*
X0112812Y0206814D01*
X0112045Y0203908D01*
X0111880Y0203524D01*
X0111552Y0203305D01*
X0106069Y0203305D01*
X0117747Y0202373D02*
X0116650Y0197494D01*
X0116540Y0196616D01*
X0116540Y0196068D01*
X0116705Y0195465D01*
X0116979Y0195081D01*
X0117417Y0194753D01*
X0117856Y0194643D01*
X0128711Y0194643D01*
X0129479Y0196507D01*
X0128766Y0196397D01*
X0120871Y0196397D01*
X0120652Y0196562D01*
X0120597Y0196946D01*
X0120707Y0197274D01*
X0121145Y0199139D01*
X0130136Y0199139D01*
X0131069Y0202921D01*
X0131069Y0204840D01*
X0130849Y0205059D01*
X0130136Y0205607D01*
X0129534Y0205827D01*
X0120926Y0205827D01*
X0120597Y0205772D01*
X0119940Y0205553D01*
X0119062Y0205005D01*
X0118569Y0204292D01*
X0117911Y0202976D01*
X0117747Y0202373D01*
X0121639Y0200893D02*
X0121694Y0200838D01*
X0126408Y0200838D01*
X0127012Y0203195D01*
X0127012Y0203908D01*
X0126847Y0204072D01*
X0126628Y0204127D01*
X0122736Y0204127D01*
X0122406Y0203963D01*
X0122187Y0203579D01*
X0122023Y0203140D01*
X0121639Y0200893D01*
X0131233Y0197494D02*
X0132329Y0202373D01*
X0132494Y0202976D01*
X0133152Y0204292D01*
X0133645Y0205005D01*
X0134522Y0205553D01*
X0135180Y0205772D01*
X0135509Y0205827D01*
X0144116Y0205827D01*
X0144719Y0205607D01*
X0145432Y0205059D01*
X0145651Y0204840D01*
X0145651Y0202921D01*
X0144719Y0199139D01*
X0135728Y0199139D01*
X0135290Y0197274D01*
X0135180Y0196946D01*
X0135235Y0196562D01*
X0135454Y0196397D01*
X0143349Y0196397D01*
X0144061Y0196507D01*
X0143294Y0194643D01*
X0132439Y0194643D01*
X0132000Y0194753D01*
X0131562Y0195081D01*
X0131288Y0195465D01*
X0131123Y0196068D01*
X0131123Y0196616D01*
X0131233Y0197494D01*
X0136222Y0200893D02*
X0136277Y0200838D01*
X0140991Y0200838D01*
X0141594Y0203195D01*
X0141594Y0203908D01*
X0141430Y0204072D01*
X0141210Y0204127D01*
X0137318Y0204127D01*
X0136989Y0203963D01*
X0136770Y0203579D01*
X0136605Y0203140D01*
X0136222Y0200893D01*
X0139840Y0188722D02*
X0138689Y0188119D01*
X0136606Y0186365D01*
X0135125Y0184885D01*
X0134961Y0184446D01*
X0134687Y0183130D01*
X0134632Y0182034D01*
X0135180Y0180992D01*
X0136112Y0180389D01*
X0137373Y0180389D01*
X0138963Y0180608D01*
X0140004Y0181266D01*
X0141430Y0181595D01*
X0142197Y0182363D01*
X0143239Y0183185D01*
X0143842Y0184281D01*
X0143952Y0184994D01*
X0143678Y0186036D01*
X0142746Y0186803D01*
X0141649Y0187571D01*
X0140882Y0187790D01*
X0140827Y0188064D01*
X0140443Y0188503D01*
X0139895Y0188722D01*
X0139292Y0186858D02*
X0138689Y0186420D01*
X0137264Y0185323D01*
X0136332Y0184062D01*
X0135838Y0182472D01*
X0135783Y0181924D01*
X0136277Y0181650D01*
X0137592Y0181705D01*
X0138908Y0182198D01*
X0140279Y0182637D01*
X0141430Y0183295D01*
X0142527Y0184062D01*
X0142527Y0185378D01*
X0141320Y0186639D01*
X0140662Y0186858D01*
X0139292Y0186858D01*
X0133426Y0187297D02*
X0133152Y0186803D01*
X0133152Y0186365D01*
X0132713Y0185926D01*
X0132110Y0185542D01*
X0130904Y0184994D01*
X0129753Y0184281D01*
X0129204Y0183953D01*
X0130027Y0183130D01*
X0131069Y0182418D01*
X0131836Y0181814D01*
X0132275Y0181266D01*
X0132494Y0180718D01*
X0132549Y0180389D01*
X0132384Y0180060D01*
X0132220Y0180005D01*
X0131781Y0180334D01*
X0129643Y0182034D01*
X0127615Y0183404D01*
X0127231Y0183404D01*
X0127121Y0183020D01*
X0126738Y0181924D01*
X0126408Y0180937D01*
X0126189Y0180389D01*
X0126189Y0180060D01*
X0125586Y0180608D01*
X0125531Y0181431D01*
X0125641Y0181979D01*
X0126134Y0183733D01*
X0126408Y0184720D01*
X0127012Y0186090D01*
X0127395Y0186803D01*
X0127560Y0187187D01*
X0127176Y0187242D01*
X0126738Y0186913D01*
X0126738Y0186968D01*
X0126573Y0187187D01*
X0126299Y0187352D01*
X0126189Y0187571D01*
X0126244Y0187900D01*
X0126573Y0188229D01*
X0127176Y0188448D01*
X0127889Y0188722D01*
X0131069Y0188722D01*
X0131727Y0188558D01*
X0132494Y0188283D01*
X0132932Y0188009D01*
X0133316Y0187571D01*
X0133426Y0187297D01*
X0131891Y0186968D02*
X0131507Y0186858D01*
X0130959Y0186310D01*
X0130191Y0185871D01*
X0129479Y0185488D01*
X0128656Y0185323D01*
X0127999Y0184994D01*
X0129040Y0186858D01*
X0129095Y0187406D01*
X0131069Y0187406D01*
X0131727Y0187297D01*
X0131891Y0186968D01*
X0124216Y0187023D02*
X0124216Y0186803D01*
X0123996Y0186310D01*
X0123667Y0185926D01*
X0123010Y0185488D01*
X0120597Y0184281D01*
X0119336Y0183788D01*
X0118350Y0183569D01*
X0118021Y0183514D01*
X0117637Y0183514D01*
X0117473Y0183020D01*
X0117143Y0182034D01*
X0116869Y0181157D01*
X0116650Y0180773D01*
X0116540Y0180553D01*
X0116321Y0180444D01*
X0116047Y0180608D01*
X0115828Y0180937D01*
X0115828Y0181321D01*
X0115938Y0181760D01*
X0116431Y0182801D01*
X0116760Y0183569D01*
X0116869Y0184281D01*
X0117034Y0184939D01*
X0117308Y0185816D01*
X0117582Y0186474D01*
X0117856Y0186913D01*
X0117417Y0186913D01*
X0117417Y0187845D01*
X0117911Y0187845D01*
X0118350Y0188174D01*
X0118788Y0188613D01*
X0119282Y0188339D01*
X0121255Y0188339D01*
X0122845Y0188174D01*
X0123941Y0187516D01*
X0124216Y0187023D01*
X0122955Y0186858D02*
X0122900Y0186694D01*
X0122626Y0186474D01*
X0121749Y0186036D01*
X0121036Y0185542D01*
X0120049Y0185268D01*
X0119336Y0184994D01*
X0118898Y0184939D01*
X0118240Y0184939D01*
X0119227Y0186968D01*
X0119336Y0187242D01*
X0122132Y0187242D01*
X0122790Y0186968D01*
X0122955Y0186858D01*
X0192597Y0177049D02*
X0192597Y0175314D01*
X0193464Y0174447D01*
X0195199Y0174447D01*
X0196067Y0175314D01*
X0196067Y0177049D01*
X0194332Y0177916D02*
X0194332Y0174447D01*
X0194332Y0172760D02*
X0194332Y0169290D01*
X0195199Y0169290D02*
X0193464Y0169290D01*
X0192597Y0170158D01*
X0192597Y0171892D01*
X0193464Y0172760D01*
X0194332Y0172760D01*
X0196067Y0171892D02*
X0196067Y0170158D01*
X0195199Y0169290D01*
X0195199Y0167579D02*
X0196067Y0167579D01*
X0196067Y0166712D01*
X0195199Y0166712D01*
X0195199Y0167579D01*
X0192597Y0165017D02*
X0192597Y0164150D01*
X0194332Y0162415D01*
X0194332Y0160728D02*
X0194332Y0157259D01*
X0195199Y0157259D02*
X0193464Y0157259D01*
X0192597Y0158126D01*
X0192597Y0159861D01*
X0193464Y0160728D01*
X0194332Y0160728D01*
X0196067Y0159861D02*
X0196067Y0158126D01*
X0195199Y0157259D01*
X0195199Y0155572D02*
X0193464Y0155572D01*
X0192597Y0154705D01*
X0192597Y0152102D01*
X0190862Y0152102D02*
X0196067Y0152102D01*
X0196067Y0154705D01*
X0195199Y0155572D01*
X0196067Y0150416D02*
X0193464Y0150416D01*
X0192597Y0149548D01*
X0193464Y0148681D01*
X0196067Y0148681D01*
X0196067Y0146946D02*
X0192597Y0146946D01*
X0192597Y0147813D01*
X0193464Y0148681D01*
X0193464Y0145259D02*
X0196067Y0145259D01*
X0196067Y0142657D01*
X0195199Y0141789D01*
X0194332Y0142657D01*
X0194332Y0145259D01*
X0193464Y0145259D02*
X0192597Y0144392D01*
X0192597Y0142657D01*
X0193464Y0140103D02*
X0192597Y0139235D01*
X0192597Y0137500D01*
X0193464Y0136633D01*
X0192597Y0134946D02*
X0192597Y0132344D01*
X0193464Y0131477D01*
X0195199Y0131477D01*
X0196067Y0132344D01*
X0196067Y0134946D01*
X0196067Y0136633D02*
X0190862Y0136633D01*
X0193464Y0140103D02*
X0196067Y0140103D01*
X0200862Y0134946D02*
X0204332Y0134946D01*
X0206067Y0133212D01*
X0204332Y0131477D01*
X0200862Y0131477D01*
X0203464Y0136633D02*
X0202597Y0137500D01*
X0202597Y0139235D01*
X0203464Y0140103D01*
X0204332Y0140103D01*
X0204332Y0136633D01*
X0205199Y0136633D02*
X0203464Y0136633D01*
X0205199Y0136633D02*
X0206067Y0137500D01*
X0206067Y0139235D01*
X0206067Y0141789D02*
X0202597Y0141789D01*
X0204332Y0141789D02*
X0202597Y0143524D01*
X0202597Y0144392D01*
X0203464Y0146086D02*
X0202597Y0146954D01*
X0202597Y0149556D01*
X0202597Y0151243D02*
X0202597Y0152110D01*
X0206067Y0152110D01*
X0206067Y0151243D02*
X0206067Y0152978D01*
X0205199Y0154680D02*
X0206067Y0155548D01*
X0206067Y0157283D01*
X0205199Y0158150D01*
X0203464Y0158150D01*
X0202597Y0157283D01*
X0202597Y0155548D01*
X0203464Y0154680D01*
X0205199Y0154680D01*
X0200862Y0152110D02*
X0199995Y0152110D01*
X0204332Y0148689D02*
X0204332Y0146954D01*
X0203464Y0146086D01*
X0206067Y0146086D02*
X0206067Y0148689D01*
X0205199Y0149556D01*
X0204332Y0148689D01*
X0212597Y0147829D02*
X0212597Y0146094D01*
X0213464Y0145227D01*
X0215199Y0145227D01*
X0216067Y0146094D01*
X0216067Y0147829D01*
X0214332Y0148697D02*
X0214332Y0145227D01*
X0216067Y0143524D02*
X0215199Y0142657D01*
X0211730Y0142657D01*
X0212597Y0141789D02*
X0212597Y0143524D01*
X0213464Y0140103D02*
X0216067Y0140103D01*
X0216067Y0137500D01*
X0215199Y0136633D01*
X0214332Y0137500D01*
X0214332Y0140103D01*
X0213464Y0140103D02*
X0212597Y0139235D01*
X0212597Y0137500D01*
X0211730Y0134946D02*
X0210862Y0134079D01*
X0210862Y0131477D01*
X0216067Y0131477D01*
X0216067Y0134079D01*
X0215199Y0134946D01*
X0211730Y0134946D01*
X0212597Y0147829D02*
X0213464Y0148697D01*
X0214332Y0148697D01*
X0215199Y0150383D02*
X0216067Y0150383D01*
X0216067Y0151251D01*
X0215199Y0151251D01*
X0215199Y0150383D01*
X0213464Y0150383D02*
X0212597Y0150383D01*
X0212597Y0151251D01*
X0213464Y0151251D01*
X0213464Y0150383D01*
X0211730Y0158118D02*
X0210862Y0158985D01*
X0210862Y0160720D01*
X0211730Y0161588D01*
X0212597Y0161588D01*
X0216067Y0158118D01*
X0216067Y0161588D01*
X0215199Y0163274D02*
X0211730Y0163274D01*
X0210862Y0164142D01*
X0210862Y0165877D01*
X0211730Y0166744D01*
X0215199Y0163274D01*
X0216067Y0164142D01*
X0216067Y0165877D01*
X0215199Y0166744D01*
X0211730Y0166744D01*
X0212597Y0168431D02*
X0210862Y0170166D01*
X0216067Y0170166D01*
X0216067Y0168431D02*
X0216067Y0171901D01*
X0215199Y0173587D02*
X0214332Y0173587D01*
X0213464Y0174455D01*
X0213464Y0176189D01*
X0214332Y0177057D01*
X0215199Y0177057D01*
X0216067Y0176189D01*
X0216067Y0174455D01*
X0215199Y0173587D01*
X0213464Y0174455D02*
X0212597Y0173587D01*
X0211730Y0173587D01*
X0210862Y0174455D01*
X0210862Y0176189D01*
X0211730Y0177057D01*
X0212597Y0177057D01*
X0213464Y0176189D01*
X0213464Y0178744D02*
X0213464Y0182213D01*
X0211730Y0183900D02*
X0210862Y0184767D01*
X0210862Y0186502D01*
X0211730Y0187370D01*
X0215199Y0183900D01*
X0216067Y0184767D01*
X0216067Y0186502D01*
X0215199Y0187370D01*
X0211730Y0187370D01*
X0211730Y0189056D02*
X0212597Y0189056D01*
X0213464Y0189924D01*
X0213464Y0192526D01*
X0213464Y0194213D02*
X0213464Y0197682D01*
X0212597Y0199369D02*
X0210862Y0201104D01*
X0216067Y0201104D01*
X0216067Y0199369D02*
X0216067Y0202839D01*
X0213464Y0204526D02*
X0213464Y0207995D01*
X0210862Y0207128D02*
X0213464Y0204526D01*
X0210862Y0207128D02*
X0216067Y0207128D01*
X0215199Y0192526D02*
X0211730Y0192526D01*
X0210862Y0191659D01*
X0210862Y0189924D01*
X0211730Y0189056D01*
X0215199Y0189056D02*
X0216067Y0189924D01*
X0216067Y0191659D01*
X0215199Y0192526D01*
X0215199Y0183900D02*
X0211730Y0183900D01*
X0206067Y0183932D02*
X0206067Y0180462D01*
X0206067Y0178752D02*
X0206067Y0177884D01*
X0205199Y0177884D01*
X0205199Y0178752D01*
X0206067Y0178752D01*
X0205199Y0176198D02*
X0206067Y0175330D01*
X0206067Y0173595D01*
X0205199Y0172728D01*
X0201730Y0176198D01*
X0205199Y0176198D01*
X0205199Y0172728D02*
X0201730Y0172728D01*
X0200862Y0173595D01*
X0200862Y0175330D01*
X0201730Y0176198D01*
X0202597Y0180462D02*
X0200862Y0182197D01*
X0206067Y0182197D01*
X0206067Y0185619D02*
X0206067Y0186486D01*
X0205199Y0186486D01*
X0205199Y0185619D01*
X0206067Y0185619D01*
X0205199Y0188197D02*
X0201730Y0191667D01*
X0205199Y0191667D01*
X0206067Y0190799D01*
X0206067Y0189064D01*
X0205199Y0188197D01*
X0201730Y0188197D01*
X0200862Y0189064D01*
X0200862Y0190799D01*
X0201730Y0191667D01*
X0194332Y0177916D02*
X0193464Y0177916D01*
X0192597Y0177049D01*
X0202597Y0165861D02*
X0203464Y0165861D01*
X0203464Y0164993D01*
X0202597Y0164993D01*
X0202597Y0165861D01*
X0205199Y0165861D02*
X0206067Y0165861D01*
X0206067Y0164993D01*
X0205199Y0164993D01*
X0205199Y0165861D01*
X0206067Y0163307D02*
X0203464Y0163307D01*
X0202597Y0162439D01*
X0202597Y0159837D01*
X0206067Y0159837D01*
X0196067Y0162415D02*
X0192597Y0162415D01*
D11*
X0198112Y0202898D03*
D12*
X0198112Y0202931D03*
X0207812Y0218798D03*
X0207841Y0218931D03*
X0207841Y0218998D03*
X0207912Y0219298D03*
X0207912Y0219331D03*
X0207941Y0219431D03*
X0207941Y0219498D03*
X0207941Y0219531D03*
X0208012Y0219798D03*
X0208012Y0219831D03*
X0208012Y0219898D03*
X0208041Y0219998D03*
X0208041Y0220031D03*
X0208041Y0220098D03*
X0208112Y0220431D03*
X0208212Y0221098D03*
X0202341Y0234331D03*
X0208141Y0237698D03*
X0208112Y0237898D03*
X0208112Y0237931D03*
X0208041Y0238298D03*
X0208041Y0238331D03*
X0208012Y0238431D03*
X0208012Y0238498D03*
X0208012Y0238531D03*
X0207941Y0238798D03*
X0207941Y0238831D03*
X0207941Y0238898D03*
X0207941Y0238931D03*
X0207912Y0238998D03*
X0207912Y0239031D03*
X0207912Y0239098D03*
X0207841Y0239398D03*
X0207841Y0239431D03*
X0207812Y0239531D03*
X0188441Y0239698D03*
X0188412Y0239531D03*
X0188412Y0239498D03*
X0188341Y0239231D03*
X0188341Y0239198D03*
X0188341Y0239131D03*
X0188312Y0239031D03*
X0188312Y0238998D03*
X0188312Y0238931D03*
X0188241Y0238698D03*
X0188241Y0238631D03*
X0188241Y0238598D03*
X0188212Y0238498D03*
X0188212Y0238431D03*
X0188212Y0238398D03*
X0188141Y0238098D03*
X0188141Y0238031D03*
X0188112Y0237831D03*
X0188041Y0237431D03*
X0188041Y0220931D03*
X0188112Y0220531D03*
X0188112Y0220498D03*
X0188141Y0220331D03*
X0188141Y0220298D03*
X0188212Y0219931D03*
X0188212Y0219898D03*
X0188212Y0219831D03*
X0188241Y0219731D03*
X0188241Y0219698D03*
X0188241Y0219631D03*
X0188312Y0219398D03*
X0188312Y0219331D03*
X0188312Y0219298D03*
X0188341Y0219198D03*
X0188341Y0219131D03*
X0188412Y0218831D03*
X0188412Y0218798D03*
D13*
X0190512Y0211765D03*
X0190612Y0211565D03*
X0198112Y0202965D03*
X0205712Y0211765D03*
X0198112Y0222265D03*
X0193912Y0234165D03*
X0198112Y0236065D03*
X0205712Y0246565D03*
X0190641Y0246865D03*
X0190541Y0246665D03*
X0190512Y0246565D03*
D14*
X0191741Y0249031D03*
X0191812Y0249131D03*
X0191841Y0249198D03*
X0204412Y0249131D03*
X0204441Y0249098D03*
X0198112Y0235631D03*
X0198112Y0235598D03*
X0210341Y0233731D03*
X0210441Y0233631D03*
X0210512Y0233598D03*
X0210612Y0233498D03*
X0210712Y0233431D03*
X0210741Y0233398D03*
X0210941Y0233231D03*
X0211112Y0233098D03*
X0215241Y0229231D03*
X0215241Y0229131D03*
X0215241Y0229098D03*
X0218341Y0225098D03*
X0218441Y0224931D03*
X0218612Y0224631D03*
X0218641Y0224598D03*
X0218741Y0224431D03*
X0218741Y0224398D03*
X0218812Y0224298D03*
X0218841Y0224231D03*
X0218912Y0224098D03*
X0218941Y0224031D03*
X0219012Y0223898D03*
X0210612Y0224831D03*
X0210441Y0224698D03*
X0210312Y0224598D03*
X0218512Y0233531D03*
X0218612Y0233698D03*
X0218741Y0233931D03*
X0218812Y0234031D03*
X0218841Y0234098D03*
X0218841Y0234131D03*
X0218912Y0234231D03*
X0218941Y0234298D03*
X0219012Y0234431D03*
X0219041Y0234498D03*
X0219112Y0234631D03*
X0198112Y0222731D03*
X0198112Y0222698D03*
X0191741Y0209331D03*
X0191741Y0209298D03*
X0191812Y0209198D03*
X0198112Y0202998D03*
X0204412Y0209198D03*
X0204441Y0209231D03*
X0185912Y0224598D03*
X0185741Y0224731D03*
X0185641Y0224798D03*
X0185612Y0224831D03*
X0185541Y0224898D03*
X0185412Y0224998D03*
X0185241Y0225131D03*
X0185041Y0225298D03*
X0185012Y0225331D03*
X0184812Y0225498D03*
X0177941Y0225198D03*
X0177841Y0225031D03*
X0177712Y0224831D03*
X0177712Y0224798D03*
X0177641Y0224698D03*
X0177612Y0224631D03*
X0177541Y0224531D03*
X0177541Y0224498D03*
X0177441Y0224331D03*
X0177412Y0224298D03*
X0177312Y0224098D03*
X0178012Y0233031D03*
X0177912Y0233198D03*
X0177841Y0233298D03*
X0177712Y0233531D03*
X0177641Y0233631D03*
X0177612Y0233698D03*
X0177541Y0233798D03*
X0177541Y0233831D03*
X0177512Y0233898D03*
X0177441Y0233998D03*
X0177341Y0234198D03*
X0185112Y0233098D03*
X0185512Y0233431D03*
X0185612Y0233498D03*
X0185641Y0233531D03*
X0185712Y0233598D03*
X0185841Y0233698D03*
D15*
X0187127Y0234598D03*
X0191427Y0237598D03*
X0198127Y0234831D03*
X0204627Y0237698D03*
X0203627Y0250331D03*
X0192527Y0250231D03*
X0176027Y0237931D03*
X0176027Y0237898D03*
X0176027Y0220431D03*
X0191327Y0220798D03*
X0191427Y0220731D03*
X0198127Y0223498D03*
X0204627Y0220631D03*
X0204727Y0220698D03*
X0203627Y0208031D03*
X0198127Y0203031D03*
D16*
X0198127Y0203065D03*
X0193127Y0207365D03*
X0209227Y0223965D03*
X0194527Y0239365D03*
X0194327Y0239265D03*
D17*
X0196641Y0240431D03*
X0199641Y0240398D03*
X0198112Y0234298D03*
X0202112Y0233798D03*
X0194112Y0233798D03*
X0198112Y0224031D03*
X0196241Y0218098D03*
X0196441Y0217998D03*
X0199641Y0217931D03*
X0199841Y0218031D03*
X0202712Y0206931D03*
X0198112Y0203098D03*
X0193541Y0206898D03*
X0193512Y0206931D03*
X0188641Y0222331D03*
X0176112Y0218031D03*
X0176141Y0217931D03*
X0176141Y0217898D03*
X0176112Y0240298D03*
X0176141Y0240398D03*
X0176141Y0240431D03*
X0193541Y0251431D03*
X0220112Y0218031D03*
D18*
X0219841Y0217298D03*
X0198112Y0203131D03*
X0188741Y0222198D03*
X0186741Y0224331D03*
X0186741Y0234031D03*
X0176341Y0240998D03*
X0193812Y0251698D03*
X0193841Y0251731D03*
X0202412Y0251698D03*
X0176341Y0217331D03*
D19*
X0181012Y0228465D03*
X0198112Y0217265D03*
X0198112Y0203165D03*
X0198112Y0241065D03*
X0219641Y0241465D03*
D20*
X0219341Y0241898D03*
X0215212Y0229998D03*
X0207241Y0236431D03*
X0198112Y0224231D03*
X0196341Y0216498D03*
X0189012Y0221898D03*
X0181012Y0229998D03*
X0194341Y0252131D03*
X0207241Y0221898D03*
X0219341Y0216431D03*
X0201912Y0206231D03*
X0198112Y0203198D03*
D21*
X0198112Y0203231D03*
X0195541Y0216198D03*
X0181012Y0228231D03*
X0181012Y0230098D03*
X0200641Y0242131D03*
X0215212Y0230098D03*
X0215212Y0228231D03*
X0219112Y0242198D03*
D22*
X0218927Y0215965D03*
X0201327Y0215965D03*
X0198127Y0203265D03*
X0194927Y0242365D03*
D23*
X0194447Y0242531D03*
X0198106Y0240898D03*
X0198106Y0224331D03*
X0201806Y0215798D03*
X0198106Y0203298D03*
X0218677Y0215731D03*
D24*
X0218541Y0215631D03*
X0198112Y0217031D03*
X0198112Y0203331D03*
X0177641Y0242698D03*
D25*
X0198127Y0203365D03*
D26*
X0198112Y0203398D03*
X0201041Y0205798D03*
X0203041Y0215398D03*
X0198112Y0224431D03*
X0200941Y0227698D03*
X0201012Y0227731D03*
X0201312Y0230431D03*
X0195241Y0230631D03*
X0194912Y0230431D03*
X0193212Y0242931D03*
D27*
X0198106Y0241398D03*
X0203347Y0243031D03*
X0200806Y0227631D03*
X0195406Y0227631D03*
X0198106Y0217598D03*
X0198106Y0203431D03*
X0218077Y0215298D03*
X0178147Y0215298D03*
D28*
X0198112Y0203465D03*
D29*
X0198112Y0203498D03*
X0198112Y0224531D03*
X0178441Y0215131D03*
D30*
X0194506Y0228031D03*
X0201706Y0228031D03*
X0198106Y0217698D03*
X0198106Y0203531D03*
D31*
X0198112Y0203565D03*
X0201841Y0230265D03*
D32*
X0201927Y0228131D03*
X0198127Y0203598D03*
D33*
X0198112Y0203631D03*
X0202041Y0228198D03*
X0198112Y0241531D03*
D34*
X0198112Y0241565D03*
X0198112Y0203665D03*
D35*
X0198106Y0203698D03*
X0202277Y0228331D03*
X0202406Y0228598D03*
X0202406Y0228631D03*
X0202406Y0229698D03*
X0202406Y0229731D03*
X0193806Y0229731D03*
X0193806Y0229698D03*
X0193806Y0228631D03*
X0193806Y0228598D03*
X0198106Y0240498D03*
D36*
X0205197Y0243498D03*
X0202356Y0229931D03*
X0202356Y0228431D03*
X0202356Y0228398D03*
X0193856Y0228431D03*
X0193856Y0229898D03*
X0193856Y0229931D03*
X0191456Y0214998D03*
X0198127Y0203731D03*
X0204756Y0214998D03*
X0217056Y0214831D03*
X0179156Y0214831D03*
D37*
X0198106Y0203765D03*
D38*
X0198112Y0203798D03*
X0183412Y0245331D03*
D39*
X0191577Y0215098D03*
X0198106Y0203831D03*
X0204647Y0215098D03*
D40*
X0198112Y0203865D03*
D41*
X0198106Y0203898D03*
X0190447Y0214731D03*
X0205777Y0214731D03*
X0212806Y0213031D03*
X0198106Y0241698D03*
D42*
X0190312Y0243631D03*
X0216612Y0214698D03*
X0198112Y0203931D03*
D43*
X0198106Y0203965D03*
D44*
X0198112Y0203998D03*
X0198112Y0254331D03*
D45*
X0198106Y0204031D03*
D46*
X0198127Y0204065D03*
D47*
X0198106Y0204098D03*
X0198106Y0241798D03*
X0206347Y0243698D03*
X0179906Y0243698D03*
D48*
X0198112Y0204131D03*
D49*
X0198106Y0204165D03*
X0198106Y0254165D03*
D50*
X0216112Y0243731D03*
X0198112Y0204198D03*
D51*
X0198112Y0204231D03*
X0180141Y0243731D03*
D52*
X0198127Y0204265D03*
D53*
X0198112Y0204298D03*
X0206741Y0214598D03*
X0198112Y0254031D03*
D54*
X0212706Y0213131D03*
X0198106Y0204331D03*
D55*
X0198112Y0204365D03*
D56*
X0198127Y0204398D03*
D57*
X0198112Y0204431D03*
X0198112Y0253898D03*
D58*
X0198112Y0253865D03*
X0215741Y0243765D03*
X0183541Y0213165D03*
X0198112Y0204465D03*
D59*
X0198106Y0204498D03*
D60*
X0198112Y0204531D03*
D61*
X0198112Y0204565D03*
X0189112Y0243765D03*
D62*
X0198127Y0204598D03*
D63*
X0198127Y0204631D03*
D64*
X0198106Y0204665D03*
X0198106Y0253665D03*
D65*
X0198112Y0253631D03*
X0198112Y0204698D03*
D66*
X0198112Y0204731D03*
X0198112Y0253598D03*
D67*
X0198106Y0204765D03*
D68*
X0198112Y0204798D03*
X0212612Y0245098D03*
X0183612Y0245098D03*
D69*
X0198112Y0204831D03*
D70*
X0198106Y0204865D03*
D71*
X0198112Y0204898D03*
D72*
X0198112Y0204931D03*
X0198112Y0253431D03*
D73*
X0183647Y0245065D03*
X0198106Y0204965D03*
D74*
X0198112Y0204998D03*
D75*
X0198112Y0205031D03*
X0198112Y0253331D03*
D76*
X0198106Y0205065D03*
D77*
X0198112Y0205098D03*
X0212541Y0245031D03*
D78*
X0198112Y0253231D03*
X0198112Y0205131D03*
D79*
X0198106Y0205165D03*
X0198106Y0226665D03*
X0198106Y0231665D03*
D80*
X0198112Y0231631D03*
X0198112Y0231598D03*
X0198112Y0231731D03*
X0198112Y0231798D03*
X0198112Y0231831D03*
X0198112Y0226731D03*
X0198112Y0226598D03*
X0198112Y0226531D03*
X0198112Y0205198D03*
D81*
X0198112Y0205231D03*
X0198112Y0226398D03*
X0198112Y0226431D03*
X0198112Y0226798D03*
X0198112Y0231898D03*
X0198112Y0231931D03*
X0212512Y0244998D03*
X0183712Y0244998D03*
D82*
X0198106Y0253065D03*
X0198106Y0232065D03*
X0198106Y0226865D03*
X0198106Y0205265D03*
D83*
X0198112Y0205298D03*
X0198112Y0226198D03*
X0198112Y0226231D03*
X0198112Y0226898D03*
X0198112Y0226931D03*
X0198112Y0231398D03*
X0198112Y0231431D03*
X0198112Y0232098D03*
X0198112Y0232131D03*
X0198112Y0253031D03*
D84*
X0198112Y0252998D03*
X0198112Y0232198D03*
X0198112Y0231331D03*
X0198112Y0226998D03*
X0198112Y0226131D03*
X0198112Y0205331D03*
D85*
X0198106Y0205365D03*
X0198106Y0226065D03*
X0198106Y0227065D03*
X0198106Y0231265D03*
X0198106Y0232265D03*
X0212477Y0244965D03*
X0198106Y0252965D03*
D86*
X0198112Y0252931D03*
X0198112Y0232331D03*
X0198112Y0232298D03*
X0198112Y0231231D03*
X0198112Y0231198D03*
X0198112Y0227131D03*
X0198112Y0226031D03*
X0198112Y0205398D03*
D87*
X0198127Y0205431D03*
X0198127Y0225998D03*
D88*
X0198127Y0227265D03*
X0198127Y0205465D03*
D89*
X0198106Y0205498D03*
X0212477Y0213398D03*
X0198106Y0225931D03*
X0198106Y0227298D03*
X0198106Y0227331D03*
X0198106Y0231031D03*
X0198106Y0232398D03*
D90*
X0198112Y0230931D03*
X0198112Y0227431D03*
X0198112Y0227398D03*
X0198112Y0225898D03*
X0212441Y0244931D03*
X0198112Y0252831D03*
X0198112Y0205531D03*
D91*
X0198112Y0205565D03*
X0198112Y0225865D03*
X0198112Y0227465D03*
X0198112Y0230865D03*
D92*
X0198106Y0232531D03*
X0198106Y0225831D03*
X0198106Y0225798D03*
X0198106Y0205598D03*
X0198106Y0252731D03*
D93*
X0198112Y0252698D03*
X0198112Y0205631D03*
D94*
X0198112Y0205665D03*
X0198112Y0252665D03*
D95*
X0198127Y0232631D03*
X0198127Y0205698D03*
D96*
X0198127Y0205731D03*
D97*
X0195327Y0205765D03*
D98*
X0200912Y0205765D03*
X0203512Y0215265D03*
X0192712Y0215265D03*
X0198112Y0233865D03*
X0192741Y0243065D03*
D99*
X0200977Y0230631D03*
X0195277Y0227698D03*
X0194877Y0227931D03*
X0193177Y0215398D03*
X0195177Y0205798D03*
D100*
X0195056Y0205831D03*
X0201156Y0205831D03*
X0202627Y0215531D03*
X0202697Y0242831D03*
X0193527Y0242831D03*
X0177827Y0242831D03*
X0177856Y0215498D03*
X0218397Y0242831D03*
D101*
X0218477Y0242765D03*
X0202477Y0242765D03*
X0218477Y0215565D03*
X0201247Y0205865D03*
X0194977Y0205865D03*
X0177747Y0242765D03*
D102*
X0194241Y0242598D03*
X0198112Y0241298D03*
X0198112Y0233998D03*
X0202012Y0215731D03*
X0194912Y0205898D03*
X0218641Y0215698D03*
X0218641Y0242631D03*
X0198112Y0255031D03*
D103*
X0202056Y0242631D03*
X0194156Y0242631D03*
X0194127Y0215698D03*
X0202097Y0215698D03*
X0201327Y0205898D03*
D104*
X0194827Y0205931D03*
X0194427Y0215798D03*
X0194527Y0215831D03*
X0201427Y0252398D03*
D105*
X0194791Y0252398D03*
X0194562Y0242498D03*
X0201762Y0242531D03*
X0218762Y0242531D03*
X0218762Y0215798D03*
X0201691Y0215831D03*
X0201391Y0205931D03*
X0177462Y0215798D03*
X0177462Y0242531D03*
D106*
X0177397Y0242465D03*
X0177397Y0215865D03*
X0194756Y0205965D03*
X0201456Y0205965D03*
X0218827Y0215865D03*
D107*
X0218891Y0215931D03*
X0215191Y0230198D03*
X0201191Y0242331D03*
X0194691Y0205998D03*
D108*
X0201527Y0205998D03*
X0201227Y0215998D03*
X0181027Y0230198D03*
X0177327Y0242398D03*
X0195027Y0242331D03*
X0177327Y0215931D03*
D109*
X0177227Y0216031D03*
X0194627Y0206031D03*
X0195127Y0242298D03*
X0177227Y0242298D03*
D110*
X0201091Y0242298D03*
X0195091Y0216031D03*
X0201591Y0206031D03*
X0218962Y0215998D03*
X0218991Y0216031D03*
X0177262Y0215998D03*
D111*
X0194597Y0206065D03*
X0195456Y0216165D03*
X0200756Y0216165D03*
X0195497Y0242165D03*
X0194556Y0252265D03*
D112*
X0195212Y0242265D03*
X0201012Y0242265D03*
X0198112Y0234065D03*
X0219041Y0242265D03*
X0219041Y0216065D03*
X0201641Y0206065D03*
D113*
X0194527Y0206098D03*
X0195627Y0216231D03*
X0198127Y0217131D03*
X0201727Y0252231D03*
D114*
X0194491Y0252231D03*
X0195662Y0242098D03*
X0200562Y0242098D03*
X0219162Y0242131D03*
X0219162Y0216198D03*
X0200591Y0216231D03*
X0201691Y0206098D03*
X0177062Y0216198D03*
X0177062Y0242131D03*
D115*
X0177047Y0242098D03*
X0195847Y0242031D03*
X0198106Y0241198D03*
X0200377Y0242031D03*
X0198106Y0234098D03*
X0195806Y0216298D03*
X0200406Y0216298D03*
X0201747Y0206131D03*
X0194477Y0206131D03*
X0177047Y0216231D03*
X0201777Y0252198D03*
X0219177Y0242098D03*
X0219177Y0216231D03*
D116*
X0200227Y0216365D03*
X0194427Y0206165D03*
X0219227Y0242065D03*
D117*
X0195991Y0216365D03*
X0201791Y0206165D03*
D118*
X0194377Y0206198D03*
X0196077Y0216398D03*
X0219277Y0241998D03*
D119*
X0219327Y0241931D03*
X0215227Y0228331D03*
X0219327Y0216398D03*
X0200056Y0216431D03*
X0196156Y0216431D03*
X0201856Y0206198D03*
X0180997Y0228331D03*
X0176897Y0216431D03*
X0176897Y0241931D03*
X0196197Y0241898D03*
X0200027Y0241898D03*
D120*
X0201927Y0252098D03*
X0219427Y0241798D03*
X0219427Y0216531D03*
X0194327Y0206231D03*
X0176827Y0216498D03*
X0176827Y0241831D03*
D121*
X0176777Y0241765D03*
X0194247Y0252065D03*
X0198106Y0255165D03*
X0201977Y0252065D03*
X0198106Y0241165D03*
X0188947Y0221965D03*
X0176777Y0216565D03*
X0194277Y0206265D03*
X0201947Y0206265D03*
X0219447Y0216565D03*
X0219447Y0241765D03*
D122*
X0215227Y0229931D03*
X0215227Y0228398D03*
X0194227Y0206298D03*
X0176727Y0241698D03*
D123*
X0180991Y0229931D03*
X0176691Y0216698D03*
X0176762Y0216598D03*
X0194191Y0206331D03*
X0201991Y0206298D03*
X0219462Y0216598D03*
X0219491Y0216631D03*
X0219491Y0241698D03*
D124*
X0219541Y0241631D03*
X0207312Y0236331D03*
X0207312Y0221998D03*
X0219541Y0216731D03*
X0219541Y0216698D03*
X0202041Y0206331D03*
X0188912Y0221998D03*
X0181012Y0228431D03*
X0188912Y0236331D03*
X0194212Y0252031D03*
X0202012Y0252031D03*
D125*
X0202097Y0251965D03*
X0194127Y0251965D03*
X0219597Y0241565D03*
X0219556Y0216765D03*
X0202097Y0206365D03*
X0194156Y0206365D03*
X0176656Y0216765D03*
D126*
X0176612Y0216831D03*
X0186612Y0224498D03*
X0186612Y0233831D03*
X0176612Y0241498D03*
X0198112Y0241131D03*
X0207341Y0236298D03*
X0209612Y0233831D03*
X0209612Y0224498D03*
X0207341Y0222031D03*
X0219612Y0216831D03*
X0202112Y0206398D03*
X0194112Y0206398D03*
X0219612Y0241498D03*
X0202141Y0251931D03*
D127*
X0219662Y0241431D03*
X0219662Y0216931D03*
X0219662Y0216898D03*
X0202162Y0206431D03*
X0194062Y0206431D03*
X0176562Y0216931D03*
X0176562Y0241398D03*
X0176562Y0241431D03*
D128*
X0176477Y0241265D03*
X0188847Y0236265D03*
X0198106Y0234165D03*
X0207377Y0236265D03*
X0209577Y0224465D03*
X0219677Y0216965D03*
X0202206Y0206465D03*
X0194006Y0206465D03*
X0186647Y0224465D03*
X0176547Y0216965D03*
X0194006Y0251865D03*
D129*
X0193962Y0251831D03*
X0202262Y0251831D03*
X0207391Y0236231D03*
X0209562Y0233898D03*
X0209562Y0224431D03*
X0207391Y0222098D03*
X0219762Y0217098D03*
X0219762Y0241231D03*
X0193991Y0206498D03*
X0186691Y0224398D03*
X0180991Y0228531D03*
X0180991Y0229831D03*
X0186691Y0233931D03*
X0176462Y0241231D03*
X0176491Y0241298D03*
X0176462Y0217098D03*
D130*
X0176506Y0217031D03*
X0176506Y0216998D03*
X0181006Y0228498D03*
X0186677Y0224431D03*
X0188847Y0222098D03*
X0186647Y0233898D03*
X0176506Y0241331D03*
X0194047Y0251898D03*
X0198106Y0255198D03*
X0202177Y0251898D03*
X0219677Y0241398D03*
X0219706Y0241331D03*
X0219706Y0216998D03*
X0202247Y0206498D03*
D131*
X0193941Y0206531D03*
X0198112Y0217231D03*
X0207412Y0222131D03*
X0209541Y0224398D03*
X0209541Y0233931D03*
X0207441Y0236198D03*
X0198112Y0241098D03*
X0202312Y0251798D03*
X0219812Y0241131D03*
X0219812Y0217198D03*
X0188812Y0222131D03*
X0176441Y0217131D03*
X0176412Y0217198D03*
X0176412Y0241131D03*
X0176441Y0241198D03*
D132*
X0202277Y0206531D03*
X0219777Y0217131D03*
X0219777Y0241198D03*
D133*
X0193912Y0206565D03*
X0186712Y0224365D03*
X0186712Y0233965D03*
X0176441Y0217165D03*
D134*
X0176397Y0217265D03*
X0180997Y0228565D03*
X0188797Y0222165D03*
X0202327Y0206565D03*
X0207456Y0222165D03*
X0209527Y0224365D03*
X0209527Y0233965D03*
X0207456Y0236165D03*
X0219797Y0241165D03*
X0202327Y0251765D03*
X0193897Y0251765D03*
X0176427Y0241165D03*
X0219797Y0217165D03*
D135*
X0219827Y0217231D03*
X0215227Y0228531D03*
X0215227Y0229798D03*
X0209497Y0233998D03*
X0219856Y0241031D03*
X0219827Y0241098D03*
X0193927Y0251798D03*
X0188797Y0236198D03*
X0186727Y0233998D03*
X0180997Y0229798D03*
X0176397Y0217231D03*
X0193856Y0206598D03*
X0202356Y0206598D03*
X0176356Y0241031D03*
X0176397Y0241098D03*
D136*
X0176327Y0240931D03*
X0188727Y0236131D03*
X0188727Y0222231D03*
X0176327Y0217431D03*
X0176327Y0217398D03*
X0193827Y0206631D03*
D137*
X0193762Y0206698D03*
X0202391Y0206631D03*
X0209462Y0224298D03*
X0209462Y0234031D03*
X0207491Y0236131D03*
X0219891Y0240931D03*
X0219891Y0217398D03*
X0186762Y0224298D03*
X0180991Y0228598D03*
D138*
X0180991Y0229765D03*
X0176291Y0217465D03*
X0193791Y0206665D03*
X0176291Y0240865D03*
X0219891Y0240965D03*
D139*
X0219927Y0240865D03*
X0215227Y0229765D03*
X0219927Y0217465D03*
X0202427Y0206665D03*
D140*
X0202477Y0206698D03*
X0202506Y0206731D03*
X0207506Y0222231D03*
X0215247Y0228598D03*
X0215247Y0229731D03*
X0207506Y0236098D03*
X0198106Y0234198D03*
X0188706Y0236098D03*
X0180977Y0229731D03*
X0176247Y0240731D03*
X0176277Y0240798D03*
X0176277Y0240831D03*
X0176306Y0240898D03*
X0193747Y0251631D03*
X0198106Y0255231D03*
X0202477Y0251631D03*
X0219906Y0240898D03*
X0219947Y0240831D03*
X0219947Y0240798D03*
X0219947Y0217531D03*
X0219947Y0217498D03*
X0219906Y0217431D03*
X0176277Y0217498D03*
X0176277Y0217531D03*
D141*
X0176227Y0217631D03*
X0193727Y0206731D03*
X0198127Y0224131D03*
X0209427Y0224231D03*
X0209427Y0234098D03*
X0202527Y0251598D03*
X0176227Y0240698D03*
D142*
X0176262Y0240765D03*
X0188691Y0222265D03*
X0176262Y0217565D03*
X0193691Y0206765D03*
X0219962Y0217565D03*
X0219991Y0217665D03*
X0219962Y0240765D03*
X0202562Y0251565D03*
D143*
X0207541Y0236065D03*
X0198112Y0234265D03*
X0220012Y0240665D03*
X0202541Y0206765D03*
D144*
X0202612Y0206831D03*
X0193641Y0206798D03*
X0198112Y0224098D03*
X0198112Y0234231D03*
X0209412Y0234131D03*
X0215241Y0229698D03*
X0215241Y0228631D03*
X0220041Y0217798D03*
X0220012Y0217731D03*
X0220012Y0217698D03*
X0220012Y0240631D03*
X0193641Y0251531D03*
X0186812Y0234131D03*
X0176212Y0240598D03*
X0176212Y0240631D03*
X0176212Y0217731D03*
X0176212Y0217698D03*
D145*
X0176177Y0217798D03*
X0180977Y0229698D03*
X0188677Y0222298D03*
X0202577Y0206798D03*
X0176177Y0240531D03*
D146*
X0176156Y0240498D03*
X0188656Y0236031D03*
X0186827Y0224198D03*
X0196597Y0217931D03*
X0193627Y0206831D03*
X0207556Y0222298D03*
X0209397Y0224198D03*
X0220056Y0217831D03*
X0207556Y0236031D03*
X0220056Y0240498D03*
X0220056Y0240531D03*
X0220027Y0240598D03*
X0202627Y0251498D03*
X0202597Y0251531D03*
X0193597Y0251498D03*
X0176156Y0217831D03*
D147*
X0176156Y0217865D03*
X0176197Y0217765D03*
X0180997Y0228665D03*
X0176156Y0240465D03*
X0176197Y0240565D03*
X0196527Y0217965D03*
X0193597Y0206865D03*
X0215227Y0228665D03*
X0220056Y0217865D03*
X0220027Y0217765D03*
X0220056Y0240465D03*
X0220027Y0240565D03*
X0202656Y0251465D03*
D148*
X0199712Y0240365D03*
X0196512Y0240365D03*
X0186841Y0234165D03*
X0186841Y0224165D03*
X0196312Y0218065D03*
X0199712Y0217965D03*
X0199912Y0218065D03*
X0198112Y0224065D03*
X0202641Y0206865D03*
X0215241Y0229665D03*
X0176141Y0217965D03*
D149*
X0196377Y0218031D03*
X0199777Y0217998D03*
X0207577Y0222331D03*
X0220077Y0217931D03*
X0220077Y0217898D03*
X0202677Y0206898D03*
X0199777Y0240331D03*
X0199577Y0240431D03*
X0196577Y0240398D03*
X0212977Y0245498D03*
X0220077Y0240431D03*
X0220077Y0240398D03*
D150*
X0220091Y0240365D03*
X0202762Y0251365D03*
X0193462Y0251365D03*
X0196291Y0240265D03*
X0196091Y0240165D03*
X0176091Y0240265D03*
X0176091Y0218065D03*
X0193491Y0206965D03*
X0220091Y0217965D03*
D151*
X0220147Y0218165D03*
X0207606Y0222365D03*
X0200106Y0218165D03*
X0196106Y0218165D03*
X0195906Y0218265D03*
X0202747Y0206965D03*
X0198106Y0234365D03*
X0195877Y0240065D03*
X0200347Y0240065D03*
X0207606Y0235965D03*
X0220147Y0240165D03*
X0188606Y0235965D03*
X0176077Y0240165D03*
X0176077Y0218165D03*
D152*
X0176077Y0218198D03*
X0176077Y0218231D03*
X0186877Y0224098D03*
X0186877Y0234231D03*
X0195806Y0240031D03*
X0195947Y0240098D03*
X0196006Y0240131D03*
X0200206Y0240131D03*
X0200277Y0240098D03*
X0200406Y0240031D03*
X0209347Y0234231D03*
X0215247Y0229631D03*
X0209347Y0224098D03*
X0200247Y0218231D03*
X0200177Y0218198D03*
X0200047Y0218131D03*
X0196047Y0218198D03*
X0195977Y0218231D03*
X0195847Y0218298D03*
X0195777Y0218331D03*
X0198106Y0223998D03*
X0193406Y0207031D03*
X0193447Y0206998D03*
X0202777Y0206998D03*
X0202806Y0207031D03*
X0220147Y0218131D03*
X0220147Y0218198D03*
X0220147Y0240131D03*
X0220147Y0240198D03*
X0202777Y0251331D03*
X0193447Y0251331D03*
X0193406Y0251298D03*
X0176077Y0240131D03*
D153*
X0176062Y0240065D03*
X0186891Y0234265D03*
X0195691Y0239965D03*
X0193362Y0251265D03*
X0202862Y0251265D03*
X0220162Y0240065D03*
X0220162Y0218265D03*
X0195691Y0218365D03*
X0193391Y0207065D03*
X0176062Y0218265D03*
D154*
X0186927Y0224065D03*
X0198127Y0223965D03*
X0200527Y0218365D03*
X0200327Y0218265D03*
X0202827Y0207065D03*
X0209327Y0234265D03*
X0200527Y0239965D03*
D155*
X0200591Y0239931D03*
X0200462Y0239998D03*
X0195762Y0239998D03*
X0194091Y0224531D03*
X0188591Y0222398D03*
X0180991Y0228731D03*
X0180991Y0229598D03*
X0176062Y0240031D03*
X0176062Y0240098D03*
X0176062Y0218331D03*
X0176062Y0218298D03*
X0193362Y0207098D03*
X0200391Y0218298D03*
X0200462Y0218331D03*
X0200591Y0218398D03*
X0220162Y0218298D03*
X0220162Y0218231D03*
X0220191Y0218398D03*
X0220191Y0239931D03*
X0220162Y0240031D03*
X0220162Y0240098D03*
D156*
X0220177Y0239998D03*
X0207677Y0235898D03*
X0200877Y0239798D03*
X0200677Y0239898D03*
X0202877Y0251231D03*
X0188577Y0235931D03*
X0188577Y0222431D03*
X0195177Y0218631D03*
X0195377Y0218531D03*
X0195577Y0218431D03*
X0200777Y0218498D03*
X0207677Y0222431D03*
X0220177Y0218331D03*
X0202877Y0207098D03*
D157*
X0202912Y0207131D03*
X0193312Y0207131D03*
X0195441Y0218498D03*
X0195241Y0218598D03*
X0198112Y0223931D03*
X0202141Y0224531D03*
X0200841Y0218531D03*
X0200641Y0218431D03*
X0186941Y0224031D03*
X0186941Y0234298D03*
X0195341Y0239798D03*
X0195412Y0239831D03*
X0195541Y0239898D03*
X0200812Y0239831D03*
X0198112Y0234398D03*
X0207641Y0235931D03*
X0215241Y0229598D03*
X0220212Y0239798D03*
X0220212Y0239831D03*
X0220212Y0239898D03*
X0202912Y0251198D03*
X0193341Y0251231D03*
X0193312Y0251198D03*
X0176041Y0239998D03*
X0176012Y0239831D03*
X0176012Y0239798D03*
X0176012Y0218531D03*
X0176012Y0218498D03*
X0220212Y0218498D03*
X0220212Y0218531D03*
X0220212Y0218431D03*
D158*
X0220227Y0218565D03*
X0220227Y0218665D03*
X0215227Y0228765D03*
X0215227Y0229565D03*
X0207697Y0222465D03*
X0200927Y0218565D03*
X0195127Y0218665D03*
X0194927Y0218765D03*
X0193297Y0207165D03*
X0202927Y0207165D03*
X0180997Y0228765D03*
X0180997Y0229565D03*
X0175997Y0239665D03*
X0175997Y0239765D03*
X0195097Y0239665D03*
X0195297Y0239765D03*
X0200927Y0239765D03*
X0201127Y0239665D03*
X0220227Y0239665D03*
X0220227Y0239765D03*
X0175997Y0218665D03*
D159*
X0175997Y0218698D03*
X0175997Y0218631D03*
X0175997Y0218598D03*
X0186956Y0223998D03*
X0194797Y0218831D03*
X0194856Y0218798D03*
X0194997Y0218731D03*
X0195056Y0218698D03*
X0200997Y0218598D03*
X0201056Y0218631D03*
X0209256Y0223998D03*
X0209297Y0224031D03*
X0209297Y0234298D03*
X0202156Y0233831D03*
X0198127Y0234431D03*
X0194056Y0233831D03*
X0194956Y0239598D03*
X0195027Y0239631D03*
X0195156Y0239698D03*
X0195227Y0239731D03*
X0188556Y0235898D03*
X0186956Y0234331D03*
X0175997Y0239631D03*
X0175997Y0239698D03*
X0175997Y0239731D03*
X0193256Y0251131D03*
X0200997Y0239731D03*
X0201056Y0239698D03*
X0201197Y0239631D03*
X0201256Y0239598D03*
X0220227Y0239698D03*
X0220227Y0239731D03*
X0220227Y0218631D03*
X0220227Y0218598D03*
X0202997Y0207231D03*
X0202956Y0207198D03*
X0193256Y0207198D03*
D160*
X0193241Y0207231D03*
X0203041Y0207298D03*
X0201241Y0218731D03*
X0201441Y0218831D03*
X0198112Y0223898D03*
X0194612Y0218931D03*
X0188512Y0222498D03*
X0194641Y0239431D03*
X0194841Y0239531D03*
X0201441Y0239498D03*
X0203012Y0251098D03*
X0193212Y0251098D03*
X0220241Y0239631D03*
X0220241Y0239598D03*
X0220241Y0239531D03*
X0220241Y0218831D03*
X0220241Y0218798D03*
X0220241Y0218731D03*
X0220241Y0218698D03*
D161*
X0220241Y0218765D03*
X0209241Y0234365D03*
X0207712Y0235865D03*
X0201512Y0239465D03*
X0201312Y0239565D03*
X0198112Y0234465D03*
X0194912Y0239565D03*
X0194712Y0239465D03*
X0188512Y0235865D03*
X0188541Y0222465D03*
X0194541Y0218965D03*
X0194741Y0218865D03*
X0198112Y0223865D03*
X0201112Y0218665D03*
X0201312Y0218765D03*
X0203012Y0207265D03*
X0193212Y0207265D03*
X0220241Y0239565D03*
X0203041Y0251065D03*
D162*
X0202977Y0251131D03*
X0201377Y0239531D03*
X0201577Y0239431D03*
X0194777Y0239498D03*
X0209277Y0234331D03*
X0201377Y0218798D03*
X0201177Y0218698D03*
X0194677Y0218898D03*
X0193177Y0207298D03*
X0175977Y0218731D03*
X0175977Y0218798D03*
X0175977Y0218831D03*
X0180977Y0228798D03*
X0175977Y0239498D03*
X0175977Y0239531D03*
X0175977Y0239598D03*
D163*
X0175962Y0239431D03*
X0175962Y0239398D03*
X0175962Y0239331D03*
X0175962Y0239298D03*
X0180991Y0229531D03*
X0186991Y0234398D03*
X0188491Y0235831D03*
X0194391Y0239298D03*
X0194462Y0239331D03*
X0194591Y0239398D03*
X0201762Y0239331D03*
X0203091Y0250998D03*
X0203062Y0251031D03*
X0193162Y0251031D03*
X0220262Y0239498D03*
X0220262Y0239431D03*
X0220262Y0239398D03*
X0220262Y0239331D03*
X0220262Y0218998D03*
X0220262Y0218931D03*
X0220262Y0218898D03*
X0203091Y0207331D03*
X0193162Y0207331D03*
X0194491Y0218998D03*
X0194291Y0219098D03*
X0201562Y0218898D03*
X0175962Y0218898D03*
X0175962Y0218931D03*
X0175962Y0218998D03*
X0175962Y0219031D03*
D164*
X0175947Y0219065D03*
X0193977Y0219265D03*
X0194177Y0219165D03*
X0201877Y0219065D03*
X0203106Y0207365D03*
X0220277Y0219065D03*
X0220277Y0239265D03*
X0203106Y0250965D03*
X0193106Y0250965D03*
X0194147Y0239165D03*
X0202077Y0239165D03*
X0175947Y0239265D03*
D165*
X0175947Y0239231D03*
X0175947Y0239198D03*
X0180977Y0228831D03*
X0187006Y0223931D03*
X0188477Y0222531D03*
X0194047Y0224498D03*
X0198106Y0223831D03*
X0198106Y0223798D03*
X0202177Y0224498D03*
X0202006Y0219131D03*
X0201947Y0219098D03*
X0201806Y0219031D03*
X0201747Y0218998D03*
X0207747Y0222531D03*
X0209206Y0223931D03*
X0215247Y0228831D03*
X0220277Y0219131D03*
X0220277Y0219098D03*
X0220277Y0219031D03*
X0212977Y0212831D03*
X0203177Y0207431D03*
X0203147Y0207398D03*
X0193077Y0207398D03*
X0194106Y0219198D03*
X0194047Y0219231D03*
X0183247Y0212831D03*
X0175947Y0219098D03*
X0175947Y0219131D03*
X0194077Y0239131D03*
X0194206Y0239198D03*
X0194277Y0239231D03*
X0198106Y0234531D03*
X0201947Y0239231D03*
X0202006Y0239198D03*
X0202147Y0239131D03*
X0203177Y0250898D03*
X0203147Y0250931D03*
X0193077Y0250931D03*
X0193047Y0250898D03*
X0220277Y0239298D03*
X0220277Y0239231D03*
X0220277Y0239198D03*
D166*
X0220262Y0239131D03*
X0220262Y0239098D03*
X0209191Y0234431D03*
X0207762Y0235798D03*
X0202562Y0238898D03*
X0202391Y0238998D03*
X0202191Y0239098D03*
X0193891Y0239031D03*
X0193662Y0238898D03*
X0188462Y0235798D03*
X0180991Y0229498D03*
X0175962Y0239031D03*
X0175962Y0239098D03*
X0175962Y0239131D03*
X0192962Y0250798D03*
X0192991Y0250831D03*
X0203262Y0250798D03*
X0209191Y0223898D03*
X0202491Y0219398D03*
X0202362Y0219331D03*
X0202291Y0219298D03*
X0202191Y0219231D03*
X0193862Y0219331D03*
X0193562Y0219498D03*
X0192991Y0207498D03*
X0193062Y0207431D03*
X0175962Y0219198D03*
X0175962Y0219231D03*
X0175962Y0219298D03*
X0220262Y0219231D03*
X0220262Y0219198D03*
D167*
X0202427Y0219365D03*
X0193027Y0207465D03*
X0198127Y0234565D03*
X0202627Y0238865D03*
X0193027Y0250865D03*
D168*
X0193962Y0239065D03*
X0193591Y0238865D03*
X0202262Y0239065D03*
X0203191Y0250865D03*
X0220262Y0239165D03*
X0220262Y0219265D03*
X0220262Y0219165D03*
X0203191Y0207465D03*
X0202062Y0219165D03*
X0202262Y0219265D03*
X0193791Y0219365D03*
X0188462Y0222565D03*
X0175962Y0219265D03*
X0175962Y0219165D03*
X0175962Y0239065D03*
X0175962Y0239165D03*
D169*
X0187027Y0234431D03*
X0193827Y0238998D03*
X0194027Y0239098D03*
X0202327Y0239031D03*
X0203227Y0250831D03*
X0215227Y0229498D03*
X0202127Y0219198D03*
X0193927Y0219298D03*
X0193727Y0219398D03*
X0187027Y0223898D03*
X0203227Y0207498D03*
D170*
X0192977Y0207531D03*
X0193677Y0219431D03*
X0193377Y0219598D03*
X0202677Y0219498D03*
X0220277Y0219498D03*
X0220277Y0219531D03*
X0220277Y0219431D03*
X0220277Y0219398D03*
X0220277Y0219331D03*
X0220277Y0219298D03*
X0220277Y0238798D03*
X0220277Y0238831D03*
X0220277Y0238898D03*
X0220277Y0238931D03*
X0220277Y0238998D03*
X0220277Y0239031D03*
X0202677Y0238831D03*
X0193477Y0238798D03*
D171*
X0193541Y0238831D03*
X0193712Y0238931D03*
X0198112Y0234598D03*
X0202512Y0238931D03*
X0202741Y0238798D03*
X0192912Y0250731D03*
X0175941Y0238998D03*
X0175941Y0238931D03*
X0175941Y0238898D03*
X0175941Y0238831D03*
X0175941Y0238798D03*
X0175941Y0219531D03*
X0175941Y0219498D03*
X0175941Y0219431D03*
X0175941Y0219398D03*
X0175941Y0219331D03*
X0193312Y0219631D03*
X0193512Y0219531D03*
X0198112Y0223731D03*
X0202541Y0219431D03*
X0202912Y0219631D03*
X0203312Y0207598D03*
X0203241Y0207531D03*
D172*
X0192941Y0207565D03*
X0193612Y0219465D03*
X0193441Y0219565D03*
X0198112Y0223765D03*
X0202612Y0219465D03*
X0202212Y0233865D03*
X0202812Y0238765D03*
X0202441Y0238965D03*
X0193412Y0238765D03*
X0194012Y0233865D03*
X0188441Y0235765D03*
X0187041Y0234465D03*
X0187041Y0223865D03*
X0175941Y0219565D03*
X0175941Y0219465D03*
X0175941Y0219365D03*
X0175941Y0238865D03*
X0175941Y0238965D03*
X0192941Y0250765D03*
X0215241Y0228865D03*
D173*
X0209177Y0223865D03*
X0207777Y0222565D03*
X0209177Y0234465D03*
X0207777Y0235765D03*
X0220277Y0238865D03*
X0220277Y0238965D03*
X0220277Y0239065D03*
X0220277Y0219465D03*
X0220277Y0219365D03*
X0203277Y0207565D03*
X0180977Y0228865D03*
X0193777Y0238965D03*
D174*
X0193356Y0238731D03*
X0193297Y0238698D03*
X0193197Y0238631D03*
X0193127Y0238598D03*
X0192997Y0238531D03*
X0192827Y0238431D03*
X0188427Y0235731D03*
X0187056Y0234498D03*
X0188427Y0222598D03*
X0192797Y0219931D03*
X0192956Y0219831D03*
X0193027Y0219798D03*
X0193127Y0219731D03*
X0193197Y0219698D03*
X0202727Y0219531D03*
X0202856Y0219598D03*
X0203027Y0219698D03*
X0203097Y0219731D03*
X0203256Y0219831D03*
X0207797Y0222598D03*
X0209156Y0234498D03*
X0203397Y0238431D03*
X0203227Y0238531D03*
X0203097Y0238598D03*
X0203027Y0238631D03*
X0202927Y0238698D03*
X0202856Y0238731D03*
X0198127Y0234631D03*
X0203397Y0250631D03*
X0203327Y0250731D03*
X0198127Y0255298D03*
X0192897Y0250698D03*
X0192827Y0250631D03*
X0175956Y0238731D03*
X0175956Y0238698D03*
X0175956Y0238631D03*
X0175956Y0238598D03*
X0175956Y0238531D03*
X0175956Y0219831D03*
X0175956Y0219798D03*
X0175956Y0219731D03*
X0175956Y0219698D03*
X0175956Y0219631D03*
X0175956Y0219598D03*
X0192897Y0207631D03*
X0192927Y0207598D03*
X0203327Y0207631D03*
X0220256Y0219598D03*
X0220256Y0219631D03*
X0220256Y0219698D03*
X0220256Y0219731D03*
X0220256Y0238598D03*
X0220256Y0238631D03*
X0220256Y0238698D03*
X0220256Y0238731D03*
D175*
X0220256Y0238765D03*
X0220256Y0238665D03*
X0215227Y0229465D03*
X0220256Y0219765D03*
X0220256Y0219665D03*
X0220256Y0219565D03*
X0202956Y0219665D03*
X0202797Y0219565D03*
X0193256Y0219665D03*
X0193097Y0219765D03*
X0192856Y0207665D03*
X0203356Y0207665D03*
X0180997Y0229465D03*
X0175956Y0219765D03*
X0175956Y0219665D03*
X0175956Y0238565D03*
X0175956Y0238665D03*
X0175956Y0238765D03*
X0192856Y0250665D03*
X0193227Y0238665D03*
X0193056Y0238565D03*
X0202997Y0238665D03*
X0203156Y0238565D03*
X0203297Y0250765D03*
D176*
X0203341Y0250698D03*
X0203412Y0250598D03*
X0203441Y0238398D03*
X0203741Y0238231D03*
X0207812Y0235731D03*
X0215241Y0229431D03*
X0215241Y0228898D03*
X0209141Y0223831D03*
X0203612Y0220031D03*
X0203441Y0219931D03*
X0203212Y0219798D03*
X0198112Y0223631D03*
X0198112Y0223698D03*
X0192841Y0219898D03*
X0192612Y0220031D03*
X0192512Y0220098D03*
X0192441Y0220131D03*
X0188412Y0222631D03*
X0198112Y0234698D03*
X0192941Y0238498D03*
X0192641Y0238331D03*
X0192812Y0250598D03*
X0220241Y0238298D03*
X0220241Y0220031D03*
X0203412Y0207731D03*
X0192841Y0207698D03*
X0192812Y0207731D03*
D177*
X0203377Y0207698D03*
X0203377Y0219898D03*
X0192677Y0219998D03*
X0187077Y0223831D03*
X0180977Y0228898D03*
X0180977Y0229431D03*
X0175977Y0220031D03*
X0175977Y0219998D03*
X0175977Y0219931D03*
X0175977Y0219898D03*
X0175977Y0238298D03*
X0175977Y0238331D03*
X0175977Y0238398D03*
X0175977Y0238431D03*
X0175977Y0238498D03*
X0192477Y0238231D03*
X0192777Y0238398D03*
X0203277Y0238498D03*
X0203577Y0238331D03*
X0203477Y0250531D03*
X0220277Y0238531D03*
X0220277Y0219798D03*
D178*
X0220262Y0219865D03*
X0220262Y0219965D03*
X0203662Y0220065D03*
X0203491Y0219965D03*
X0192562Y0220065D03*
X0192391Y0220165D03*
X0192791Y0207765D03*
X0175991Y0220065D03*
X0175991Y0220165D03*
X0175991Y0238165D03*
X0175991Y0238265D03*
X0192191Y0238065D03*
X0192362Y0238165D03*
X0192691Y0250465D03*
X0203862Y0238165D03*
X0204191Y0237965D03*
X0220262Y0238365D03*
X0220262Y0238465D03*
D179*
X0203512Y0238365D03*
X0203341Y0238465D03*
X0198112Y0234665D03*
X0192712Y0238365D03*
X0192541Y0238265D03*
X0203441Y0250565D03*
X0198112Y0223665D03*
X0194012Y0224465D03*
X0192741Y0219965D03*
X0192912Y0219865D03*
X0203141Y0219765D03*
X0203312Y0219865D03*
X0203441Y0207765D03*
D180*
X0203462Y0207798D03*
X0203491Y0207831D03*
X0192762Y0207798D03*
X0192262Y0220231D03*
X0192162Y0220298D03*
X0191991Y0220398D03*
X0187091Y0223798D03*
X0187091Y0234531D03*
X0188391Y0235698D03*
X0192262Y0238098D03*
X0192591Y0238298D03*
X0192762Y0250531D03*
X0203491Y0250498D03*
X0203791Y0238198D03*
X0203962Y0238098D03*
X0203962Y0220231D03*
X0203891Y0220198D03*
X0203791Y0220131D03*
X0203562Y0219998D03*
X0220262Y0219998D03*
X0220262Y0219931D03*
X0220262Y0219898D03*
X0220262Y0219831D03*
X0220262Y0238331D03*
X0220262Y0238398D03*
X0220262Y0238431D03*
X0220262Y0238498D03*
X0175991Y0238231D03*
X0175991Y0238198D03*
X0175991Y0238131D03*
X0175991Y0220231D03*
X0175991Y0220198D03*
X0175991Y0220131D03*
X0175991Y0220098D03*
D181*
X0192327Y0220198D03*
X0203727Y0220098D03*
X0207827Y0222631D03*
X0209127Y0223798D03*
X0209127Y0234531D03*
X0207827Y0235698D03*
X0203627Y0238298D03*
X0198127Y0234731D03*
X0192427Y0238198D03*
X0192727Y0250498D03*
X0220227Y0238231D03*
X0220227Y0238198D03*
X0220227Y0238131D03*
X0220227Y0220198D03*
X0220227Y0220131D03*
X0220227Y0220098D03*
X0192727Y0207831D03*
D182*
X0192706Y0207865D03*
X0192647Y0207965D03*
X0203506Y0207865D03*
X0204006Y0220265D03*
X0204177Y0220365D03*
X0204347Y0220465D03*
X0204506Y0220565D03*
X0207847Y0222665D03*
X0209106Y0223765D03*
X0209106Y0234565D03*
X0207847Y0235665D03*
X0198106Y0234765D03*
X0198106Y0223565D03*
X0192047Y0220365D03*
X0191877Y0220465D03*
X0191706Y0220565D03*
X0188377Y0222665D03*
X0187106Y0223765D03*
X0187106Y0234565D03*
X0188377Y0235665D03*
X0176006Y0237965D03*
X0176006Y0238065D03*
X0176006Y0220365D03*
X0176006Y0220265D03*
X0220206Y0220265D03*
X0220206Y0220365D03*
X0220206Y0237965D03*
X0220206Y0238065D03*
D183*
X0220206Y0238098D03*
X0220206Y0238031D03*
X0220206Y0237998D03*
X0215247Y0229398D03*
X0215247Y0228931D03*
X0220206Y0220331D03*
X0220206Y0220298D03*
X0220206Y0220231D03*
X0204406Y0220498D03*
X0204247Y0220398D03*
X0204106Y0220331D03*
X0204077Y0220298D03*
X0198106Y0223531D03*
X0198106Y0223598D03*
X0192106Y0220331D03*
X0191947Y0220431D03*
X0191806Y0220498D03*
X0191777Y0220531D03*
X0191606Y0220631D03*
X0192606Y0207998D03*
X0192677Y0207931D03*
X0192677Y0207898D03*
X0203547Y0207898D03*
X0203577Y0207931D03*
X0203606Y0207998D03*
X0202247Y0233898D03*
X0198106Y0234798D03*
X0193977Y0233898D03*
X0191647Y0237731D03*
X0191747Y0237798D03*
X0191806Y0237831D03*
X0191906Y0237898D03*
X0191977Y0237931D03*
X0192077Y0237998D03*
X0192147Y0238031D03*
X0192306Y0238131D03*
X0203906Y0238131D03*
X0204077Y0238031D03*
X0204147Y0237998D03*
X0204247Y0237931D03*
X0204306Y0237898D03*
X0204406Y0237831D03*
X0204477Y0237798D03*
X0204577Y0237731D03*
X0203577Y0250398D03*
X0203547Y0250431D03*
X0192677Y0250431D03*
X0192647Y0250398D03*
X0176006Y0238098D03*
X0176006Y0238031D03*
X0176006Y0237998D03*
X0176047Y0237831D03*
X0176047Y0237798D03*
X0180977Y0229398D03*
X0180977Y0228931D03*
X0176047Y0220531D03*
X0176047Y0220498D03*
X0176006Y0220398D03*
X0176006Y0220331D03*
X0176006Y0220298D03*
D184*
X0176062Y0220565D03*
X0176062Y0220665D03*
X0176062Y0237665D03*
X0176062Y0237765D03*
X0191362Y0237565D03*
X0191691Y0237765D03*
X0191862Y0237865D03*
X0192562Y0250265D03*
X0203591Y0250365D03*
X0204362Y0237865D03*
X0204691Y0237665D03*
X0204862Y0237565D03*
X0220162Y0237665D03*
X0220162Y0237765D03*
X0220191Y0237865D03*
X0220162Y0220665D03*
X0220162Y0220565D03*
X0220191Y0220465D03*
X0203662Y0208065D03*
X0203591Y0207965D03*
X0192562Y0208065D03*
X0191562Y0220665D03*
X0191391Y0220765D03*
X0191062Y0220965D03*
D185*
X0191491Y0220698D03*
X0191662Y0220598D03*
X0188362Y0222698D03*
X0187162Y0223731D03*
X0187162Y0234631D03*
X0191262Y0237498D03*
X0191462Y0237631D03*
X0191591Y0237698D03*
X0192562Y0250298D03*
X0192591Y0250331D03*
X0203662Y0250298D03*
X0204762Y0237631D03*
X0204791Y0237598D03*
X0204962Y0237498D03*
X0209091Y0234598D03*
X0220162Y0237698D03*
X0220162Y0237731D03*
X0220191Y0237798D03*
X0220191Y0237831D03*
X0220191Y0237898D03*
X0220191Y0237931D03*
X0220162Y0220631D03*
X0220162Y0220598D03*
X0220191Y0220531D03*
X0220191Y0220498D03*
X0220191Y0220431D03*
X0220191Y0220398D03*
X0204891Y0220798D03*
X0204791Y0220731D03*
X0204562Y0220598D03*
X0204462Y0220531D03*
X0204291Y0220431D03*
X0203691Y0208098D03*
X0192591Y0208031D03*
X0176062Y0220598D03*
X0176062Y0220631D03*
X0176091Y0220798D03*
X0176091Y0237531D03*
X0176062Y0237698D03*
X0176062Y0237731D03*
D186*
X0176112Y0237498D03*
X0176112Y0237431D03*
X0176112Y0237398D03*
X0176141Y0237331D03*
X0176141Y0237298D03*
X0188341Y0235631D03*
X0190941Y0237298D03*
X0191112Y0237398D03*
X0191141Y0237431D03*
X0191312Y0237531D03*
X0198112Y0235131D03*
X0198112Y0235098D03*
X0198112Y0235031D03*
X0198112Y0234998D03*
X0198112Y0234931D03*
X0198112Y0234898D03*
X0204912Y0237531D03*
X0205112Y0237398D03*
X0205241Y0237331D03*
X0205441Y0237198D03*
X0207912Y0235598D03*
X0220112Y0237398D03*
X0220112Y0237431D03*
X0220112Y0237498D03*
X0220141Y0237531D03*
X0220141Y0237598D03*
X0220141Y0237631D03*
X0207912Y0222731D03*
X0205212Y0220998D03*
X0205112Y0220931D03*
X0205041Y0220898D03*
X0204941Y0220831D03*
X0202241Y0224431D03*
X0198112Y0223431D03*
X0198112Y0223398D03*
X0198112Y0223331D03*
X0198112Y0223298D03*
X0198112Y0223231D03*
X0198112Y0223198D03*
X0191112Y0220931D03*
X0191012Y0220998D03*
X0190941Y0221031D03*
X0190841Y0221098D03*
X0190641Y0221231D03*
X0192441Y0208231D03*
X0192512Y0208131D03*
X0192541Y0208098D03*
X0203712Y0208131D03*
X0220141Y0220698D03*
X0220141Y0220731D03*
X0220141Y0220798D03*
X0220112Y0220898D03*
X0220112Y0220931D03*
X0203712Y0250198D03*
X0203712Y0250231D03*
X0192512Y0250198D03*
X0176141Y0221031D03*
X0176112Y0220931D03*
X0176112Y0220898D03*
X0176112Y0220831D03*
D187*
X0176077Y0220765D03*
X0180977Y0228965D03*
X0180977Y0229365D03*
X0176077Y0237565D03*
X0190877Y0237265D03*
X0192477Y0250165D03*
X0203677Y0250265D03*
X0205177Y0237365D03*
X0205177Y0220965D03*
X0204677Y0220665D03*
X0220077Y0221065D03*
X0192477Y0208165D03*
D188*
X0203741Y0208165D03*
X0204841Y0220765D03*
X0205012Y0220865D03*
X0198112Y0223265D03*
X0198112Y0223365D03*
X0198112Y0223465D03*
X0190912Y0221065D03*
X0190741Y0221165D03*
X0198112Y0234965D03*
X0198112Y0235065D03*
X0205012Y0237465D03*
X0205341Y0237265D03*
X0215241Y0229365D03*
X0215241Y0228965D03*
X0220112Y0220865D03*
X0220141Y0220765D03*
X0220112Y0237465D03*
X0220141Y0237565D03*
X0203741Y0250165D03*
X0191212Y0237465D03*
X0191041Y0237365D03*
X0176112Y0237465D03*
X0176141Y0221065D03*
X0176112Y0220865D03*
D189*
X0176127Y0220998D03*
X0176156Y0221098D03*
X0176156Y0221131D03*
X0176197Y0221231D03*
X0176197Y0221298D03*
X0176227Y0221398D03*
X0180997Y0228998D03*
X0176197Y0237098D03*
X0176197Y0237131D03*
X0176156Y0237198D03*
X0176156Y0237231D03*
X0188327Y0235598D03*
X0190356Y0236931D03*
X0190456Y0236998D03*
X0190527Y0237031D03*
X0190627Y0237098D03*
X0190656Y0237131D03*
X0190827Y0237231D03*
X0193956Y0233931D03*
X0198127Y0235198D03*
X0202256Y0233931D03*
X0205397Y0237231D03*
X0205556Y0237131D03*
X0205597Y0237098D03*
X0205697Y0237031D03*
X0205756Y0236998D03*
X0205856Y0236931D03*
X0203797Y0250098D03*
X0203756Y0250131D03*
X0192456Y0250131D03*
X0192427Y0250098D03*
X0192356Y0249998D03*
X0198127Y0223131D03*
X0205427Y0221131D03*
X0205527Y0221198D03*
X0205597Y0221231D03*
X0205697Y0221298D03*
X0209056Y0223698D03*
X0219997Y0221398D03*
X0220027Y0221298D03*
X0220056Y0221131D03*
X0220056Y0221098D03*
X0220097Y0221031D03*
X0220097Y0220998D03*
X0220127Y0220831D03*
X0220027Y0237098D03*
X0220056Y0237198D03*
X0220056Y0237231D03*
X0220097Y0237298D03*
X0220097Y0237331D03*
X0203856Y0208331D03*
X0203827Y0208298D03*
X0203797Y0208231D03*
X0203756Y0208198D03*
X0192456Y0208198D03*
X0192397Y0208298D03*
X0190797Y0221131D03*
X0190697Y0221198D03*
X0190527Y0221298D03*
X0190497Y0221331D03*
X0190327Y0221431D03*
X0190227Y0221498D03*
X0188327Y0222731D03*
D190*
X0187197Y0223665D03*
X0190427Y0221365D03*
X0190597Y0221265D03*
X0198127Y0223165D03*
X0205327Y0221065D03*
X0205497Y0221165D03*
X0205627Y0221265D03*
X0205797Y0221365D03*
X0209027Y0223665D03*
X0198127Y0235165D03*
X0205497Y0237165D03*
X0205656Y0237065D03*
X0205956Y0236865D03*
X0203827Y0250065D03*
X0192397Y0250065D03*
X0190727Y0237165D03*
X0190556Y0237065D03*
X0190256Y0236865D03*
X0187197Y0234665D03*
X0176227Y0236965D03*
X0176197Y0237065D03*
X0176156Y0237165D03*
X0176156Y0237265D03*
X0176127Y0237365D03*
X0176197Y0221265D03*
X0176156Y0221165D03*
X0176127Y0220965D03*
X0192427Y0208265D03*
X0203797Y0208265D03*
X0220097Y0220965D03*
X0220056Y0221165D03*
X0220027Y0221265D03*
X0220027Y0237065D03*
X0220056Y0237165D03*
X0220056Y0237265D03*
X0220097Y0237365D03*
D191*
X0219977Y0236931D03*
X0219977Y0236898D03*
X0219977Y0236831D03*
X0206477Y0236531D03*
X0206377Y0236598D03*
X0206177Y0236731D03*
X0206077Y0236798D03*
X0203877Y0249998D03*
X0192377Y0250031D03*
X0176277Y0236798D03*
X0176277Y0236731D03*
X0180977Y0229331D03*
X0176277Y0221598D03*
X0176277Y0221531D03*
X0176177Y0221198D03*
X0189877Y0221731D03*
X0190077Y0221598D03*
X0190177Y0221531D03*
X0190377Y0221398D03*
X0192377Y0208331D03*
X0219977Y0221431D03*
X0219977Y0221498D03*
D192*
X0219941Y0221565D03*
X0220012Y0221365D03*
X0207941Y0222765D03*
X0206412Y0221765D03*
X0206112Y0221565D03*
X0205941Y0221465D03*
X0198112Y0223065D03*
X0190112Y0221565D03*
X0189812Y0221765D03*
X0188312Y0222765D03*
X0176312Y0221665D03*
X0176241Y0221465D03*
X0176212Y0221365D03*
X0176312Y0236665D03*
X0176241Y0236865D03*
X0189941Y0236665D03*
X0190112Y0236765D03*
X0190412Y0236965D03*
X0198112Y0235365D03*
X0198112Y0235265D03*
X0205812Y0236965D03*
X0206112Y0236765D03*
X0207941Y0235565D03*
X0209041Y0234665D03*
X0219941Y0236765D03*
X0220012Y0236965D03*
X0203941Y0208465D03*
X0192341Y0208365D03*
X0192341Y0249965D03*
D193*
X0203877Y0249965D03*
X0206277Y0236665D03*
X0219977Y0236865D03*
X0219977Y0221465D03*
X0203877Y0208365D03*
X0192277Y0208465D03*
X0190277Y0221465D03*
X0189977Y0221665D03*
X0176277Y0221565D03*
X0176277Y0236765D03*
D194*
X0176327Y0236598D03*
X0176427Y0236298D03*
X0187227Y0234731D03*
X0176427Y0222031D03*
X0176327Y0221731D03*
X0192227Y0208531D03*
X0192327Y0208398D03*
X0203927Y0208431D03*
X0206527Y0221831D03*
X0219927Y0221631D03*
X0219827Y0236398D03*
X0219927Y0236698D03*
X0206527Y0236498D03*
X0206327Y0236631D03*
X0203927Y0249898D03*
X0198127Y0255331D03*
X0192227Y0249798D03*
D195*
X0192312Y0249931D03*
X0203841Y0250031D03*
X0203912Y0249931D03*
X0205912Y0236898D03*
X0206012Y0236831D03*
X0206212Y0236698D03*
X0209012Y0234698D03*
X0215241Y0229331D03*
X0215241Y0228998D03*
X0209012Y0223631D03*
X0206312Y0221698D03*
X0206212Y0221631D03*
X0206041Y0221531D03*
X0206012Y0221498D03*
X0205912Y0221431D03*
X0205841Y0221398D03*
X0205741Y0221331D03*
X0198112Y0222998D03*
X0198112Y0223031D03*
X0198112Y0223098D03*
X0190012Y0221631D03*
X0189912Y0221698D03*
X0189712Y0221831D03*
X0187212Y0223631D03*
X0187212Y0234698D03*
X0189741Y0236531D03*
X0189841Y0236598D03*
X0190012Y0236698D03*
X0190041Y0236731D03*
X0190141Y0236798D03*
X0190212Y0236831D03*
X0190312Y0236898D03*
X0198112Y0235331D03*
X0198112Y0235298D03*
X0198112Y0235231D03*
X0219912Y0236631D03*
X0219941Y0236731D03*
X0220012Y0236998D03*
X0220012Y0237031D03*
X0220041Y0237131D03*
X0219912Y0221698D03*
X0219941Y0221598D03*
X0220012Y0221331D03*
X0220041Y0221231D03*
X0220041Y0221198D03*
X0203912Y0208398D03*
X0192312Y0208431D03*
X0176212Y0221331D03*
X0176241Y0221431D03*
X0176241Y0221498D03*
X0176312Y0221698D03*
X0176341Y0221798D03*
X0176312Y0236631D03*
X0176241Y0236831D03*
X0176241Y0236898D03*
X0176241Y0236931D03*
X0176212Y0236998D03*
X0176212Y0237031D03*
D196*
X0176291Y0236698D03*
X0176362Y0236531D03*
X0176362Y0236498D03*
X0176391Y0236398D03*
X0176462Y0236198D03*
X0180991Y0229031D03*
X0176391Y0221931D03*
X0176362Y0221898D03*
X0176362Y0221831D03*
X0176291Y0221631D03*
X0188262Y0222798D03*
X0189762Y0221798D03*
X0193962Y0224398D03*
X0202262Y0224398D03*
X0206162Y0221598D03*
X0206362Y0221731D03*
X0206462Y0221798D03*
X0207962Y0222798D03*
X0208991Y0234731D03*
X0207962Y0235531D03*
X0219862Y0236498D03*
X0219891Y0236598D03*
X0219962Y0236798D03*
X0219862Y0221898D03*
X0219862Y0221831D03*
X0219891Y0221798D03*
X0219891Y0221731D03*
X0219962Y0221531D03*
X0203991Y0208531D03*
X0203962Y0208498D03*
X0192262Y0208498D03*
X0192191Y0208598D03*
X0188262Y0235531D03*
X0189691Y0236498D03*
X0189891Y0236631D03*
X0192262Y0249831D03*
X0192291Y0249898D03*
X0203991Y0249798D03*
D197*
X0192206Y0249765D03*
X0192147Y0249665D03*
X0198106Y0235465D03*
X0202277Y0233965D03*
X0193947Y0233965D03*
X0176606Y0235765D03*
X0176577Y0235865D03*
X0176547Y0235965D03*
X0176506Y0236065D03*
X0176477Y0236165D03*
X0176606Y0222565D03*
X0176577Y0222465D03*
X0176547Y0222365D03*
X0176506Y0222265D03*
X0192147Y0208665D03*
X0192206Y0208565D03*
X0204006Y0208565D03*
X0204077Y0208665D03*
X0204147Y0208765D03*
X0219606Y0235765D03*
X0219647Y0235865D03*
X0219706Y0236065D03*
X0219747Y0236165D03*
D198*
X0219747Y0236131D03*
X0219747Y0236098D03*
X0219706Y0236031D03*
X0219677Y0235931D03*
X0219777Y0236198D03*
X0219777Y0236231D03*
X0219806Y0236298D03*
X0219806Y0236331D03*
X0219847Y0236431D03*
X0219877Y0236531D03*
X0215247Y0229298D03*
X0215247Y0229031D03*
X0219677Y0222398D03*
X0219706Y0222331D03*
X0219706Y0222298D03*
X0219747Y0222231D03*
X0219747Y0222198D03*
X0219777Y0222131D03*
X0219777Y0222098D03*
X0219806Y0222031D03*
X0219806Y0221998D03*
X0219847Y0221931D03*
X0208977Y0223598D03*
X0207977Y0222831D03*
X0198106Y0222898D03*
X0198106Y0222931D03*
X0198106Y0235398D03*
X0198106Y0235431D03*
X0188247Y0222831D03*
X0187247Y0223598D03*
X0180977Y0229298D03*
X0176577Y0222498D03*
X0176547Y0222398D03*
X0176506Y0222331D03*
X0176506Y0222298D03*
X0176477Y0222231D03*
X0176477Y0222198D03*
X0176447Y0222131D03*
X0176447Y0222098D03*
X0176406Y0221998D03*
X0176647Y0235698D03*
X0176547Y0235931D03*
X0176506Y0236031D03*
X0176477Y0236098D03*
X0176477Y0236131D03*
X0176447Y0236231D03*
X0176406Y0236331D03*
X0176377Y0236431D03*
X0192106Y0249631D03*
X0192147Y0249698D03*
X0192177Y0249731D03*
X0203977Y0249831D03*
X0204047Y0249731D03*
X0204077Y0249698D03*
X0204106Y0249631D03*
X0192106Y0208731D03*
X0192177Y0208631D03*
X0204047Y0208631D03*
X0204047Y0208598D03*
X0204106Y0208698D03*
D199*
X0204127Y0208731D03*
X0204227Y0208898D03*
X0192127Y0208698D03*
X0188127Y0222931D03*
X0188027Y0222998D03*
X0187827Y0223131D03*
X0176827Y0223098D03*
X0176727Y0222831D03*
X0176627Y0222631D03*
X0176627Y0222598D03*
X0176727Y0235498D03*
X0176627Y0235731D03*
X0176527Y0235998D03*
X0187727Y0235131D03*
X0188127Y0235431D03*
X0188227Y0235498D03*
X0198127Y0235498D03*
X0208127Y0235398D03*
X0208227Y0235331D03*
X0219627Y0235798D03*
X0219627Y0235831D03*
X0219527Y0222798D03*
X0219627Y0222531D03*
X0219627Y0222498D03*
X0204127Y0249598D03*
X0192027Y0249498D03*
D200*
X0192062Y0249565D03*
X0204091Y0249665D03*
X0204162Y0249565D03*
X0208162Y0235365D03*
X0208962Y0234765D03*
X0208962Y0223565D03*
X0208162Y0222965D03*
X0219491Y0222865D03*
X0219562Y0222665D03*
X0219662Y0222465D03*
X0219691Y0222365D03*
X0219491Y0235465D03*
X0219562Y0235665D03*
X0219691Y0235965D03*
X0192091Y0208765D03*
X0188191Y0222865D03*
X0188062Y0222965D03*
X0187791Y0223165D03*
X0187262Y0223565D03*
X0180991Y0229065D03*
X0176862Y0223165D03*
X0176691Y0222765D03*
X0176662Y0222665D03*
X0176691Y0235565D03*
X0176662Y0235665D03*
X0187262Y0234765D03*
X0188062Y0235365D03*
X0188191Y0235465D03*
D201*
X0188091Y0235398D03*
X0187991Y0235331D03*
X0187962Y0235298D03*
X0187862Y0235231D03*
X0176791Y0235331D03*
X0176762Y0235398D03*
X0176691Y0235598D03*
X0176662Y0235631D03*
X0176591Y0235798D03*
X0176591Y0235831D03*
X0176562Y0235898D03*
X0176791Y0222998D03*
X0176762Y0222931D03*
X0176691Y0222798D03*
X0176662Y0222731D03*
X0176662Y0222698D03*
X0176591Y0222531D03*
X0176562Y0222431D03*
X0187562Y0223331D03*
X0187691Y0223231D03*
X0187962Y0223031D03*
X0188162Y0222898D03*
X0192062Y0208798D03*
X0204162Y0208798D03*
X0204191Y0208831D03*
X0208062Y0222898D03*
X0208262Y0223031D03*
X0208391Y0223131D03*
X0208491Y0235131D03*
X0208362Y0235231D03*
X0208262Y0235298D03*
X0207991Y0235498D03*
X0219462Y0235398D03*
X0219562Y0235631D03*
X0219591Y0235698D03*
X0219591Y0235731D03*
X0219662Y0235898D03*
X0219691Y0235998D03*
X0219391Y0223098D03*
X0219462Y0222931D03*
X0219562Y0222731D03*
X0219562Y0222698D03*
X0219591Y0222631D03*
X0219591Y0222598D03*
X0219662Y0222431D03*
X0204191Y0249498D03*
X0192091Y0249598D03*
X0192062Y0249531D03*
D202*
X0204241Y0249431D03*
X0198112Y0235531D03*
X0208412Y0235198D03*
X0208541Y0235098D03*
X0208641Y0235031D03*
X0208812Y0234898D03*
X0208912Y0234831D03*
X0208941Y0234798D03*
X0208941Y0223531D03*
X0208812Y0223431D03*
X0208612Y0223298D03*
X0208541Y0223231D03*
X0208341Y0223098D03*
X0208212Y0222998D03*
X0208112Y0222931D03*
X0198112Y0222831D03*
X0198112Y0222798D03*
X0187741Y0223198D03*
X0187612Y0223298D03*
X0187412Y0223431D03*
X0187341Y0223498D03*
X0177112Y0223698D03*
X0177012Y0223498D03*
X0176941Y0223331D03*
X0176912Y0223298D03*
X0176841Y0223131D03*
X0176812Y0223031D03*
X0176741Y0222898D03*
X0177012Y0234831D03*
X0176941Y0234998D03*
X0176912Y0235031D03*
X0176912Y0235098D03*
X0176841Y0235198D03*
X0176841Y0235231D03*
X0176812Y0235298D03*
X0176741Y0235431D03*
X0176712Y0235531D03*
X0187312Y0234831D03*
X0187412Y0234898D03*
X0187441Y0234931D03*
X0187541Y0234998D03*
X0187812Y0235198D03*
X0191912Y0209031D03*
X0191941Y0208998D03*
X0192012Y0208898D03*
X0192041Y0208831D03*
X0204241Y0208931D03*
X0204312Y0209031D03*
X0219512Y0222831D03*
X0219441Y0222998D03*
X0219412Y0223031D03*
X0219341Y0223198D03*
X0219341Y0223231D03*
X0219312Y0223298D03*
X0219241Y0223431D03*
X0219212Y0223498D03*
X0219141Y0234698D03*
X0219212Y0234831D03*
X0219241Y0234898D03*
X0219312Y0235031D03*
X0219341Y0235131D03*
X0219412Y0235298D03*
X0219441Y0235331D03*
X0219512Y0235498D03*
X0219512Y0235531D03*
X0219541Y0235598D03*
D203*
X0219441Y0235365D03*
X0219412Y0235265D03*
X0219312Y0235065D03*
X0215241Y0229265D03*
X0215241Y0229065D03*
X0219312Y0223265D03*
X0219412Y0223065D03*
X0219441Y0222965D03*
X0208841Y0223465D03*
X0208712Y0223365D03*
X0208441Y0223165D03*
X0208312Y0223065D03*
X0208712Y0234965D03*
X0208441Y0235165D03*
X0208312Y0235265D03*
X0198112Y0235565D03*
X0187912Y0235265D03*
X0187641Y0235065D03*
X0187512Y0234965D03*
X0177041Y0234765D03*
X0177012Y0234865D03*
X0176941Y0234965D03*
X0176912Y0235065D03*
X0176812Y0235265D03*
X0177141Y0223765D03*
X0177041Y0223565D03*
X0176941Y0223365D03*
X0176912Y0223265D03*
X0176812Y0223065D03*
X0187512Y0223365D03*
X0187641Y0223265D03*
X0193941Y0224365D03*
X0191941Y0208965D03*
X0192012Y0208865D03*
X0204212Y0208865D03*
X0204212Y0249465D03*
X0192012Y0249465D03*
X0191941Y0249365D03*
D204*
X0191977Y0249398D03*
X0191977Y0249431D03*
X0204177Y0249531D03*
X0208077Y0235431D03*
X0208677Y0234998D03*
X0208777Y0234931D03*
X0208677Y0223331D03*
X0208477Y0223198D03*
X0219377Y0223131D03*
X0219477Y0222898D03*
X0219277Y0234998D03*
X0219377Y0235198D03*
X0219377Y0235231D03*
X0219477Y0235431D03*
X0191977Y0208931D03*
X0187877Y0223098D03*
X0187477Y0223398D03*
X0187277Y0223531D03*
X0180977Y0229098D03*
X0177077Y0223631D03*
X0176977Y0223431D03*
X0176977Y0223398D03*
X0176877Y0223231D03*
X0176877Y0223198D03*
X0177077Y0234698D03*
X0176977Y0234898D03*
X0176977Y0234931D03*
X0176877Y0235131D03*
X0187277Y0234798D03*
X0187577Y0235031D03*
X0187677Y0235098D03*
D205*
X0187777Y0235165D03*
X0180977Y0229265D03*
X0176877Y0235165D03*
X0176777Y0235365D03*
X0176777Y0222965D03*
X0187377Y0223465D03*
X0202277Y0224365D03*
X0208577Y0223265D03*
X0208577Y0235065D03*
X0219177Y0234765D03*
X0219277Y0234965D03*
X0219177Y0223565D03*
X0219277Y0223365D03*
X0219377Y0223165D03*
X0204277Y0208965D03*
X0204277Y0249365D03*
D206*
X0204297Y0249331D03*
X0204327Y0249298D03*
X0204356Y0249231D03*
X0204256Y0249398D03*
X0191927Y0249331D03*
X0191897Y0249298D03*
X0191856Y0249231D03*
X0193927Y0233998D03*
X0202297Y0233998D03*
X0208897Y0223498D03*
X0208756Y0223398D03*
X0218856Y0224198D03*
X0218897Y0224131D03*
X0218956Y0223998D03*
X0218997Y0223931D03*
X0219056Y0223831D03*
X0219056Y0223798D03*
X0219097Y0223731D03*
X0219127Y0223698D03*
X0219156Y0223631D03*
X0219156Y0223598D03*
X0219197Y0223531D03*
X0219256Y0223398D03*
X0219297Y0223331D03*
X0218956Y0234331D03*
X0218997Y0234398D03*
X0219056Y0234531D03*
X0219097Y0234598D03*
X0219156Y0234731D03*
X0219197Y0234798D03*
X0219256Y0234931D03*
X0219327Y0235098D03*
X0204356Y0209098D03*
X0204297Y0208998D03*
X0191856Y0209098D03*
X0191856Y0209131D03*
X0191797Y0209231D03*
X0185856Y0224631D03*
X0177497Y0224431D03*
X0177356Y0224198D03*
X0177327Y0224131D03*
X0177256Y0223998D03*
X0177227Y0223931D03*
X0177197Y0223898D03*
X0177156Y0223831D03*
X0177156Y0223798D03*
X0177127Y0223731D03*
X0177056Y0223598D03*
X0177027Y0223531D03*
X0177427Y0234031D03*
X0177397Y0234098D03*
X0177327Y0234231D03*
X0177297Y0234298D03*
X0177256Y0234331D03*
X0177227Y0234398D03*
X0177227Y0234431D03*
X0177197Y0234498D03*
X0177156Y0234531D03*
X0177127Y0234598D03*
X0177127Y0234631D03*
X0177056Y0234731D03*
X0177027Y0234798D03*
D207*
X0177097Y0234665D03*
X0177156Y0234565D03*
X0177197Y0234465D03*
X0177256Y0234365D03*
X0177297Y0234265D03*
X0177356Y0234165D03*
X0177456Y0233965D03*
X0177297Y0224065D03*
X0177197Y0223865D03*
X0177097Y0223665D03*
X0176997Y0223465D03*
X0187356Y0234865D03*
X0198127Y0222765D03*
X0208856Y0234865D03*
X0218927Y0234265D03*
X0219027Y0234465D03*
X0219127Y0234665D03*
X0219227Y0234865D03*
X0219356Y0235165D03*
X0218927Y0224065D03*
X0219027Y0223865D03*
X0219097Y0223765D03*
X0219127Y0223665D03*
X0219227Y0223465D03*
X0204397Y0209165D03*
X0204327Y0209065D03*
X0191897Y0209065D03*
X0191827Y0209165D03*
X0191827Y0249165D03*
X0191897Y0249265D03*
X0204327Y0249265D03*
D208*
X0204377Y0249198D03*
X0204477Y0249031D03*
X0191777Y0249098D03*
X0185877Y0233731D03*
X0185777Y0233631D03*
X0185477Y0233398D03*
X0185277Y0233231D03*
X0180977Y0229231D03*
X0180977Y0229131D03*
X0177877Y0225098D03*
X0177777Y0224931D03*
X0177577Y0224598D03*
X0177477Y0224398D03*
X0177377Y0224231D03*
X0177277Y0224031D03*
X0185377Y0225031D03*
X0185777Y0224698D03*
X0177777Y0233431D03*
X0177677Y0233598D03*
X0177477Y0233931D03*
X0177377Y0234131D03*
X0191677Y0209431D03*
X0204377Y0209131D03*
X0204477Y0209298D03*
X0210377Y0224631D03*
X0210577Y0224798D03*
X0210977Y0225131D03*
X0218577Y0224698D03*
X0218677Y0224531D03*
X0218777Y0224331D03*
X0218377Y0233298D03*
X0218577Y0233631D03*
X0218677Y0233798D03*
X0218677Y0233831D03*
X0218777Y0233998D03*
X0218877Y0234198D03*
X0210577Y0233531D03*
X0210377Y0233698D03*
D209*
X0210777Y0233365D03*
X0218477Y0233465D03*
X0218777Y0233965D03*
X0218877Y0234165D03*
X0218977Y0234365D03*
X0219077Y0234565D03*
X0218477Y0224865D03*
X0218777Y0224365D03*
X0218877Y0224165D03*
X0218977Y0223965D03*
X0210777Y0224965D03*
X0191777Y0209265D03*
X0185577Y0224865D03*
X0177677Y0224765D03*
X0177577Y0224565D03*
X0177677Y0233565D03*
X0177577Y0233765D03*
X0185077Y0233065D03*
X0185677Y0233565D03*
X0191777Y0249065D03*
D210*
X0191712Y0248965D03*
X0204412Y0249165D03*
X0198112Y0235665D03*
X0210412Y0233665D03*
X0210541Y0233565D03*
X0210912Y0233265D03*
X0218541Y0233565D03*
X0218641Y0233765D03*
X0218712Y0233865D03*
X0218812Y0234065D03*
X0218541Y0224765D03*
X0218712Y0224465D03*
X0218812Y0224265D03*
X0210412Y0224665D03*
X0204512Y0209365D03*
X0204441Y0209265D03*
X0191712Y0209365D03*
X0185941Y0224565D03*
X0185812Y0224665D03*
X0185712Y0224765D03*
X0185441Y0224965D03*
X0185212Y0225165D03*
X0178041Y0225365D03*
X0177741Y0224865D03*
X0177612Y0224665D03*
X0177512Y0224465D03*
X0177441Y0224365D03*
X0177412Y0224265D03*
X0177341Y0224165D03*
X0177241Y0223965D03*
X0177812Y0233365D03*
X0177741Y0233465D03*
X0177641Y0233665D03*
X0177512Y0233865D03*
X0177412Y0234065D03*
X0185312Y0233265D03*
X0185441Y0233365D03*
X0185812Y0233665D03*
X0185941Y0233765D03*
D211*
X0185391Y0233331D03*
X0185362Y0233298D03*
X0185162Y0233131D03*
X0184991Y0232998D03*
X0184862Y0232898D03*
X0184791Y0232831D03*
X0184762Y0232798D03*
X0184562Y0232631D03*
X0184291Y0232398D03*
X0184091Y0232231D03*
X0184062Y0232198D03*
X0183991Y0232131D03*
X0183562Y0226598D03*
X0183862Y0226331D03*
X0183891Y0226298D03*
X0183962Y0226231D03*
X0183991Y0226198D03*
X0184191Y0226031D03*
X0184291Y0225931D03*
X0184462Y0225798D03*
X0184562Y0225698D03*
X0184662Y0225631D03*
X0184691Y0225598D03*
X0184762Y0225531D03*
X0184891Y0225431D03*
X0185162Y0225198D03*
X0185291Y0225098D03*
X0185491Y0224931D03*
X0178762Y0226431D03*
X0178591Y0226198D03*
X0178462Y0225998D03*
X0178391Y0225898D03*
X0178262Y0225698D03*
X0178191Y0225598D03*
X0178162Y0225531D03*
X0178091Y0225431D03*
X0178062Y0225398D03*
X0177991Y0225298D03*
X0177962Y0225231D03*
X0177891Y0225131D03*
X0177762Y0224898D03*
X0177662Y0224731D03*
X0178562Y0232198D03*
X0178491Y0232298D03*
X0178462Y0232331D03*
X0178391Y0232431D03*
X0178362Y0232498D03*
X0178291Y0232598D03*
X0178262Y0232631D03*
X0178191Y0232731D03*
X0178162Y0232798D03*
X0178091Y0232898D03*
X0178062Y0232931D03*
X0177962Y0233098D03*
X0177962Y0233131D03*
X0177891Y0233231D03*
X0177791Y0233398D03*
X0177591Y0233731D03*
X0191662Y0248898D03*
X0191691Y0248931D03*
X0204491Y0248998D03*
X0204562Y0248898D03*
X0204591Y0248831D03*
X0210862Y0233298D03*
X0210991Y0233198D03*
X0211062Y0233131D03*
X0211191Y0233031D03*
X0211291Y0232931D03*
X0211362Y0232898D03*
X0211462Y0232798D03*
X0211591Y0232698D03*
X0211662Y0232631D03*
X0211691Y0232598D03*
X0211891Y0232431D03*
X0212162Y0232198D03*
X0212491Y0231898D03*
X0217762Y0232331D03*
X0217891Y0232531D03*
X0217962Y0232631D03*
X0217991Y0232698D03*
X0218062Y0232798D03*
X0218091Y0232831D03*
X0218162Y0232931D03*
X0218191Y0232998D03*
X0218262Y0233098D03*
X0218262Y0233131D03*
X0218391Y0233331D03*
X0218462Y0233431D03*
X0218491Y0233498D03*
X0218562Y0233598D03*
X0217691Y0226098D03*
X0217762Y0225998D03*
X0217891Y0225798D03*
X0217962Y0225698D03*
X0218091Y0225498D03*
X0218162Y0225398D03*
X0218191Y0225331D03*
X0218262Y0225231D03*
X0218291Y0225198D03*
X0218391Y0225031D03*
X0218391Y0224998D03*
X0218462Y0224898D03*
X0218491Y0224831D03*
X0218562Y0224731D03*
X0218691Y0224498D03*
X0212262Y0226231D03*
X0211991Y0225998D03*
X0211762Y0225798D03*
X0211691Y0225731D03*
X0211662Y0225698D03*
X0211462Y0225531D03*
X0211291Y0225398D03*
X0211191Y0225298D03*
X0211091Y0225231D03*
X0211062Y0225198D03*
X0210862Y0225031D03*
X0210691Y0224898D03*
X0210491Y0224731D03*
X0202291Y0224331D03*
X0204591Y0209498D03*
X0204562Y0209431D03*
X0204491Y0209331D03*
X0191691Y0209398D03*
D212*
X0191627Y0209498D03*
X0191627Y0209531D03*
X0204527Y0209398D03*
X0193927Y0224331D03*
X0185127Y0225231D03*
X0184927Y0225398D03*
X0184527Y0225731D03*
X0184427Y0225831D03*
X0184227Y0225998D03*
X0183627Y0226531D03*
X0178527Y0226098D03*
X0178327Y0225798D03*
X0178227Y0225631D03*
X0178127Y0225498D03*
X0178027Y0225331D03*
X0177827Y0224998D03*
X0178627Y0232098D03*
X0178427Y0232398D03*
X0178327Y0232531D03*
X0178227Y0232698D03*
X0178127Y0232831D03*
X0178027Y0232998D03*
X0177827Y0233331D03*
X0177727Y0233498D03*
X0183727Y0231898D03*
X0184327Y0232431D03*
X0184527Y0232598D03*
X0184627Y0232698D03*
X0184927Y0232931D03*
X0185027Y0233031D03*
X0185227Y0233198D03*
X0193927Y0234031D03*
X0191627Y0248831D03*
X0191727Y0248998D03*
X0204527Y0248931D03*
X0210827Y0233331D03*
X0211227Y0232998D03*
X0211427Y0232831D03*
X0211927Y0232398D03*
X0217827Y0232431D03*
X0218027Y0232731D03*
X0218127Y0232898D03*
X0218227Y0233031D03*
X0218327Y0233198D03*
X0218327Y0233231D03*
X0218427Y0233398D03*
X0218627Y0233731D03*
X0218727Y0233898D03*
X0217627Y0226198D03*
X0217827Y0225898D03*
X0218027Y0225598D03*
X0218127Y0225431D03*
X0218227Y0225298D03*
X0218327Y0225131D03*
X0218527Y0224798D03*
X0212227Y0226198D03*
X0211927Y0225931D03*
X0211527Y0225598D03*
X0211427Y0225498D03*
X0211327Y0225431D03*
X0211227Y0225331D03*
X0210927Y0225098D03*
X0210827Y0224998D03*
X0210727Y0224931D03*
D213*
X0210662Y0224865D03*
X0210891Y0225065D03*
X0211262Y0225365D03*
X0211491Y0225565D03*
X0211962Y0225965D03*
X0217991Y0225665D03*
X0218062Y0225565D03*
X0218291Y0225165D03*
X0218362Y0225065D03*
X0218591Y0224665D03*
X0218662Y0224565D03*
X0212191Y0232165D03*
X0211962Y0232365D03*
X0211862Y0232465D03*
X0211491Y0232765D03*
X0211391Y0232865D03*
X0211262Y0232965D03*
X0211162Y0233065D03*
X0210662Y0233465D03*
X0218162Y0232965D03*
X0218291Y0233165D03*
X0218362Y0233265D03*
X0218591Y0233665D03*
X0204462Y0249065D03*
X0191662Y0248865D03*
X0191591Y0248765D03*
X0185562Y0233465D03*
X0185191Y0233165D03*
X0184962Y0232965D03*
X0184591Y0232665D03*
X0184491Y0232565D03*
X0184362Y0232465D03*
X0184262Y0232365D03*
X0183691Y0231865D03*
X0178791Y0231865D03*
X0178191Y0232765D03*
X0178062Y0232965D03*
X0177991Y0233065D03*
X0177862Y0233265D03*
X0178362Y0225865D03*
X0178291Y0225765D03*
X0178162Y0225565D03*
X0178091Y0225465D03*
X0177991Y0225265D03*
X0177862Y0225065D03*
X0177791Y0224965D03*
X0183591Y0226565D03*
X0184162Y0226065D03*
X0184262Y0225965D03*
X0184391Y0225865D03*
X0184491Y0225765D03*
X0184862Y0225465D03*
X0184962Y0225365D03*
X0185091Y0225265D03*
X0191662Y0209465D03*
X0204562Y0209465D03*
D214*
X0204606Y0209531D03*
X0204647Y0209598D03*
X0204677Y0209631D03*
X0204706Y0209698D03*
X0198106Y0222598D03*
X0198106Y0222631D03*
X0202306Y0234031D03*
X0198106Y0235698D03*
X0198106Y0235731D03*
X0191506Y0248631D03*
X0191547Y0248698D03*
X0191577Y0248731D03*
X0191606Y0248798D03*
X0204606Y0248798D03*
X0204647Y0248731D03*
X0204677Y0248698D03*
X0204706Y0248631D03*
X0211547Y0232731D03*
X0211777Y0232531D03*
X0211806Y0232498D03*
X0212006Y0232331D03*
X0212047Y0232298D03*
X0212106Y0232231D03*
X0212247Y0232131D03*
X0212277Y0232098D03*
X0212347Y0232031D03*
X0212377Y0231998D03*
X0212447Y0231931D03*
X0212577Y0231831D03*
X0212606Y0231798D03*
X0212677Y0231731D03*
X0212706Y0231698D03*
X0212777Y0231631D03*
X0212806Y0231598D03*
X0212947Y0231498D03*
X0213006Y0231431D03*
X0213047Y0231398D03*
X0213106Y0231331D03*
X0213147Y0231298D03*
X0213206Y0231231D03*
X0213247Y0231198D03*
X0213947Y0230531D03*
X0213977Y0230498D03*
X0215247Y0229198D03*
X0216306Y0227931D03*
X0216347Y0227898D03*
X0216477Y0227731D03*
X0216706Y0227431D03*
X0216747Y0227398D03*
X0216877Y0227231D03*
X0216947Y0227131D03*
X0216977Y0227098D03*
X0217047Y0226998D03*
X0217177Y0226831D03*
X0217247Y0226731D03*
X0217277Y0226698D03*
X0217306Y0226631D03*
X0217347Y0226598D03*
X0217406Y0226498D03*
X0217477Y0226431D03*
X0217477Y0226398D03*
X0217547Y0226331D03*
X0217547Y0226298D03*
X0217606Y0226231D03*
X0217677Y0226131D03*
X0217747Y0226031D03*
X0217806Y0225931D03*
X0217877Y0225831D03*
X0217947Y0225731D03*
X0218006Y0225631D03*
X0218077Y0225531D03*
X0213406Y0227298D03*
X0213347Y0227231D03*
X0213306Y0227198D03*
X0213247Y0227131D03*
X0213206Y0227098D03*
X0213147Y0227031D03*
X0213106Y0226998D03*
X0212906Y0226831D03*
X0212877Y0226798D03*
X0212806Y0226731D03*
X0212777Y0226698D03*
X0212706Y0226631D03*
X0212677Y0226598D03*
X0212606Y0226531D03*
X0212547Y0226498D03*
X0212477Y0226431D03*
X0212447Y0226398D03*
X0212377Y0226331D03*
X0212347Y0226298D03*
X0212147Y0226131D03*
X0212106Y0226098D03*
X0212047Y0226031D03*
X0211877Y0225898D03*
X0211806Y0225831D03*
X0211577Y0225631D03*
X0216577Y0230731D03*
X0216706Y0230898D03*
X0216806Y0231031D03*
X0216947Y0231198D03*
X0217006Y0231298D03*
X0217047Y0231331D03*
X0217106Y0231431D03*
X0217247Y0231598D03*
X0217306Y0231698D03*
X0217347Y0231731D03*
X0217377Y0231798D03*
X0217406Y0231831D03*
X0217447Y0231898D03*
X0217477Y0231931D03*
X0217547Y0232031D03*
X0217606Y0232098D03*
X0217606Y0232131D03*
X0217677Y0232198D03*
X0217677Y0232231D03*
X0217747Y0232298D03*
X0217806Y0232398D03*
X0217877Y0232498D03*
X0217947Y0232598D03*
X0191506Y0209731D03*
X0191577Y0209631D03*
X0191577Y0209598D03*
X0184347Y0225898D03*
X0184106Y0226098D03*
X0184077Y0226131D03*
X0183777Y0226398D03*
X0183747Y0226431D03*
X0183677Y0226498D03*
X0183506Y0226631D03*
X0183447Y0226698D03*
X0183406Y0226731D03*
X0183347Y0226798D03*
X0183306Y0226831D03*
X0183247Y0226898D03*
X0183206Y0226931D03*
X0183106Y0226998D03*
X0183077Y0227031D03*
X0183006Y0227098D03*
X0182977Y0227131D03*
X0182906Y0227198D03*
X0182877Y0227231D03*
X0182806Y0227298D03*
X0182777Y0227331D03*
X0182706Y0227398D03*
X0182677Y0227431D03*
X0182606Y0227498D03*
X0182577Y0227531D03*
X0182506Y0227598D03*
X0180977Y0229198D03*
X0179977Y0230331D03*
X0179847Y0230498D03*
X0179806Y0230531D03*
X0179677Y0230698D03*
X0179647Y0230731D03*
X0179577Y0230831D03*
X0179506Y0230898D03*
X0179447Y0230998D03*
X0179406Y0231031D03*
X0179347Y0231131D03*
X0179277Y0231198D03*
X0179206Y0231298D03*
X0179177Y0231331D03*
X0179147Y0231398D03*
X0179106Y0231431D03*
X0179047Y0231531D03*
X0178977Y0231598D03*
X0178977Y0231631D03*
X0178906Y0231698D03*
X0178877Y0231731D03*
X0178847Y0231798D03*
X0178806Y0231831D03*
X0178777Y0231898D03*
X0178747Y0231931D03*
X0178706Y0231998D03*
X0178677Y0232031D03*
X0178606Y0232131D03*
X0178547Y0232231D03*
X0179906Y0227931D03*
X0179877Y0227898D03*
X0179747Y0227731D03*
X0179647Y0227598D03*
X0179577Y0227531D03*
X0179506Y0227431D03*
X0179477Y0227398D03*
X0179406Y0227298D03*
X0179347Y0227231D03*
X0179277Y0227131D03*
X0179247Y0227098D03*
X0179206Y0227031D03*
X0179177Y0226998D03*
X0179106Y0226931D03*
X0179106Y0226898D03*
X0179047Y0226831D03*
X0179006Y0226798D03*
X0178977Y0226731D03*
X0178947Y0226698D03*
X0178906Y0226631D03*
X0178877Y0226598D03*
X0178847Y0226531D03*
X0178806Y0226498D03*
X0178747Y0226398D03*
X0178677Y0226331D03*
X0178677Y0226298D03*
X0178606Y0226231D03*
X0178547Y0226131D03*
X0178477Y0226031D03*
X0178406Y0225931D03*
X0178347Y0225831D03*
X0178277Y0225731D03*
X0182047Y0230298D03*
X0182077Y0230331D03*
X0182147Y0230398D03*
X0182177Y0230431D03*
X0182247Y0230498D03*
X0182277Y0230531D03*
X0182347Y0230598D03*
X0182377Y0230631D03*
X0182447Y0230698D03*
X0182477Y0230731D03*
X0182877Y0231098D03*
X0182906Y0231131D03*
X0182977Y0231198D03*
X0183006Y0231231D03*
X0183077Y0231298D03*
X0183106Y0231331D03*
X0183177Y0231398D03*
X0183206Y0231431D03*
X0183277Y0231498D03*
X0183306Y0231531D03*
X0183406Y0231598D03*
X0183447Y0231631D03*
X0183506Y0231698D03*
X0183547Y0231731D03*
X0183606Y0231798D03*
X0183647Y0231831D03*
X0183777Y0231931D03*
X0183847Y0231998D03*
X0183877Y0232031D03*
X0183947Y0232098D03*
X0184177Y0232298D03*
X0184206Y0232331D03*
X0184406Y0232498D03*
X0184447Y0232531D03*
X0184677Y0232731D03*
D215*
X0184147Y0232265D03*
X0183906Y0232065D03*
X0183806Y0231965D03*
X0183577Y0231765D03*
X0183477Y0231665D03*
X0183377Y0231565D03*
X0183247Y0231465D03*
X0183147Y0231365D03*
X0183047Y0231265D03*
X0182947Y0231165D03*
X0182406Y0230665D03*
X0182306Y0230565D03*
X0182206Y0230465D03*
X0182106Y0230365D03*
X0180977Y0229165D03*
X0179947Y0230365D03*
X0179777Y0230565D03*
X0179706Y0230665D03*
X0179547Y0230865D03*
X0179377Y0231065D03*
X0179306Y0231165D03*
X0179247Y0231265D03*
X0179077Y0231465D03*
X0179006Y0231565D03*
X0178947Y0231665D03*
X0178877Y0231765D03*
X0178706Y0231965D03*
X0178647Y0232065D03*
X0178577Y0232165D03*
X0178506Y0232265D03*
X0178447Y0232365D03*
X0178377Y0232465D03*
X0178306Y0232565D03*
X0178247Y0232665D03*
X0179777Y0227765D03*
X0179606Y0227565D03*
X0179377Y0227265D03*
X0179306Y0227165D03*
X0179147Y0226965D03*
X0179077Y0226865D03*
X0179006Y0226765D03*
X0178947Y0226665D03*
X0178847Y0226565D03*
X0178777Y0226465D03*
X0178706Y0226365D03*
X0178647Y0226265D03*
X0178577Y0226165D03*
X0178506Y0226065D03*
X0178447Y0225965D03*
X0182547Y0227565D03*
X0182647Y0227465D03*
X0182747Y0227365D03*
X0182847Y0227265D03*
X0182947Y0227165D03*
X0183047Y0227065D03*
X0183177Y0226965D03*
X0183277Y0226865D03*
X0183377Y0226765D03*
X0183477Y0226665D03*
X0183706Y0226465D03*
X0183806Y0226365D03*
X0184047Y0226165D03*
X0191547Y0209665D03*
X0191606Y0209565D03*
X0204677Y0209665D03*
X0204747Y0209765D03*
X0211377Y0225465D03*
X0211606Y0225665D03*
X0211847Y0225865D03*
X0212077Y0226065D03*
X0212177Y0226165D03*
X0212306Y0226265D03*
X0212406Y0226365D03*
X0212506Y0226465D03*
X0212647Y0226565D03*
X0212747Y0226665D03*
X0212847Y0226765D03*
X0213177Y0227065D03*
X0213277Y0227165D03*
X0213377Y0227265D03*
X0215247Y0229165D03*
X0216277Y0230365D03*
X0216447Y0230565D03*
X0216677Y0230865D03*
X0216847Y0231065D03*
X0216906Y0231165D03*
X0217147Y0231465D03*
X0217206Y0231565D03*
X0217277Y0231665D03*
X0217447Y0231865D03*
X0217506Y0231965D03*
X0217577Y0232065D03*
X0217647Y0232165D03*
X0217706Y0232265D03*
X0217777Y0232365D03*
X0217847Y0232465D03*
X0217906Y0232565D03*
X0217977Y0232665D03*
X0218047Y0232765D03*
X0218106Y0232865D03*
X0213906Y0230565D03*
X0213277Y0231165D03*
X0213177Y0231265D03*
X0213077Y0231365D03*
X0212977Y0231465D03*
X0212747Y0231665D03*
X0212647Y0231765D03*
X0212547Y0231865D03*
X0212406Y0231965D03*
X0212306Y0232065D03*
X0212077Y0232265D03*
X0216606Y0227565D03*
X0216847Y0227265D03*
X0217077Y0226965D03*
X0217147Y0226865D03*
X0217206Y0226765D03*
X0217377Y0226565D03*
X0217447Y0226465D03*
X0217506Y0226365D03*
X0217577Y0226265D03*
X0217647Y0226165D03*
X0217706Y0226065D03*
X0217777Y0225965D03*
X0217847Y0225865D03*
X0218177Y0225365D03*
X0204647Y0248765D03*
X0204577Y0248865D03*
X0191547Y0248665D03*
X0191477Y0248565D03*
D216*
X0204527Y0248965D03*
X0211027Y0233165D03*
X0211627Y0232665D03*
X0211727Y0232565D03*
X0218227Y0233065D03*
X0218427Y0233365D03*
X0217927Y0225765D03*
X0218127Y0225465D03*
X0218227Y0225265D03*
X0218427Y0224965D03*
X0211727Y0225765D03*
X0211127Y0225265D03*
X0211027Y0225165D03*
X0210527Y0224765D03*
X0198127Y0222665D03*
X0204627Y0209565D03*
X0185327Y0225065D03*
X0184727Y0225565D03*
X0184627Y0225665D03*
X0183927Y0226265D03*
X0184027Y0232165D03*
X0184727Y0232765D03*
X0184827Y0232865D03*
X0178127Y0232865D03*
X0177927Y0233165D03*
X0178227Y0225665D03*
X0177927Y0225165D03*
D217*
X0179327Y0227198D03*
X0179427Y0227331D03*
X0179727Y0227698D03*
X0179827Y0227831D03*
X0179927Y0230398D03*
X0179727Y0230631D03*
X0193927Y0224298D03*
X0191527Y0209698D03*
X0204727Y0209731D03*
X0204827Y0209931D03*
X0213027Y0226931D03*
X0213527Y0227398D03*
X0213627Y0227498D03*
X0213727Y0227598D03*
X0213827Y0227698D03*
X0213927Y0227798D03*
X0214027Y0227898D03*
X0214127Y0227998D03*
X0216227Y0228031D03*
X0216427Y0227798D03*
X0216627Y0227531D03*
X0216827Y0227298D03*
X0217027Y0227031D03*
X0217127Y0226898D03*
X0216227Y0230298D03*
X0216327Y0230431D03*
X0216427Y0230531D03*
X0216627Y0230798D03*
X0216727Y0230931D03*
X0217527Y0231998D03*
X0214127Y0230331D03*
X0214027Y0230431D03*
X0213827Y0230631D03*
X0213727Y0230731D03*
X0213627Y0230831D03*
X0213527Y0230931D03*
X0213427Y0231031D03*
X0213327Y0231131D03*
X0204827Y0248431D03*
X0204727Y0248598D03*
X0191427Y0248498D03*
D218*
X0204691Y0248665D03*
X0204762Y0248565D03*
X0204791Y0248465D03*
X0212862Y0231565D03*
X0213391Y0231065D03*
X0213491Y0230965D03*
X0213591Y0230865D03*
X0213691Y0230765D03*
X0213791Y0230665D03*
X0213991Y0230465D03*
X0214091Y0230365D03*
X0214191Y0230265D03*
X0216191Y0230265D03*
X0216362Y0230465D03*
X0216591Y0230765D03*
X0216762Y0230965D03*
X0216991Y0231265D03*
X0217062Y0231365D03*
X0217362Y0231765D03*
X0216191Y0228065D03*
X0216291Y0227965D03*
X0216362Y0227865D03*
X0216462Y0227765D03*
X0216691Y0227465D03*
X0216762Y0227365D03*
X0216991Y0227065D03*
X0217291Y0226665D03*
X0214191Y0228065D03*
X0214091Y0227965D03*
X0213991Y0227865D03*
X0213891Y0227765D03*
X0213791Y0227665D03*
X0213691Y0227565D03*
X0213591Y0227465D03*
X0213491Y0227365D03*
X0213062Y0226965D03*
X0212962Y0226865D03*
X0204791Y0209865D03*
X0191491Y0209765D03*
X0179462Y0227365D03*
X0179691Y0227665D03*
X0179862Y0227865D03*
X0179862Y0230465D03*
X0179462Y0230965D03*
X0179162Y0231365D03*
D219*
X0179262Y0231231D03*
X0179362Y0231098D03*
X0179491Y0230931D03*
X0179591Y0230798D03*
X0179762Y0230598D03*
X0179891Y0230431D03*
X0179991Y0230298D03*
X0179062Y0231498D03*
X0179991Y0228031D03*
X0179962Y0227998D03*
X0179791Y0227798D03*
X0179662Y0227631D03*
X0179562Y0227498D03*
X0182062Y0228031D03*
X0182091Y0227998D03*
X0182162Y0227931D03*
X0182191Y0227898D03*
X0182262Y0227831D03*
X0182291Y0227798D03*
X0182362Y0227731D03*
X0182391Y0227698D03*
X0182462Y0227631D03*
X0182562Y0230798D03*
X0182591Y0230831D03*
X0182662Y0230898D03*
X0182691Y0230931D03*
X0182762Y0230998D03*
X0182791Y0231031D03*
X0191391Y0248398D03*
X0191462Y0248531D03*
X0191491Y0248598D03*
X0204762Y0248531D03*
X0204791Y0248498D03*
X0212891Y0231531D03*
X0213362Y0231098D03*
X0213462Y0230998D03*
X0213562Y0230898D03*
X0213662Y0230798D03*
X0213762Y0230698D03*
X0213862Y0230598D03*
X0214062Y0230398D03*
X0214162Y0230298D03*
X0216262Y0230331D03*
X0216291Y0230398D03*
X0216391Y0230498D03*
X0216462Y0230598D03*
X0216491Y0230631D03*
X0216562Y0230698D03*
X0216662Y0230831D03*
X0216791Y0230998D03*
X0216862Y0231098D03*
X0216891Y0231131D03*
X0216962Y0231231D03*
X0217091Y0231398D03*
X0217162Y0231498D03*
X0217191Y0231531D03*
X0217262Y0231631D03*
X0216262Y0227998D03*
X0216391Y0227831D03*
X0216491Y0227698D03*
X0216562Y0227631D03*
X0216591Y0227598D03*
X0216662Y0227498D03*
X0216791Y0227331D03*
X0216891Y0227198D03*
X0217091Y0226931D03*
X0217191Y0226798D03*
X0217391Y0226531D03*
X0214162Y0228031D03*
X0214062Y0227931D03*
X0213962Y0227831D03*
X0213862Y0227731D03*
X0213762Y0227631D03*
X0213662Y0227531D03*
X0213562Y0227431D03*
X0213462Y0227331D03*
X0212991Y0226898D03*
X0202291Y0224298D03*
X0204762Y0209831D03*
X0204762Y0209798D03*
X0191462Y0209798D03*
X0191462Y0209831D03*
X0191391Y0209931D03*
X0191362Y0209998D03*
D220*
X0191427Y0209865D03*
X0179227Y0227065D03*
X0179527Y0227465D03*
X0179927Y0227965D03*
X0180027Y0228065D03*
X0182027Y0228065D03*
X0182127Y0227965D03*
X0182227Y0227865D03*
X0182327Y0227765D03*
X0182427Y0227665D03*
X0182527Y0230765D03*
X0182627Y0230865D03*
X0182727Y0230965D03*
X0182827Y0231065D03*
X0179627Y0230765D03*
X0191427Y0248465D03*
X0198127Y0235765D03*
X0216527Y0230665D03*
X0216527Y0227665D03*
X0216927Y0227165D03*
D221*
X0204941Y0210131D03*
X0204912Y0210098D03*
X0204812Y0209898D03*
X0198112Y0222531D03*
X0198112Y0235798D03*
X0198112Y0235831D03*
X0191241Y0248131D03*
X0191312Y0248231D03*
X0191341Y0248298D03*
X0191341Y0248331D03*
X0191412Y0248431D03*
X0204841Y0248398D03*
X0204941Y0248198D03*
X0191312Y0210098D03*
X0191341Y0210031D03*
X0191412Y0209898D03*
D222*
X0191377Y0209965D03*
X0191277Y0210165D03*
X0191377Y0248365D03*
D223*
X0191312Y0248265D03*
X0198112Y0255365D03*
X0204841Y0248365D03*
X0204912Y0248265D03*
X0202312Y0234065D03*
X0193912Y0234065D03*
X0198112Y0222565D03*
X0204912Y0210065D03*
X0204841Y0209965D03*
D224*
X0204877Y0209998D03*
X0204877Y0210031D03*
X0204977Y0210198D03*
X0204977Y0248131D03*
X0204877Y0248298D03*
X0204877Y0248331D03*
X0191277Y0248198D03*
D225*
X0191256Y0248165D03*
X0191227Y0248065D03*
X0191156Y0247965D03*
X0204956Y0248165D03*
X0205027Y0248065D03*
X0205056Y0247965D03*
X0205056Y0210365D03*
X0204997Y0210265D03*
X0204956Y0210165D03*
X0191327Y0210065D03*
X0191227Y0210265D03*
X0191156Y0210365D03*
D226*
X0191156Y0210398D03*
X0191197Y0210331D03*
X0191197Y0210298D03*
X0191227Y0210231D03*
X0191256Y0210198D03*
X0191297Y0210131D03*
X0198127Y0222498D03*
X0205097Y0210431D03*
X0205027Y0210298D03*
X0204997Y0210231D03*
X0205027Y0248031D03*
X0204997Y0248098D03*
X0204927Y0248231D03*
X0191227Y0248098D03*
X0191197Y0248031D03*
X0191127Y0247898D03*
D227*
X0191141Y0247931D03*
X0191112Y0247831D03*
X0191041Y0247731D03*
X0183212Y0245531D03*
X0193912Y0234098D03*
X0198112Y0235898D03*
X0202312Y0234098D03*
X0198112Y0222431D03*
X0191041Y0210631D03*
X0191041Y0210598D03*
X0191112Y0210498D03*
X0191141Y0210431D03*
X0205041Y0210331D03*
X0205112Y0210498D03*
X0205141Y0210531D03*
X0205141Y0247798D03*
X0205141Y0247831D03*
X0205112Y0247898D03*
X0205041Y0247998D03*
D228*
X0205077Y0247931D03*
X0205177Y0247731D03*
X0191177Y0247998D03*
X0191077Y0247798D03*
X0191077Y0210531D03*
X0205077Y0210398D03*
X0205177Y0210598D03*
D229*
X0205141Y0210565D03*
X0205112Y0210465D03*
X0205212Y0210665D03*
X0198112Y0222465D03*
X0202312Y0224265D03*
X0193912Y0224265D03*
X0198112Y0235865D03*
X0205212Y0247665D03*
X0205112Y0247865D03*
X0191112Y0247865D03*
X0191012Y0247665D03*
X0191112Y0210465D03*
D230*
X0191077Y0210565D03*
D231*
X0190991Y0210698D03*
X0190991Y0210731D03*
X0190962Y0210798D03*
X0190891Y0210931D03*
X0190862Y0210998D03*
X0205191Y0210631D03*
X0205262Y0210798D03*
X0205291Y0210831D03*
X0205291Y0247498D03*
X0205262Y0247598D03*
X0205191Y0247698D03*
X0190991Y0247631D03*
X0190991Y0247598D03*
X0190962Y0247531D03*
X0190891Y0247431D03*
D232*
X0190927Y0247465D03*
X0190927Y0210865D03*
X0191027Y0210665D03*
D233*
X0190927Y0210831D03*
X0205227Y0210731D03*
X0205227Y0210698D03*
X0205327Y0210898D03*
X0205327Y0210931D03*
X0198127Y0235931D03*
X0205327Y0247431D03*
X0205227Y0247631D03*
X0191027Y0247698D03*
X0190927Y0247498D03*
D234*
X0190962Y0247565D03*
X0191062Y0247765D03*
X0205162Y0247765D03*
X0205262Y0247565D03*
X0205362Y0247365D03*
X0205291Y0210865D03*
X0205262Y0210765D03*
X0190962Y0210765D03*
D235*
X0190906Y0210898D03*
X0190847Y0211031D03*
X0190806Y0211098D03*
X0190806Y0211131D03*
X0190777Y0211198D03*
X0190706Y0211331D03*
X0193906Y0224231D03*
X0198106Y0222398D03*
X0202306Y0224231D03*
X0193906Y0234131D03*
X0198106Y0235998D03*
X0205506Y0247031D03*
X0205477Y0247098D03*
X0205447Y0247198D03*
X0205406Y0247231D03*
X0205377Y0247298D03*
X0205377Y0247331D03*
X0205347Y0247398D03*
X0205277Y0247531D03*
X0190877Y0247398D03*
X0190847Y0247331D03*
X0190847Y0247298D03*
X0190806Y0247231D03*
X0190747Y0247098D03*
X0205477Y0211231D03*
X0205406Y0211098D03*
X0205377Y0211031D03*
X0205377Y0210998D03*
D236*
X0205347Y0210965D03*
X0205406Y0211065D03*
X0205447Y0211165D03*
X0198106Y0222365D03*
X0190747Y0211265D03*
X0190777Y0211165D03*
X0190847Y0211065D03*
X0190877Y0210965D03*
X0198106Y0235965D03*
X0190777Y0247165D03*
X0190806Y0247265D03*
X0190877Y0247365D03*
X0205306Y0247465D03*
X0205406Y0247265D03*
X0205447Y0247165D03*
D237*
X0205527Y0246998D03*
X0202327Y0234131D03*
X0198127Y0222331D03*
X0190627Y0211531D03*
X0190627Y0211498D03*
X0190727Y0211298D03*
X0205427Y0211131D03*
X0205527Y0211331D03*
X0190627Y0246831D03*
X0190727Y0247031D03*
D238*
X0190691Y0246998D03*
X0190662Y0246931D03*
X0190662Y0246898D03*
X0190762Y0247131D03*
X0190791Y0247198D03*
X0205462Y0247131D03*
X0205562Y0246931D03*
X0205562Y0246898D03*
X0205591Y0246831D03*
X0205591Y0211498D03*
X0205562Y0211431D03*
X0205562Y0211398D03*
X0205491Y0211298D03*
X0205462Y0211198D03*
X0190762Y0211231D03*
X0190662Y0211431D03*
X0190591Y0211598D03*
D239*
X0190562Y0211665D03*
X0190662Y0211465D03*
X0190691Y0211365D03*
X0205491Y0211265D03*
X0205591Y0246865D03*
X0205491Y0247065D03*
X0190691Y0246965D03*
X0190591Y0246765D03*
D240*
X0190727Y0247065D03*
X0205527Y0246965D03*
X0205627Y0246765D03*
X0205627Y0211565D03*
X0205527Y0211365D03*
D241*
X0205677Y0211698D03*
X0205777Y0211931D03*
X0190677Y0211398D03*
X0190577Y0211631D03*
X0190477Y0246498D03*
X0190577Y0246698D03*
X0190577Y0246731D03*
X0205677Y0246631D03*
D242*
X0205677Y0246665D03*
X0205677Y0211665D03*
X0205577Y0211465D03*
X0190477Y0211865D03*
D243*
X0190512Y0211798D03*
X0190541Y0211731D03*
X0190541Y0211698D03*
X0190441Y0211931D03*
X0193912Y0224198D03*
X0198112Y0222298D03*
X0202312Y0224198D03*
X0205741Y0211831D03*
X0205641Y0211631D03*
X0205641Y0211598D03*
X0205612Y0211531D03*
X0198112Y0236031D03*
X0190441Y0246398D03*
X0190541Y0246631D03*
X0190612Y0246798D03*
X0205612Y0246798D03*
X0205641Y0246731D03*
X0205641Y0246698D03*
X0205712Y0246598D03*
X0205741Y0246498D03*
X0213012Y0245531D03*
D244*
X0205897Y0246131D03*
X0205856Y0246198D03*
X0205856Y0246231D03*
X0205827Y0246298D03*
X0205827Y0246331D03*
X0205797Y0246398D03*
X0205756Y0246431D03*
X0205727Y0246531D03*
X0198127Y0236098D03*
X0190297Y0246031D03*
X0190327Y0246131D03*
X0190356Y0246198D03*
X0190356Y0246231D03*
X0190397Y0246298D03*
X0190427Y0246331D03*
X0190456Y0246431D03*
X0190497Y0246531D03*
X0190527Y0246598D03*
X0190297Y0212298D03*
X0190327Y0212231D03*
X0190356Y0212131D03*
X0190397Y0212031D03*
X0190427Y0211998D03*
X0190456Y0211898D03*
X0190497Y0211831D03*
X0205697Y0211731D03*
X0205727Y0211798D03*
X0205756Y0211898D03*
X0205797Y0211998D03*
X0205827Y0212031D03*
X0205856Y0212098D03*
X0205856Y0212131D03*
X0205897Y0212198D03*
X0205927Y0212298D03*
D245*
X0205956Y0212365D03*
X0205827Y0212065D03*
X0205797Y0211965D03*
X0205756Y0211865D03*
X0190427Y0211965D03*
X0190397Y0212065D03*
X0190356Y0212165D03*
X0202327Y0234165D03*
X0205927Y0246065D03*
X0205797Y0246365D03*
X0205756Y0246465D03*
X0190456Y0246465D03*
X0190427Y0246365D03*
X0190397Y0246265D03*
D246*
X0190277Y0245998D03*
X0190177Y0245731D03*
X0205977Y0245898D03*
X0205977Y0245931D03*
X0205977Y0212431D03*
X0205977Y0212398D03*
X0190377Y0212098D03*
X0190277Y0212331D03*
X0190177Y0212598D03*
D247*
X0190277Y0212365D03*
X0205877Y0212165D03*
X0206077Y0212665D03*
X0206077Y0245665D03*
X0205977Y0245965D03*
X0205877Y0246165D03*
X0190277Y0245965D03*
X0190177Y0245765D03*
D248*
X0190212Y0245831D03*
X0190241Y0245898D03*
X0190241Y0245931D03*
X0190312Y0246098D03*
X0193912Y0234198D03*
X0198112Y0236131D03*
X0206012Y0245831D03*
X0205941Y0245998D03*
X0205941Y0246031D03*
X0205912Y0246098D03*
X0198112Y0222231D03*
X0198112Y0222198D03*
X0190141Y0212698D03*
X0190212Y0212531D03*
X0190212Y0212498D03*
X0190241Y0212431D03*
X0190241Y0212398D03*
X0190341Y0212198D03*
X0205912Y0212231D03*
X0205941Y0212331D03*
X0206012Y0212498D03*
X0206041Y0212598D03*
D249*
X0206041Y0212565D03*
X0206012Y0212465D03*
X0205912Y0212265D03*
X0202312Y0224165D03*
X0193912Y0224165D03*
X0190241Y0212465D03*
X0190312Y0212265D03*
X0198112Y0236165D03*
X0206041Y0245765D03*
X0206012Y0245865D03*
X0205841Y0246265D03*
X0190341Y0246165D03*
X0190312Y0246065D03*
X0190212Y0245865D03*
X0190141Y0245665D03*
D250*
X0190127Y0245631D03*
X0190127Y0245598D03*
X0190027Y0245331D03*
X0202327Y0234198D03*
X0206227Y0245298D03*
X0206127Y0245531D03*
X0206027Y0245798D03*
X0206127Y0212831D03*
X0206127Y0212798D03*
X0206027Y0212531D03*
X0190127Y0212731D03*
X0190027Y0212998D03*
D251*
X0189991Y0213065D03*
X0189962Y0213165D03*
X0190062Y0212865D03*
X0190162Y0212665D03*
X0190191Y0212565D03*
X0206162Y0212865D03*
X0206191Y0212965D03*
X0206262Y0213165D03*
X0206191Y0245365D03*
X0206162Y0245465D03*
X0190091Y0245565D03*
X0190062Y0245465D03*
X0189991Y0245265D03*
X0189962Y0245165D03*
D252*
X0190062Y0245431D03*
X0190091Y0245498D03*
X0190091Y0245531D03*
X0190162Y0245698D03*
X0190191Y0245798D03*
X0206062Y0245731D03*
X0206062Y0245698D03*
X0206091Y0245631D03*
X0206091Y0245598D03*
X0206162Y0245431D03*
X0206191Y0245398D03*
X0206262Y0245198D03*
X0206291Y0245098D03*
X0206191Y0212998D03*
X0206162Y0212898D03*
X0206091Y0212731D03*
X0206091Y0212698D03*
X0206062Y0212631D03*
X0190162Y0212631D03*
X0190091Y0212798D03*
X0190091Y0212831D03*
X0190062Y0212898D03*
X0190062Y0212931D03*
X0189991Y0213098D03*
D253*
X0190027Y0212965D03*
X0190127Y0212765D03*
X0189927Y0213265D03*
X0198127Y0222165D03*
X0206227Y0213065D03*
X0206127Y0212765D03*
X0206227Y0245265D03*
X0206127Y0245565D03*
X0190027Y0245365D03*
D254*
X0187447Y0229931D03*
X0187447Y0229898D03*
X0187447Y0229831D03*
X0187447Y0229798D03*
X0187447Y0228531D03*
X0187447Y0228498D03*
X0187447Y0228431D03*
X0187447Y0228398D03*
X0183206Y0212798D03*
X0208777Y0227998D03*
X0208777Y0228031D03*
X0208777Y0230298D03*
X0208777Y0230331D03*
X0213006Y0212798D03*
D255*
X0219377Y0216465D03*
X0219377Y0241865D03*
X0196277Y0241865D03*
X0183277Y0212865D03*
D256*
X0189027Y0221865D03*
X0196256Y0216465D03*
X0199956Y0216465D03*
X0212956Y0212865D03*
X0219297Y0216365D03*
X0219297Y0241965D03*
X0201827Y0252165D03*
X0189027Y0236465D03*
X0176927Y0241965D03*
D257*
X0177691Y0242731D03*
X0193962Y0242698D03*
X0183291Y0212898D03*
D258*
X0193927Y0215631D03*
X0212927Y0212898D03*
X0218527Y0242731D03*
D259*
X0203727Y0243131D03*
X0200727Y0227598D03*
X0183327Y0212931D03*
X0178327Y0215198D03*
D260*
X0189877Y0213431D03*
X0189877Y0213398D03*
X0189906Y0213331D03*
X0189906Y0213298D03*
X0189947Y0213231D03*
X0189947Y0213198D03*
X0189977Y0213131D03*
X0190006Y0213031D03*
X0193906Y0224131D03*
X0198106Y0222131D03*
X0202306Y0224131D03*
X0206347Y0213398D03*
X0206306Y0213331D03*
X0206306Y0213298D03*
X0206277Y0213231D03*
X0206277Y0213198D03*
X0206247Y0213131D03*
X0206247Y0213098D03*
X0206206Y0213031D03*
X0206177Y0212931D03*
X0198106Y0236198D03*
X0198106Y0236231D03*
X0206347Y0244931D03*
X0206306Y0245031D03*
X0206277Y0245131D03*
X0206247Y0245231D03*
X0206206Y0245331D03*
X0206147Y0245498D03*
X0190047Y0245398D03*
X0190006Y0245298D03*
X0189977Y0245231D03*
X0189977Y0245198D03*
X0189947Y0245131D03*
X0189947Y0245098D03*
X0189906Y0245031D03*
X0189906Y0244998D03*
X0189877Y0244931D03*
D261*
X0195491Y0227598D03*
X0212891Y0212931D03*
D262*
X0212856Y0212965D03*
X0201997Y0228165D03*
X0202027Y0230165D03*
X0194227Y0228165D03*
X0183356Y0212965D03*
D263*
X0183391Y0212998D03*
X0205262Y0214831D03*
X0216991Y0243531D03*
D264*
X0212827Y0212998D03*
X0179227Y0243531D03*
D265*
X0183427Y0213031D03*
D266*
X0183462Y0213065D03*
X0206191Y0214665D03*
X0212762Y0213065D03*
D267*
X0212747Y0213098D03*
X0183477Y0213098D03*
D268*
X0183527Y0213131D03*
D269*
X0212677Y0213165D03*
D270*
X0183577Y0213198D03*
D271*
X0212641Y0213198D03*
X0198112Y0253731D03*
D272*
X0183591Y0213231D03*
D273*
X0212627Y0213231D03*
D274*
X0183641Y0213265D03*
X0198112Y0253465D03*
D275*
X0206277Y0245165D03*
X0206306Y0245065D03*
X0206347Y0244965D03*
X0206377Y0244865D03*
X0189906Y0245065D03*
X0189877Y0244965D03*
X0206377Y0213465D03*
X0206347Y0213365D03*
X0206306Y0213265D03*
D276*
X0212577Y0213265D03*
D277*
X0212562Y0213298D03*
X0183662Y0213298D03*
D278*
X0183691Y0213331D03*
D279*
X0198127Y0226631D03*
X0198127Y0226698D03*
X0198127Y0231698D03*
X0212527Y0213331D03*
D280*
X0212497Y0213365D03*
X0198127Y0232165D03*
X0183727Y0213365D03*
D281*
X0189862Y0213465D03*
X0189891Y0213365D03*
D282*
X0183762Y0213398D03*
D283*
X0183791Y0213431D03*
D284*
X0193891Y0234231D03*
X0189862Y0244898D03*
X0206362Y0244898D03*
X0206362Y0213431D03*
D285*
X0212427Y0213431D03*
D286*
X0212397Y0213465D03*
X0183827Y0213465D03*
D287*
X0184612Y0213498D03*
X0211612Y0213498D03*
X0211641Y0244831D03*
D288*
X0184541Y0213531D03*
D289*
X0211677Y0213531D03*
X0211677Y0244798D03*
D290*
X0211706Y0213565D03*
X0184506Y0213565D03*
D291*
X0184456Y0213598D03*
X0184427Y0244731D03*
X0211797Y0244731D03*
D292*
X0211777Y0213598D03*
D293*
X0211812Y0213631D03*
X0184412Y0213631D03*
D294*
X0184362Y0213665D03*
X0211862Y0213665D03*
D295*
X0211912Y0213698D03*
X0184312Y0213698D03*
D296*
X0184277Y0213731D03*
D297*
X0211941Y0213731D03*
D298*
X0211977Y0213765D03*
X0184247Y0213765D03*
X0212006Y0244565D03*
D299*
X0184191Y0213798D03*
D300*
X0212041Y0213798D03*
X0212041Y0244531D03*
D301*
X0184141Y0213831D03*
D302*
X0212077Y0213831D03*
D303*
X0184177Y0213865D03*
D304*
X0212041Y0213865D03*
D305*
X0212012Y0213898D03*
X0184212Y0213898D03*
D306*
X0184256Y0213931D03*
D307*
X0211977Y0213931D03*
D308*
X0184277Y0213965D03*
D309*
X0211941Y0213965D03*
D310*
X0211912Y0213998D03*
X0184312Y0213998D03*
D311*
X0184341Y0214031D03*
D312*
X0211877Y0214031D03*
D313*
X0211862Y0214065D03*
X0184362Y0214065D03*
D314*
X0184406Y0214098D03*
X0211806Y0214098D03*
D315*
X0184427Y0214131D03*
D316*
X0211791Y0214131D03*
D317*
X0211762Y0214165D03*
X0184462Y0214165D03*
D318*
X0184497Y0214198D03*
X0211727Y0214198D03*
D319*
X0211712Y0214231D03*
X0184512Y0214231D03*
D320*
X0184562Y0214265D03*
X0211662Y0214265D03*
D321*
X0211647Y0214298D03*
X0184577Y0214298D03*
D322*
X0184612Y0214331D03*
X0211612Y0214331D03*
D323*
X0184641Y0214365D03*
D324*
X0211577Y0214365D03*
D325*
X0184677Y0214398D03*
D326*
X0211541Y0214398D03*
D327*
X0184706Y0214431D03*
D328*
X0211527Y0214431D03*
D329*
X0184727Y0214465D03*
D330*
X0211491Y0214465D03*
D331*
X0211456Y0214498D03*
X0184756Y0214498D03*
D332*
X0184812Y0214531D03*
X0211412Y0214531D03*
D333*
X0184827Y0214565D03*
D334*
X0211391Y0214565D03*
D335*
X0216012Y0214598D03*
X0180212Y0214598D03*
D336*
X0189477Y0214598D03*
D337*
X0179977Y0214631D03*
D338*
X0189797Y0214631D03*
D339*
X0206441Y0214631D03*
X0198112Y0254198D03*
D340*
X0189862Y0243698D03*
X0216262Y0214631D03*
D341*
X0190091Y0243665D03*
X0179791Y0214665D03*
D342*
X0190027Y0214665D03*
X0198127Y0216565D03*
D343*
X0216427Y0214665D03*
D344*
X0198127Y0254398D03*
X0183427Y0245298D03*
X0179627Y0214698D03*
D345*
X0190247Y0214698D03*
X0205977Y0214698D03*
X0198106Y0241731D03*
D346*
X0204591Y0243198D03*
X0179491Y0214731D03*
D347*
X0191641Y0243198D03*
X0190512Y0243598D03*
X0205712Y0243598D03*
X0216741Y0214731D03*
D348*
X0190677Y0243565D03*
X0179377Y0214765D03*
D349*
X0190627Y0214765D03*
D350*
X0205591Y0214765D03*
X0198091Y0241665D03*
D351*
X0191562Y0243265D03*
X0216862Y0214765D03*
D352*
X0216962Y0214798D03*
X0205362Y0243531D03*
X0190862Y0243531D03*
X0179262Y0214798D03*
D353*
X0190812Y0214798D03*
X0198112Y0241631D03*
X0204712Y0243298D03*
X0191512Y0243298D03*
D354*
X0212827Y0245331D03*
X0205427Y0214798D03*
X0198127Y0216698D03*
D355*
X0190977Y0214831D03*
X0191477Y0243331D03*
D356*
X0193791Y0229565D03*
X0193791Y0228765D03*
X0205062Y0243465D03*
X0217162Y0214865D03*
X0179062Y0214865D03*
D357*
X0191127Y0214865D03*
X0193827Y0228565D03*
X0193827Y0229765D03*
X0191427Y0243365D03*
D358*
X0202391Y0228565D03*
X0205091Y0214865D03*
X0204791Y0243365D03*
D359*
X0178977Y0214898D03*
D360*
X0191277Y0214898D03*
X0193777Y0228831D03*
X0193777Y0228898D03*
X0193777Y0228931D03*
X0193777Y0228998D03*
X0193777Y0229331D03*
X0193777Y0229398D03*
X0193777Y0229431D03*
X0193777Y0229498D03*
X0193777Y0229531D03*
X0191377Y0243398D03*
D361*
X0193756Y0229298D03*
X0193756Y0229231D03*
X0193756Y0229198D03*
X0193756Y0229131D03*
X0193756Y0229098D03*
X0193756Y0229031D03*
X0202456Y0229031D03*
X0202456Y0228998D03*
X0202456Y0229098D03*
X0202456Y0229131D03*
X0202456Y0229198D03*
X0202456Y0229231D03*
X0202456Y0229298D03*
X0202456Y0229331D03*
X0204856Y0214931D03*
X0204956Y0214898D03*
X0191356Y0214931D03*
D362*
X0198112Y0240531D03*
X0204912Y0243431D03*
X0191312Y0243431D03*
X0178941Y0243431D03*
X0217241Y0214898D03*
D363*
X0178891Y0214931D03*
X0178862Y0243398D03*
D364*
X0198127Y0216798D03*
X0217327Y0214931D03*
D365*
X0217412Y0214965D03*
X0198112Y0217765D03*
X0178812Y0214965D03*
D366*
X0191406Y0214965D03*
X0193806Y0228665D03*
X0193806Y0229665D03*
X0202406Y0229765D03*
X0202406Y0228665D03*
X0204806Y0214965D03*
X0191177Y0243465D03*
D367*
X0178727Y0214998D03*
X0217527Y0243331D03*
D368*
X0201862Y0228098D03*
X0194362Y0228098D03*
X0178691Y0243331D03*
X0217491Y0214998D03*
D369*
X0217556Y0215031D03*
X0178656Y0215031D03*
X0178627Y0243298D03*
D370*
X0198106Y0217898D03*
X0191506Y0215031D03*
D371*
X0204727Y0215031D03*
D372*
X0178591Y0215065D03*
X0178562Y0243265D03*
D373*
X0179341Y0243565D03*
X0191541Y0215065D03*
D374*
X0204677Y0215065D03*
X0204677Y0243265D03*
D375*
X0198106Y0216865D03*
X0217647Y0215065D03*
D376*
X0217712Y0215098D03*
X0198112Y0233798D03*
X0198112Y0254831D03*
X0178512Y0215098D03*
D377*
X0191627Y0215131D03*
X0204597Y0215131D03*
X0179456Y0243598D03*
D378*
X0217777Y0215131D03*
D379*
X0217847Y0215165D03*
X0198106Y0254865D03*
X0178377Y0243165D03*
X0178377Y0215165D03*
D380*
X0191662Y0215165D03*
X0204562Y0215165D03*
D381*
X0206927Y0215198D03*
X0206956Y0215298D03*
X0206997Y0215398D03*
X0202327Y0224098D03*
X0189227Y0215431D03*
X0189256Y0215331D03*
X0189256Y0215298D03*
X0189297Y0215231D03*
X0189297Y0215198D03*
X0189197Y0242798D03*
X0189227Y0242931D03*
X0189256Y0243031D03*
X0189297Y0243131D03*
X0206956Y0243031D03*
X0206997Y0242931D03*
D382*
X0198106Y0241431D03*
X0198106Y0240698D03*
X0198106Y0233831D03*
X0194606Y0230331D03*
X0192506Y0243131D03*
X0192477Y0215198D03*
X0203747Y0215198D03*
D383*
X0203641Y0215231D03*
X0198112Y0217631D03*
X0198112Y0224498D03*
X0217912Y0215198D03*
X0178312Y0243131D03*
D384*
X0192627Y0243098D03*
X0203597Y0243098D03*
X0217927Y0243131D03*
X0217956Y0215231D03*
X0192597Y0215231D03*
X0178256Y0215231D03*
D385*
X0189012Y0216198D03*
X0189041Y0216098D03*
X0189112Y0215831D03*
X0189112Y0215798D03*
X0189141Y0215731D03*
X0189141Y0215698D03*
X0189212Y0215531D03*
X0189212Y0215498D03*
X0189241Y0215398D03*
X0206941Y0215231D03*
X0207012Y0215431D03*
X0207012Y0215498D03*
X0207041Y0215531D03*
X0207041Y0215598D03*
X0207041Y0215631D03*
X0207112Y0215798D03*
X0207112Y0215831D03*
X0207141Y0215931D03*
X0207212Y0216198D03*
X0207241Y0242031D03*
X0207141Y0242398D03*
X0207141Y0242431D03*
X0207112Y0242498D03*
X0207112Y0242531D03*
X0207041Y0242731D03*
X0207041Y0242798D03*
X0207012Y0242831D03*
X0207012Y0242898D03*
X0206941Y0243098D03*
X0206941Y0243131D03*
X0189241Y0242998D03*
X0189212Y0242898D03*
X0189212Y0242831D03*
X0189141Y0242631D03*
X0189141Y0242598D03*
X0189112Y0242531D03*
X0189112Y0242498D03*
X0189012Y0242131D03*
D386*
X0178191Y0243065D03*
X0178191Y0215265D03*
D387*
X0189077Y0215965D03*
X0189177Y0215565D03*
X0189277Y0215265D03*
X0206977Y0215365D03*
X0207077Y0215665D03*
X0207177Y0216065D03*
X0207177Y0242265D03*
X0207077Y0242665D03*
X0206977Y0242965D03*
X0189277Y0243065D03*
X0189177Y0242765D03*
X0189077Y0242365D03*
D388*
X0193897Y0234265D03*
X0202327Y0234265D03*
X0206956Y0243065D03*
X0206956Y0215265D03*
D389*
X0218027Y0215265D03*
D390*
X0192827Y0215298D03*
D391*
X0203391Y0215298D03*
X0192862Y0243031D03*
D392*
X0198112Y0233898D03*
X0194841Y0230398D03*
X0203241Y0242998D03*
X0198112Y0254931D03*
X0192941Y0215331D03*
X0178112Y0215331D03*
D393*
X0200862Y0230698D03*
X0203291Y0215331D03*
X0218091Y0243031D03*
D394*
X0207177Y0242298D03*
X0207077Y0242598D03*
X0207077Y0242631D03*
X0207077Y0242698D03*
X0206977Y0242998D03*
X0189277Y0243098D03*
X0189177Y0242731D03*
X0189177Y0242698D03*
X0189077Y0242398D03*
X0189077Y0215998D03*
X0189077Y0215931D03*
X0189177Y0215631D03*
X0189177Y0215598D03*
X0206977Y0215331D03*
X0207077Y0215698D03*
X0207077Y0215731D03*
D395*
X0218127Y0215331D03*
X0201356Y0227931D03*
X0201397Y0230398D03*
X0218156Y0242998D03*
D396*
X0200912Y0230665D03*
X0195312Y0230665D03*
X0198112Y0241365D03*
X0178041Y0242965D03*
X0198112Y0217565D03*
X0178041Y0215365D03*
D397*
X0189041Y0216065D03*
X0189112Y0215865D03*
X0189141Y0215765D03*
X0189212Y0215465D03*
X0189241Y0215365D03*
X0207012Y0215465D03*
X0207041Y0215565D03*
X0207141Y0215965D03*
X0207212Y0242165D03*
X0207112Y0242565D03*
X0207041Y0242765D03*
X0207012Y0242865D03*
X0189241Y0242965D03*
X0189212Y0242865D03*
X0189141Y0242665D03*
X0189112Y0242465D03*
X0189041Y0242265D03*
D398*
X0193097Y0242965D03*
X0203127Y0242965D03*
X0200897Y0227665D03*
X0195356Y0227665D03*
X0198127Y0216965D03*
X0193056Y0215365D03*
D399*
X0203177Y0215365D03*
D400*
X0218177Y0215365D03*
D401*
X0201291Y0227898D03*
X0201191Y0227831D03*
X0201162Y0230531D03*
X0195191Y0230598D03*
X0195091Y0227798D03*
X0177991Y0215398D03*
D402*
X0194927Y0227898D03*
X0195227Y0227731D03*
X0195027Y0230498D03*
X0201127Y0227798D03*
X0203027Y0242931D03*
X0218227Y0215398D03*
D403*
X0218277Y0215431D03*
X0202947Y0215431D03*
X0193277Y0215431D03*
X0195047Y0227831D03*
X0195077Y0230531D03*
X0198106Y0233931D03*
X0201047Y0230598D03*
X0201206Y0230498D03*
X0198106Y0240798D03*
X0193306Y0242898D03*
X0202906Y0242898D03*
X0201106Y0252531D03*
X0218247Y0242931D03*
X0183306Y0245431D03*
X0177977Y0242931D03*
X0177947Y0215431D03*
D404*
X0177891Y0215465D03*
X0193391Y0215465D03*
X0202791Y0242865D03*
D405*
X0193427Y0242865D03*
X0202827Y0215465D03*
D406*
X0218341Y0215465D03*
X0218341Y0242865D03*
D407*
X0212912Y0245431D03*
X0198112Y0224398D03*
X0198112Y0217531D03*
X0198112Y0216998D03*
X0193512Y0215498D03*
X0202741Y0215498D03*
D408*
X0218377Y0215498D03*
X0202577Y0242798D03*
D409*
X0198112Y0241331D03*
X0198112Y0240831D03*
X0193641Y0242798D03*
X0193612Y0215531D03*
X0177812Y0215531D03*
D410*
X0195027Y0252498D03*
X0198127Y0254998D03*
X0218427Y0242798D03*
X0218427Y0215531D03*
D411*
X0177762Y0215565D03*
D412*
X0193712Y0215565D03*
X0202512Y0215565D03*
X0198112Y0233965D03*
D413*
X0202377Y0242731D03*
X0193847Y0242731D03*
X0198106Y0217498D03*
X0202306Y0215631D03*
X0202406Y0215598D03*
X0193806Y0215598D03*
X0177706Y0215598D03*
X0218506Y0215598D03*
D414*
X0218577Y0242698D03*
X0202277Y0242698D03*
X0177677Y0215631D03*
D415*
X0177627Y0215665D03*
X0177627Y0242665D03*
X0202156Y0242665D03*
X0218597Y0215665D03*
D416*
X0207362Y0216765D03*
X0207291Y0216465D03*
X0207262Y0216365D03*
X0207191Y0216165D03*
X0207091Y0215765D03*
X0193891Y0224065D03*
X0188791Y0217065D03*
X0188862Y0216765D03*
X0188891Y0216665D03*
X0188962Y0216465D03*
X0188962Y0216365D03*
X0188991Y0216265D03*
X0189162Y0215665D03*
X0188791Y0241265D03*
X0188862Y0241565D03*
X0188891Y0241665D03*
X0188962Y0241965D03*
X0188991Y0242065D03*
X0207162Y0242365D03*
X0207262Y0241965D03*
X0207291Y0241865D03*
X0207362Y0241565D03*
X0207391Y0241465D03*
X0207462Y0241165D03*
D417*
X0198112Y0240865D03*
X0194041Y0242665D03*
X0194941Y0252465D03*
X0194012Y0215665D03*
X0202212Y0215665D03*
D418*
X0177577Y0215698D03*
X0177577Y0242631D03*
D419*
X0194862Y0252431D03*
X0201362Y0252431D03*
X0201962Y0242598D03*
X0218691Y0242598D03*
X0177562Y0215731D03*
D420*
X0194227Y0215731D03*
X0177527Y0242598D03*
D421*
X0177506Y0215765D03*
X0218706Y0215765D03*
D422*
X0194327Y0215765D03*
D423*
X0201891Y0215765D03*
X0201862Y0242565D03*
X0194362Y0242565D03*
D424*
X0198112Y0234031D03*
X0198112Y0217431D03*
X0201512Y0215898D03*
X0215212Y0228098D03*
X0218812Y0242498D03*
X0181012Y0228098D03*
X0177441Y0215831D03*
X0177412Y0242498D03*
D425*
X0201677Y0242498D03*
X0218777Y0215831D03*
D426*
X0201612Y0215865D03*
X0194612Y0215865D03*
X0198112Y0241265D03*
X0194641Y0242465D03*
X0198112Y0255065D03*
D427*
X0189127Y0242565D03*
X0189027Y0242165D03*
X0188927Y0241865D03*
X0188927Y0241765D03*
X0202327Y0224065D03*
X0207327Y0216665D03*
X0207227Y0216265D03*
X0207127Y0215865D03*
X0189027Y0216165D03*
X0188927Y0216565D03*
X0207327Y0241665D03*
X0207227Y0242065D03*
X0207127Y0242465D03*
D428*
X0215197Y0230231D03*
X0194727Y0215898D03*
X0181027Y0230231D03*
X0177356Y0215898D03*
D429*
X0188862Y0216798D03*
X0188862Y0216831D03*
X0188891Y0216698D03*
X0188891Y0216631D03*
X0188962Y0216431D03*
X0188962Y0216398D03*
X0188991Y0216331D03*
X0188991Y0216298D03*
X0188991Y0216231D03*
X0189062Y0216031D03*
X0189091Y0215898D03*
X0193891Y0234298D03*
X0188762Y0241131D03*
X0188862Y0241531D03*
X0188891Y0241698D03*
X0188962Y0241898D03*
X0188962Y0241931D03*
X0188962Y0241998D03*
X0188991Y0242031D03*
X0188991Y0242098D03*
X0189062Y0242298D03*
X0189062Y0242331D03*
X0189091Y0242431D03*
X0207162Y0242331D03*
X0207191Y0242231D03*
X0207191Y0242198D03*
X0207262Y0241998D03*
X0207262Y0241931D03*
X0207291Y0241831D03*
X0207291Y0241798D03*
X0207362Y0241598D03*
X0207391Y0241431D03*
X0207391Y0216931D03*
X0207391Y0216898D03*
X0207362Y0216798D03*
X0207362Y0216731D03*
X0207291Y0216531D03*
X0207291Y0216498D03*
X0207262Y0216431D03*
X0207262Y0216398D03*
X0207262Y0216331D03*
X0207191Y0216131D03*
X0207191Y0216098D03*
X0207162Y0216031D03*
X0207162Y0215998D03*
D430*
X0207127Y0215898D03*
X0207227Y0216231D03*
X0207227Y0216298D03*
X0207327Y0216598D03*
X0207327Y0216631D03*
X0207427Y0217031D03*
X0189027Y0216131D03*
X0188927Y0216498D03*
X0188927Y0216531D03*
X0188827Y0216931D03*
X0188827Y0241398D03*
X0188827Y0241431D03*
X0188927Y0241798D03*
X0188927Y0241831D03*
X0189027Y0242198D03*
X0189027Y0242231D03*
X0207227Y0242131D03*
X0207227Y0242098D03*
X0207327Y0241731D03*
X0207327Y0241698D03*
X0207427Y0241298D03*
D431*
X0201477Y0242431D03*
X0201377Y0242398D03*
X0218877Y0242431D03*
X0218877Y0215898D03*
D432*
X0215212Y0228131D03*
X0201412Y0215931D03*
X0194812Y0215931D03*
X0198112Y0224298D03*
X0194841Y0242398D03*
X0194741Y0242431D03*
X0181012Y0228131D03*
X0177341Y0242431D03*
D433*
X0201291Y0242365D03*
X0194891Y0215965D03*
X0177291Y0215965D03*
D434*
X0195006Y0215998D03*
X0198106Y0217098D03*
X0198106Y0217398D03*
X0201147Y0216031D03*
X0198106Y0240931D03*
X0194677Y0252331D03*
X0201547Y0252331D03*
X0218906Y0242398D03*
X0218977Y0242331D03*
X0177247Y0242331D03*
D435*
X0177191Y0216065D03*
X0195191Y0216065D03*
D436*
X0201027Y0216065D03*
D437*
X0200856Y0216131D03*
X0195356Y0216131D03*
X0177156Y0216098D03*
X0177127Y0216131D03*
X0177127Y0242198D03*
X0177156Y0242231D03*
X0195397Y0242198D03*
X0200827Y0242198D03*
X0219056Y0242231D03*
X0219097Y0216131D03*
X0219056Y0216098D03*
D438*
X0195277Y0216098D03*
D439*
X0200941Y0216098D03*
X0215212Y0228198D03*
X0215212Y0230131D03*
X0219012Y0242298D03*
X0200912Y0242231D03*
X0198112Y0241231D03*
X0195312Y0242231D03*
X0194612Y0252298D03*
X0198112Y0255098D03*
X0201612Y0252298D03*
X0181012Y0230131D03*
X0181012Y0228198D03*
D440*
X0177112Y0216165D03*
X0198112Y0217365D03*
X0198112Y0224265D03*
X0198112Y0240965D03*
X0200741Y0242165D03*
X0212941Y0245465D03*
X0219112Y0216165D03*
D441*
X0200677Y0216198D03*
X0195577Y0242131D03*
D442*
X0200477Y0242065D03*
X0215206Y0230065D03*
X0215206Y0228265D03*
X0219206Y0216265D03*
X0181006Y0228265D03*
X0181006Y0230065D03*
X0177006Y0242065D03*
X0177006Y0216265D03*
D443*
X0195727Y0216265D03*
X0219127Y0242165D03*
D444*
X0195762Y0242065D03*
X0177091Y0242165D03*
X0200491Y0216265D03*
D445*
X0195891Y0216331D03*
X0180991Y0228298D03*
X0176962Y0216331D03*
X0176991Y0216298D03*
X0176991Y0242031D03*
X0194462Y0252198D03*
X0200291Y0241998D03*
X0219262Y0216331D03*
D446*
X0219227Y0216298D03*
X0200327Y0216331D03*
X0195927Y0241998D03*
X0198127Y0255131D03*
D447*
X0194412Y0252165D03*
X0196012Y0241965D03*
X0200212Y0241965D03*
X0207212Y0236465D03*
X0207212Y0221865D03*
X0176941Y0216365D03*
D448*
X0176912Y0216398D03*
X0181012Y0230031D03*
X0176941Y0241998D03*
X0196112Y0241931D03*
X0198112Y0240998D03*
X0200112Y0241931D03*
X0215212Y0230031D03*
X0215212Y0228298D03*
X0219241Y0242031D03*
X0198112Y0217331D03*
X0200141Y0216398D03*
D449*
X0198112Y0217165D03*
X0181012Y0228365D03*
X0176841Y0216465D03*
X0176841Y0241865D03*
X0199941Y0241865D03*
D450*
X0196377Y0241831D03*
X0201877Y0252131D03*
X0176877Y0241898D03*
X0199877Y0216498D03*
D451*
X0207262Y0221931D03*
X0219391Y0216498D03*
X0207262Y0236398D03*
X0199862Y0241831D03*
X0194291Y0252098D03*
X0188991Y0236431D03*
X0188962Y0236398D03*
X0176791Y0241798D03*
X0188962Y0221931D03*
X0176791Y0216531D03*
X0219391Y0241831D03*
D452*
X0198127Y0254231D03*
X0198127Y0216531D03*
D453*
X0207306Y0216565D03*
X0207377Y0216865D03*
X0207406Y0216965D03*
X0207447Y0217065D03*
X0207447Y0217165D03*
X0207477Y0217265D03*
X0207506Y0217365D03*
X0207547Y0217565D03*
X0207577Y0217665D03*
X0207606Y0217865D03*
X0207647Y0217965D03*
X0188847Y0216865D03*
X0188806Y0216965D03*
X0188777Y0217165D03*
X0188747Y0217265D03*
X0188706Y0217365D03*
X0188706Y0217465D03*
X0188677Y0217565D03*
X0188606Y0217865D03*
X0188547Y0218165D03*
X0188547Y0240165D03*
X0188606Y0240465D03*
X0188647Y0240665D03*
X0188677Y0240765D03*
X0188706Y0240865D03*
X0188706Y0240965D03*
X0188747Y0241065D03*
X0188777Y0241165D03*
X0188806Y0241365D03*
X0188847Y0241465D03*
X0207306Y0241765D03*
X0207406Y0241365D03*
X0207447Y0241265D03*
X0207477Y0241065D03*
X0207506Y0240965D03*
X0207547Y0240765D03*
X0207577Y0240665D03*
X0207647Y0240365D03*
D454*
X0207606Y0240498D03*
X0207606Y0240531D03*
X0207577Y0240631D03*
X0207577Y0240698D03*
X0207547Y0240798D03*
X0207547Y0240831D03*
X0207506Y0240898D03*
X0207506Y0240931D03*
X0207506Y0240998D03*
X0207477Y0241031D03*
X0207477Y0241098D03*
X0207477Y0241131D03*
X0207447Y0241198D03*
X0207447Y0241231D03*
X0207406Y0241331D03*
X0207406Y0241398D03*
X0207377Y0241498D03*
X0207377Y0241531D03*
X0207347Y0241631D03*
X0207277Y0241898D03*
X0207677Y0240198D03*
X0202347Y0234298D03*
X0188577Y0240331D03*
X0188606Y0240498D03*
X0188647Y0240598D03*
X0188647Y0240631D03*
X0188677Y0240731D03*
X0188677Y0240798D03*
X0188677Y0240831D03*
X0188706Y0240898D03*
X0188706Y0240931D03*
X0188747Y0240998D03*
X0188747Y0241031D03*
X0188747Y0241098D03*
X0188777Y0241198D03*
X0188777Y0241231D03*
X0188806Y0241298D03*
X0188806Y0241331D03*
X0188847Y0241498D03*
X0188877Y0241598D03*
X0188877Y0241631D03*
X0188906Y0241731D03*
X0188577Y0218031D03*
X0188577Y0217998D03*
X0188606Y0217831D03*
X0188647Y0217731D03*
X0188647Y0217698D03*
X0188677Y0217598D03*
X0188677Y0217531D03*
X0188706Y0217431D03*
X0188706Y0217398D03*
X0188747Y0217331D03*
X0188747Y0217298D03*
X0188747Y0217231D03*
X0188777Y0217198D03*
X0188777Y0217131D03*
X0188777Y0217098D03*
X0188806Y0217031D03*
X0188806Y0216998D03*
X0188847Y0216898D03*
X0188877Y0216731D03*
X0188906Y0216598D03*
X0207347Y0216698D03*
X0207377Y0216831D03*
X0207406Y0216998D03*
X0207447Y0217098D03*
X0207447Y0217131D03*
X0207477Y0217198D03*
X0207477Y0217231D03*
X0207477Y0217298D03*
X0207506Y0217331D03*
X0207506Y0217398D03*
X0207506Y0217431D03*
X0207547Y0217498D03*
X0207547Y0217531D03*
X0207577Y0217698D03*
X0207606Y0217798D03*
X0207606Y0217831D03*
X0207647Y0217998D03*
X0207677Y0218131D03*
X0207706Y0218298D03*
D455*
X0198112Y0216598D03*
D456*
X0198106Y0217298D03*
X0198106Y0234131D03*
X0198106Y0241031D03*
X0181006Y0228398D03*
X0176747Y0216631D03*
X0176747Y0241731D03*
X0219477Y0241731D03*
D457*
X0216641Y0243631D03*
X0198112Y0254431D03*
X0198112Y0216631D03*
D458*
X0188927Y0236365D03*
X0176727Y0216665D03*
D459*
X0198127Y0216665D03*
D460*
X0209641Y0224565D03*
X0209641Y0233765D03*
X0219512Y0241665D03*
X0219512Y0216665D03*
X0176712Y0241665D03*
X0176641Y0241565D03*
D461*
X0176677Y0241598D03*
X0176677Y0241631D03*
X0194177Y0251998D03*
X0176677Y0216731D03*
D462*
X0198112Y0216731D03*
X0204741Y0243331D03*
X0198112Y0254598D03*
X0191012Y0243498D03*
D463*
X0198112Y0254665D03*
X0179041Y0243465D03*
X0198112Y0216765D03*
X0202441Y0228865D03*
X0202441Y0229465D03*
D464*
X0198127Y0224198D03*
X0198127Y0217198D03*
X0188897Y0222031D03*
X0186597Y0224531D03*
X0180997Y0229898D03*
X0186597Y0233798D03*
X0176627Y0241531D03*
X0176627Y0216798D03*
X0202056Y0251998D03*
X0209627Y0233798D03*
X0215227Y0229898D03*
X0215227Y0228431D03*
X0209627Y0224531D03*
X0219597Y0216798D03*
X0219597Y0241531D03*
X0219556Y0241598D03*
D465*
X0201906Y0230231D03*
X0194306Y0230231D03*
X0198106Y0240598D03*
X0198106Y0216831D03*
D466*
X0188862Y0222065D03*
X0180991Y0229865D03*
X0176591Y0216865D03*
X0207362Y0222065D03*
X0209591Y0233865D03*
X0219691Y0241365D03*
D467*
X0215227Y0229865D03*
X0215227Y0228465D03*
X0219627Y0216865D03*
X0186627Y0233865D03*
X0176527Y0241365D03*
D468*
X0188877Y0236298D03*
X0194077Y0251931D03*
X0176577Y0216898D03*
D469*
X0178427Y0243198D03*
X0198127Y0216898D03*
X0201627Y0230331D03*
D470*
X0201512Y0227998D03*
X0195441Y0230731D03*
X0194712Y0227998D03*
X0198112Y0216931D03*
X0198112Y0240731D03*
X0198112Y0254898D03*
X0178241Y0243098D03*
D471*
X0188827Y0236231D03*
X0215227Y0229831D03*
X0215227Y0228498D03*
X0219727Y0217031D03*
X0219727Y0241298D03*
D472*
X0219762Y0241265D03*
X0176491Y0217065D03*
D473*
X0181027Y0230265D03*
X0198127Y0217065D03*
X0218727Y0242565D03*
D474*
X0202227Y0251865D03*
X0219727Y0217065D03*
D475*
X0219841Y0217265D03*
X0215241Y0228565D03*
X0219841Y0241065D03*
X0198112Y0224165D03*
X0176341Y0217365D03*
X0176341Y0240965D03*
D476*
X0176377Y0217298D03*
X0202377Y0251731D03*
X0219877Y0240998D03*
X0209477Y0224331D03*
X0207477Y0222198D03*
X0219877Y0217331D03*
D477*
X0219877Y0217365D03*
X0188777Y0236165D03*
X0176377Y0241065D03*
D478*
X0198112Y0217465D03*
X0218612Y0242665D03*
D479*
X0207627Y0240465D03*
X0207527Y0240865D03*
X0207727Y0239965D03*
X0207827Y0239465D03*
X0188627Y0240565D03*
X0188527Y0240065D03*
X0188427Y0239665D03*
X0188427Y0239565D03*
X0188327Y0219265D03*
X0188427Y0218765D03*
X0188527Y0218265D03*
X0188627Y0217765D03*
X0207527Y0217465D03*
X0207727Y0218365D03*
X0207827Y0218865D03*
D480*
X0207791Y0218731D03*
X0207791Y0218698D03*
X0207762Y0218598D03*
X0207762Y0218531D03*
X0207762Y0218498D03*
X0207691Y0218231D03*
X0207691Y0218198D03*
X0207662Y0218098D03*
X0207662Y0218031D03*
X0207591Y0217731D03*
X0207562Y0217631D03*
X0207562Y0217598D03*
X0207862Y0219031D03*
X0207891Y0219198D03*
X0207891Y0219231D03*
X0193891Y0224031D03*
X0188391Y0218931D03*
X0188391Y0218898D03*
X0188362Y0219098D03*
X0188291Y0219431D03*
X0188462Y0218631D03*
X0188462Y0218598D03*
X0188462Y0218531D03*
X0188491Y0218431D03*
X0188491Y0218398D03*
X0188491Y0218331D03*
X0188562Y0218131D03*
X0188562Y0218098D03*
X0188591Y0217931D03*
X0188591Y0217898D03*
X0188662Y0217631D03*
X0188691Y0217498D03*
X0188362Y0239298D03*
X0188391Y0239431D03*
X0188462Y0239731D03*
X0188462Y0239798D03*
X0188462Y0239831D03*
X0188491Y0239898D03*
X0188491Y0239931D03*
X0188491Y0239998D03*
X0188562Y0240198D03*
X0188562Y0240231D03*
X0188562Y0240298D03*
X0188591Y0240398D03*
X0188591Y0240431D03*
X0188662Y0240698D03*
X0207562Y0240731D03*
X0207591Y0240598D03*
X0207662Y0240331D03*
X0207662Y0240298D03*
X0207662Y0240231D03*
X0207691Y0240131D03*
X0207691Y0240098D03*
X0207762Y0239831D03*
X0207762Y0239798D03*
X0207791Y0239698D03*
X0207791Y0239631D03*
X0207791Y0239598D03*
X0207862Y0239331D03*
X0207862Y0239298D03*
X0207891Y0239131D03*
D481*
X0219991Y0240698D03*
X0219991Y0240731D03*
X0219991Y0217631D03*
X0219962Y0217598D03*
X0193691Y0251598D03*
X0183262Y0245498D03*
X0186791Y0234098D03*
X0180991Y0228631D03*
X0186791Y0224231D03*
X0176262Y0217598D03*
D482*
X0176227Y0217665D03*
X0176227Y0240665D03*
X0207527Y0222265D03*
D483*
X0207862Y0219065D03*
X0207791Y0218665D03*
X0207762Y0218565D03*
X0207691Y0218265D03*
X0207691Y0218165D03*
X0207662Y0218065D03*
X0207591Y0217765D03*
X0188662Y0217665D03*
X0188591Y0217965D03*
X0188562Y0218065D03*
X0188491Y0218365D03*
X0188491Y0218465D03*
X0188462Y0218565D03*
X0188391Y0218865D03*
X0188362Y0219065D03*
X0188362Y0239265D03*
X0188391Y0239465D03*
X0188462Y0239765D03*
X0188491Y0239965D03*
X0188562Y0240265D03*
X0188591Y0240365D03*
X0207591Y0240565D03*
X0207662Y0240265D03*
X0207691Y0240165D03*
X0207691Y0240065D03*
X0207762Y0239865D03*
X0207762Y0239765D03*
X0207791Y0239665D03*
D484*
X0198112Y0217665D03*
D485*
X0198112Y0217731D03*
X0198112Y0241498D03*
D486*
X0188627Y0240531D03*
X0188527Y0240131D03*
X0188527Y0240098D03*
X0188527Y0240031D03*
X0188427Y0239631D03*
X0188427Y0239598D03*
X0188327Y0239098D03*
X0202327Y0224031D03*
X0207927Y0219398D03*
X0207827Y0218898D03*
X0207827Y0218831D03*
X0207727Y0218431D03*
X0207727Y0218398D03*
X0207727Y0218331D03*
X0207627Y0217931D03*
X0207627Y0217898D03*
X0188627Y0217798D03*
X0188527Y0218198D03*
X0188527Y0218231D03*
X0188527Y0218298D03*
X0188427Y0218698D03*
X0188427Y0218731D03*
X0188327Y0219231D03*
X0207827Y0239498D03*
X0207727Y0239898D03*
X0207727Y0239931D03*
X0207727Y0239998D03*
X0207727Y0240031D03*
X0207627Y0240398D03*
X0207627Y0240431D03*
D487*
X0202077Y0230131D03*
X0202106Y0228231D03*
X0194147Y0230131D03*
X0198106Y0217798D03*
X0217277Y0243431D03*
X0198106Y0254698D03*
D488*
X0204841Y0243398D03*
X0202441Y0229531D03*
X0202441Y0229498D03*
X0202441Y0229431D03*
X0202441Y0229398D03*
X0202441Y0228931D03*
X0202441Y0228898D03*
X0202441Y0228831D03*
X0202441Y0228798D03*
X0202212Y0228298D03*
X0194012Y0228298D03*
X0198112Y0217831D03*
D489*
X0198112Y0217865D03*
X0202312Y0228365D03*
X0202341Y0229965D03*
X0193841Y0229865D03*
X0193841Y0228465D03*
X0193912Y0228365D03*
D490*
X0198127Y0234331D03*
X0196227Y0240231D03*
X0196427Y0240331D03*
X0188627Y0235998D03*
X0176127Y0240331D03*
X0176127Y0217998D03*
X0202727Y0251398D03*
X0220127Y0240298D03*
X0220127Y0240231D03*
X0215227Y0228698D03*
X0220127Y0218098D03*
D491*
X0220091Y0217998D03*
X0209362Y0224131D03*
X0209362Y0234198D03*
X0207591Y0235998D03*
X0200062Y0240198D03*
X0199991Y0240231D03*
X0199862Y0240298D03*
X0196362Y0240298D03*
X0196162Y0240198D03*
X0186862Y0234198D03*
X0180991Y0229631D03*
X0180991Y0228698D03*
X0186862Y0224131D03*
X0196191Y0218131D03*
X0199991Y0218098D03*
X0220091Y0240331D03*
X0202691Y0251431D03*
X0193491Y0251398D03*
X0176091Y0240231D03*
X0176091Y0240198D03*
X0176091Y0218131D03*
X0176091Y0218098D03*
D492*
X0188627Y0222365D03*
X0199927Y0240265D03*
X0200127Y0240165D03*
X0220127Y0240265D03*
X0220127Y0218065D03*
X0176127Y0240365D03*
D493*
X0176041Y0239965D03*
X0176012Y0239865D03*
X0176012Y0218565D03*
X0176012Y0218465D03*
X0176041Y0218365D03*
X0195312Y0218565D03*
X0195512Y0218465D03*
X0200712Y0218465D03*
X0209312Y0224065D03*
X0220212Y0218465D03*
X0220212Y0239865D03*
X0202941Y0251165D03*
X0198112Y0255265D03*
X0200741Y0239865D03*
D494*
X0195477Y0239865D03*
X0193277Y0251165D03*
X0220177Y0239965D03*
X0220177Y0218365D03*
D495*
X0215227Y0228731D03*
X0207627Y0222398D03*
X0195627Y0218398D03*
X0195627Y0239931D03*
X0202827Y0251298D03*
X0176027Y0239931D03*
X0176027Y0239898D03*
X0176027Y0218431D03*
X0176027Y0218398D03*
D496*
X0188141Y0220265D03*
X0188112Y0220465D03*
X0188212Y0219965D03*
X0188212Y0219865D03*
X0188241Y0219765D03*
X0188241Y0219665D03*
X0188312Y0219365D03*
X0188341Y0219165D03*
X0188441Y0218665D03*
X0188112Y0237865D03*
X0188141Y0238065D03*
X0188212Y0238465D03*
X0188241Y0238565D03*
X0188241Y0238665D03*
X0188312Y0238965D03*
X0188312Y0239065D03*
X0188341Y0239165D03*
X0207812Y0239565D03*
X0207841Y0239365D03*
X0207912Y0239065D03*
X0207912Y0238965D03*
X0207941Y0238865D03*
X0208012Y0238465D03*
X0208041Y0238265D03*
X0208112Y0237865D03*
X0208141Y0237665D03*
X0208141Y0220665D03*
X0208112Y0220465D03*
X0208041Y0220065D03*
X0208012Y0219865D03*
X0207941Y0219565D03*
X0207941Y0219465D03*
X0207912Y0219365D03*
X0207912Y0219265D03*
X0207841Y0218965D03*
X0207812Y0218765D03*
X0207741Y0218465D03*
D497*
X0207777Y0218631D03*
X0207877Y0219098D03*
X0207877Y0219131D03*
X0207977Y0219598D03*
X0207977Y0219631D03*
X0207977Y0219698D03*
X0207977Y0219731D03*
X0208077Y0220198D03*
X0208077Y0220231D03*
X0208077Y0220298D03*
X0208077Y0238098D03*
X0208077Y0238131D03*
X0207977Y0238598D03*
X0207977Y0238631D03*
X0207977Y0238698D03*
X0207977Y0238731D03*
X0207877Y0239198D03*
X0207877Y0239231D03*
X0207777Y0239731D03*
X0193877Y0234331D03*
X0188077Y0237631D03*
X0188177Y0238198D03*
X0188177Y0238231D03*
X0188177Y0238298D03*
X0188277Y0238798D03*
X0188277Y0238831D03*
X0188277Y0238898D03*
X0188377Y0239331D03*
X0188377Y0239398D03*
X0188077Y0220698D03*
X0188177Y0220131D03*
X0188177Y0220098D03*
X0188177Y0220031D03*
X0188277Y0219598D03*
X0188277Y0219531D03*
X0188277Y0219498D03*
X0188377Y0219031D03*
X0188377Y0218998D03*
X0188477Y0218498D03*
D498*
X0175977Y0218765D03*
X0175977Y0218865D03*
X0186977Y0234365D03*
X0175977Y0239565D03*
D499*
X0175962Y0239465D03*
X0175962Y0239365D03*
X0186991Y0223965D03*
X0194362Y0219065D03*
X0201491Y0218865D03*
X0201691Y0218965D03*
X0220262Y0218965D03*
X0220262Y0218865D03*
X0220262Y0239365D03*
X0220262Y0239465D03*
X0201891Y0239265D03*
X0201691Y0239365D03*
X0193191Y0251065D03*
X0175962Y0218965D03*
D500*
X0194227Y0219131D03*
X0194427Y0219031D03*
X0201627Y0218931D03*
X0207727Y0222498D03*
X0215227Y0228798D03*
X0215227Y0229531D03*
X0209227Y0234398D03*
X0207727Y0235831D03*
X0201827Y0239298D03*
X0201627Y0239398D03*
X0198127Y0234498D03*
X0193127Y0250998D03*
D501*
X0188477Y0239865D03*
X0188377Y0239365D03*
X0188277Y0238865D03*
X0188277Y0238765D03*
X0188177Y0238265D03*
X0188077Y0237665D03*
X0188177Y0220065D03*
X0188277Y0219565D03*
X0188277Y0219465D03*
X0188377Y0218965D03*
X0207877Y0219165D03*
X0207977Y0219665D03*
X0208077Y0220265D03*
X0208177Y0220865D03*
X0208177Y0237465D03*
X0208077Y0238065D03*
X0207977Y0238665D03*
X0207877Y0239165D03*
X0207877Y0239265D03*
D502*
X0207956Y0238765D03*
X0207997Y0238565D03*
X0208027Y0238365D03*
X0208056Y0238165D03*
X0208097Y0237965D03*
X0208127Y0237765D03*
X0208156Y0237565D03*
X0208197Y0237365D03*
X0208197Y0237265D03*
X0208227Y0237165D03*
X0208227Y0237065D03*
X0208256Y0236965D03*
X0208256Y0236865D03*
X0208297Y0236665D03*
X0208297Y0221765D03*
X0208297Y0221665D03*
X0208256Y0221465D03*
X0208256Y0221365D03*
X0208227Y0221265D03*
X0208227Y0221165D03*
X0208197Y0221065D03*
X0208197Y0220965D03*
X0208156Y0220765D03*
X0208127Y0220565D03*
X0208097Y0220365D03*
X0208056Y0220165D03*
X0208027Y0219965D03*
X0207997Y0219765D03*
X0188156Y0220165D03*
X0188127Y0220365D03*
X0188097Y0220565D03*
X0188097Y0220665D03*
X0188056Y0220765D03*
X0188056Y0220865D03*
X0188027Y0220965D03*
X0188027Y0221065D03*
X0187997Y0221165D03*
X0187997Y0221265D03*
X0187956Y0221465D03*
X0187956Y0221565D03*
X0187927Y0221665D03*
X0187927Y0221765D03*
X0187927Y0236565D03*
X0187927Y0236665D03*
X0187956Y0236765D03*
X0187956Y0236865D03*
X0187997Y0237065D03*
X0187997Y0237165D03*
X0188027Y0237265D03*
X0188027Y0237365D03*
X0188056Y0237465D03*
X0188056Y0237565D03*
X0188097Y0237765D03*
X0188127Y0237965D03*
X0188156Y0238165D03*
X0188197Y0238365D03*
D503*
X0188197Y0238331D03*
X0188227Y0238531D03*
X0188256Y0238731D03*
X0188156Y0238131D03*
X0188127Y0237998D03*
X0188127Y0237931D03*
X0188127Y0237898D03*
X0188097Y0237798D03*
X0188097Y0237731D03*
X0188097Y0237698D03*
X0188056Y0237598D03*
X0188056Y0237531D03*
X0188056Y0237498D03*
X0188027Y0237398D03*
X0188027Y0237331D03*
X0188027Y0237298D03*
X0188027Y0237231D03*
X0187997Y0237131D03*
X0187997Y0237098D03*
X0187997Y0237031D03*
X0187997Y0236998D03*
X0187956Y0236931D03*
X0187956Y0236898D03*
X0187956Y0236831D03*
X0187956Y0236798D03*
X0187927Y0236631D03*
X0187927Y0236598D03*
X0187927Y0236531D03*
X0187927Y0221798D03*
X0187927Y0221731D03*
X0187927Y0221698D03*
X0187956Y0221531D03*
X0187956Y0221498D03*
X0187956Y0221431D03*
X0187956Y0221398D03*
X0187997Y0221331D03*
X0187997Y0221298D03*
X0187997Y0221231D03*
X0187997Y0221198D03*
X0188027Y0221131D03*
X0188027Y0221098D03*
X0188027Y0221031D03*
X0188027Y0220998D03*
X0188056Y0220898D03*
X0188056Y0220831D03*
X0188056Y0220798D03*
X0188056Y0220731D03*
X0188097Y0220631D03*
X0188097Y0220598D03*
X0188127Y0220431D03*
X0188127Y0220398D03*
X0188156Y0220231D03*
X0188156Y0220198D03*
X0188197Y0219998D03*
X0188227Y0219798D03*
X0208027Y0219931D03*
X0208056Y0220131D03*
X0208097Y0220331D03*
X0208097Y0220398D03*
X0208127Y0220498D03*
X0208127Y0220531D03*
X0208127Y0220598D03*
X0208127Y0220631D03*
X0208156Y0220698D03*
X0208156Y0220731D03*
X0208156Y0220798D03*
X0208156Y0220831D03*
X0208197Y0220898D03*
X0208197Y0220931D03*
X0208197Y0220998D03*
X0208197Y0221031D03*
X0208227Y0221131D03*
X0208227Y0221198D03*
X0208227Y0221231D03*
X0208227Y0221298D03*
X0208256Y0221398D03*
X0208256Y0221431D03*
X0208256Y0221498D03*
X0208256Y0221531D03*
X0208297Y0221598D03*
X0208297Y0221631D03*
X0208297Y0221698D03*
X0208297Y0221731D03*
X0208297Y0236598D03*
X0208297Y0236631D03*
X0208297Y0236698D03*
X0208297Y0236731D03*
X0208256Y0236831D03*
X0208256Y0236898D03*
X0208256Y0236931D03*
X0208256Y0236998D03*
X0208227Y0237031D03*
X0208227Y0237098D03*
X0208227Y0237131D03*
X0208227Y0237198D03*
X0208227Y0237231D03*
X0208197Y0237298D03*
X0208197Y0237331D03*
X0208197Y0237398D03*
X0208197Y0237431D03*
X0208156Y0237498D03*
X0208156Y0237531D03*
X0208156Y0237598D03*
X0208156Y0237631D03*
X0208127Y0237731D03*
X0208127Y0237798D03*
X0208127Y0237831D03*
X0208097Y0237998D03*
X0208097Y0238031D03*
X0208056Y0238198D03*
X0208056Y0238231D03*
X0208027Y0238398D03*
D504*
X0203677Y0238265D03*
X0203377Y0250665D03*
X0192777Y0250565D03*
X0192877Y0238465D03*
X0175977Y0238465D03*
X0175977Y0238365D03*
X0175977Y0219965D03*
X0175977Y0219865D03*
X0220277Y0238565D03*
D505*
X0220227Y0238265D03*
X0220227Y0238165D03*
X0204027Y0238065D03*
X0192027Y0237965D03*
X0202227Y0224465D03*
X0203827Y0220165D03*
X0192227Y0220265D03*
X0203527Y0250465D03*
X0220227Y0220165D03*
X0220227Y0220065D03*
D506*
X0204527Y0237765D03*
X0198127Y0234865D03*
X0191527Y0237665D03*
X0192627Y0250365D03*
X0176027Y0237865D03*
X0176027Y0220465D03*
X0191227Y0220865D03*
D507*
X0191277Y0220831D03*
X0191177Y0220898D03*
X0193977Y0224431D03*
X0187177Y0223698D03*
X0176077Y0220731D03*
X0176077Y0220698D03*
X0176077Y0237598D03*
X0176077Y0237631D03*
X0190777Y0237198D03*
X0190977Y0237331D03*
X0205077Y0237431D03*
X0205277Y0237298D03*
X0207877Y0235631D03*
X0209077Y0234631D03*
X0209077Y0223731D03*
X0207877Y0222698D03*
X0205377Y0221098D03*
X0205277Y0221031D03*
D508*
X0208241Y0221331D03*
X0208312Y0221798D03*
X0208312Y0221831D03*
X0208612Y0224598D03*
X0208612Y0224631D03*
X0208612Y0224698D03*
X0208612Y0224731D03*
X0208641Y0224998D03*
X0208641Y0225031D03*
X0208641Y0225098D03*
X0208641Y0225131D03*
X0208712Y0226131D03*
X0208712Y0226198D03*
X0208741Y0226898D03*
X0208741Y0231431D03*
X0208712Y0232131D03*
X0208712Y0232198D03*
X0208712Y0232231D03*
X0208641Y0233198D03*
X0208641Y0233231D03*
X0208641Y0233298D03*
X0208641Y0233331D03*
X0208612Y0233631D03*
X0208612Y0233698D03*
X0208612Y0233731D03*
X0208312Y0236498D03*
X0208312Y0236531D03*
X0202341Y0223998D03*
X0187912Y0221831D03*
X0187941Y0221631D03*
X0187941Y0221598D03*
X0187612Y0224631D03*
X0187612Y0224698D03*
X0187612Y0224731D03*
X0187612Y0224798D03*
X0187541Y0225631D03*
X0187541Y0225698D03*
X0187541Y0225731D03*
X0187512Y0226298D03*
X0187512Y0226331D03*
X0187512Y0232031D03*
X0187512Y0232098D03*
X0187541Y0232598D03*
X0187541Y0232631D03*
X0187541Y0232698D03*
X0187541Y0232731D03*
X0187612Y0233531D03*
X0187612Y0233598D03*
X0187612Y0233631D03*
X0187612Y0233698D03*
X0187612Y0233731D03*
X0187912Y0236498D03*
X0187941Y0236698D03*
X0187941Y0236731D03*
X0188012Y0237198D03*
D509*
X0187977Y0236965D03*
X0187577Y0233165D03*
X0187477Y0231265D03*
X0187477Y0227065D03*
X0187577Y0225265D03*
X0187577Y0225165D03*
X0187977Y0221365D03*
X0208277Y0221565D03*
X0208677Y0225565D03*
X0208677Y0232765D03*
X0208277Y0236765D03*
D510*
X0219791Y0236265D03*
X0219862Y0236465D03*
X0219891Y0236565D03*
X0219762Y0222165D03*
X0219791Y0222065D03*
X0219862Y0221865D03*
X0219891Y0221765D03*
X0206262Y0221665D03*
X0189791Y0236565D03*
X0188291Y0235565D03*
X0176391Y0236365D03*
X0176362Y0236465D03*
X0176462Y0222165D03*
X0176391Y0221965D03*
X0176362Y0221865D03*
X0192262Y0249865D03*
X0203962Y0249865D03*
D511*
X0204027Y0249765D03*
X0206427Y0236565D03*
X0198127Y0222965D03*
X0219827Y0221965D03*
X0219927Y0221665D03*
X0219827Y0236365D03*
X0219927Y0236665D03*
X0176427Y0236265D03*
X0176327Y0236565D03*
X0176427Y0222065D03*
X0176327Y0221765D03*
D512*
X0207291Y0221965D03*
X0207291Y0236365D03*
D513*
X0202327Y0234231D03*
X0206327Y0244998D03*
X0198127Y0222098D03*
D514*
X0198127Y0222865D03*
X0208027Y0222865D03*
X0219527Y0222765D03*
X0219627Y0222565D03*
X0219727Y0222265D03*
X0219527Y0235565D03*
X0208027Y0235465D03*
X0187927Y0223065D03*
X0176727Y0222865D03*
X0176727Y0235465D03*
D515*
X0193656Y0223631D03*
X0202556Y0223631D03*
D516*
X0202547Y0223665D03*
X0193677Y0223665D03*
D517*
X0193712Y0223698D03*
D518*
X0202527Y0223698D03*
D519*
X0193727Y0223731D03*
D520*
X0202491Y0223731D03*
D521*
X0193741Y0223765D03*
D522*
X0202477Y0223765D03*
D523*
X0193777Y0223798D03*
D524*
X0202462Y0223798D03*
D525*
X0193791Y0223831D03*
D526*
X0202427Y0223831D03*
D527*
X0202412Y0223865D03*
X0193812Y0223865D03*
D528*
X0193847Y0223898D03*
D529*
X0202391Y0223898D03*
D530*
X0193856Y0223931D03*
D531*
X0202377Y0223931D03*
D532*
X0208777Y0228065D03*
X0193877Y0223965D03*
X0187447Y0228465D03*
X0187447Y0228565D03*
X0187447Y0229765D03*
X0187447Y0229865D03*
D533*
X0202362Y0223965D03*
D534*
X0208677Y0225498D03*
X0208677Y0225531D03*
X0208677Y0225598D03*
X0208677Y0225631D03*
X0208677Y0232698D03*
X0208677Y0232731D03*
X0208677Y0232798D03*
X0208677Y0232831D03*
X0208277Y0236798D03*
X0193877Y0223998D03*
X0187577Y0225098D03*
X0187577Y0225131D03*
X0187577Y0225198D03*
X0187577Y0225231D03*
X0187577Y0233098D03*
X0187577Y0233131D03*
X0187577Y0233198D03*
X0187577Y0233231D03*
D535*
X0193912Y0224098D03*
X0198112Y0255398D03*
D536*
X0193577Y0251465D03*
X0209377Y0234165D03*
X0209377Y0224165D03*
X0180977Y0229665D03*
D537*
X0186777Y0234065D03*
X0186777Y0224265D03*
X0209447Y0224265D03*
X0209447Y0234065D03*
X0202447Y0251665D03*
X0193777Y0251665D03*
D538*
X0198127Y0224365D03*
D539*
X0198106Y0224465D03*
X0218047Y0243065D03*
D540*
X0208627Y0233565D03*
X0208627Y0233465D03*
X0208627Y0233365D03*
X0208727Y0232065D03*
X0208727Y0231965D03*
X0208727Y0231865D03*
X0208727Y0231765D03*
X0208727Y0231665D03*
X0208727Y0231565D03*
X0208727Y0226765D03*
X0208727Y0226665D03*
X0208727Y0226565D03*
X0208727Y0226465D03*
X0208727Y0226365D03*
X0208727Y0226265D03*
X0208627Y0224965D03*
X0208627Y0224865D03*
X0208627Y0224765D03*
X0187627Y0224565D03*
X0187527Y0225765D03*
X0187527Y0225865D03*
X0187527Y0225965D03*
X0187527Y0226065D03*
X0187527Y0226165D03*
X0187427Y0228665D03*
X0187427Y0228765D03*
X0187427Y0228865D03*
X0187427Y0228965D03*
X0187427Y0229065D03*
X0187427Y0229165D03*
X0187427Y0229265D03*
X0187427Y0229365D03*
X0187427Y0229465D03*
X0187427Y0229565D03*
X0187427Y0229665D03*
X0187527Y0232165D03*
X0187527Y0232265D03*
X0187527Y0232365D03*
X0187527Y0232465D03*
X0187527Y0232565D03*
X0187627Y0233765D03*
D541*
X0198112Y0224565D03*
D542*
X0208627Y0224798D03*
X0208627Y0224831D03*
X0208627Y0224898D03*
X0208627Y0224931D03*
X0208727Y0226231D03*
X0208727Y0226298D03*
X0208727Y0226331D03*
X0208727Y0226398D03*
X0208727Y0226431D03*
X0208727Y0226498D03*
X0208727Y0226531D03*
X0208727Y0226598D03*
X0208727Y0226631D03*
X0208727Y0226698D03*
X0208727Y0226731D03*
X0208727Y0226798D03*
X0208727Y0226831D03*
X0208727Y0231498D03*
X0208727Y0231531D03*
X0208727Y0231598D03*
X0208727Y0231631D03*
X0208727Y0231698D03*
X0208727Y0231731D03*
X0208727Y0231798D03*
X0208727Y0231831D03*
X0208727Y0231898D03*
X0208727Y0231931D03*
X0208727Y0231998D03*
X0208727Y0232031D03*
X0208727Y0232098D03*
X0208627Y0233398D03*
X0208627Y0233431D03*
X0208627Y0233498D03*
X0208627Y0233531D03*
X0208627Y0233598D03*
X0187527Y0232531D03*
X0187527Y0232498D03*
X0187527Y0232431D03*
X0187527Y0232398D03*
X0187527Y0232331D03*
X0187527Y0232298D03*
X0187527Y0232231D03*
X0187527Y0232198D03*
X0187527Y0232131D03*
X0187427Y0229731D03*
X0187427Y0229698D03*
X0187427Y0229631D03*
X0187427Y0229598D03*
X0187427Y0229531D03*
X0187427Y0229498D03*
X0187427Y0229431D03*
X0187427Y0229398D03*
X0187427Y0229331D03*
X0187427Y0229298D03*
X0187427Y0229231D03*
X0187427Y0229198D03*
X0187427Y0229131D03*
X0187427Y0229098D03*
X0187427Y0229031D03*
X0187427Y0228998D03*
X0187427Y0228931D03*
X0187427Y0228898D03*
X0187427Y0228831D03*
X0187427Y0228798D03*
X0187427Y0228731D03*
X0187427Y0228698D03*
X0187427Y0228631D03*
X0187427Y0228598D03*
X0187527Y0226231D03*
X0187527Y0226198D03*
X0187527Y0226131D03*
X0187527Y0226098D03*
X0187527Y0226031D03*
X0187527Y0225998D03*
X0187527Y0225931D03*
X0187527Y0225898D03*
X0187527Y0225831D03*
X0187527Y0225798D03*
X0187627Y0224598D03*
D543*
X0198112Y0224598D03*
X0198112Y0224931D03*
X0198112Y0233398D03*
D544*
X0198106Y0233498D03*
X0198106Y0233731D03*
X0198106Y0224898D03*
X0198106Y0224631D03*
D545*
X0208612Y0224665D03*
X0208641Y0225065D03*
X0208641Y0225165D03*
X0208712Y0226165D03*
X0208741Y0226865D03*
X0208741Y0231465D03*
X0208712Y0232165D03*
X0208641Y0233265D03*
X0208612Y0233665D03*
X0208312Y0236565D03*
X0187612Y0233665D03*
X0187612Y0233565D03*
X0187541Y0232665D03*
X0187512Y0232065D03*
X0187512Y0226265D03*
X0187541Y0225665D03*
X0187612Y0224765D03*
X0187612Y0224665D03*
D546*
X0198112Y0224665D03*
X0198112Y0224765D03*
X0198112Y0233565D03*
D547*
X0198112Y0233631D03*
X0198112Y0224731D03*
X0198112Y0224698D03*
D548*
X0198112Y0224798D03*
X0198112Y0233531D03*
X0198112Y0233698D03*
D549*
X0208662Y0233131D03*
X0208662Y0233098D03*
X0208662Y0233031D03*
X0208662Y0232998D03*
X0208662Y0232931D03*
X0208662Y0232898D03*
X0208691Y0232631D03*
X0208691Y0232598D03*
X0208691Y0232531D03*
X0208691Y0232498D03*
X0208691Y0232431D03*
X0208691Y0232398D03*
X0208691Y0232331D03*
X0208691Y0232298D03*
X0208762Y0231398D03*
X0208762Y0231331D03*
X0208762Y0231298D03*
X0208762Y0231231D03*
X0208762Y0231198D03*
X0208762Y0231131D03*
X0208762Y0231098D03*
X0208762Y0231031D03*
X0208762Y0230998D03*
X0208762Y0230931D03*
X0208762Y0230898D03*
X0208762Y0230831D03*
X0208762Y0230798D03*
X0208762Y0230731D03*
X0208762Y0230698D03*
X0208762Y0230631D03*
X0208762Y0230598D03*
X0208762Y0230531D03*
X0208762Y0230498D03*
X0208762Y0230431D03*
X0208762Y0230398D03*
X0208791Y0230231D03*
X0208791Y0230198D03*
X0208791Y0230131D03*
X0208791Y0230098D03*
X0208791Y0230031D03*
X0208791Y0229998D03*
X0208791Y0229931D03*
X0208791Y0229898D03*
X0208791Y0229831D03*
X0208791Y0229798D03*
X0208791Y0229731D03*
X0208791Y0229698D03*
X0208791Y0229631D03*
X0208791Y0229598D03*
X0208791Y0229531D03*
X0208791Y0229498D03*
X0208791Y0229431D03*
X0208791Y0229398D03*
X0208791Y0229331D03*
X0208791Y0229298D03*
X0208791Y0229231D03*
X0208791Y0229198D03*
X0208791Y0229131D03*
X0208791Y0229098D03*
X0208791Y0229031D03*
X0208791Y0228998D03*
X0208791Y0228931D03*
X0208791Y0228898D03*
X0208791Y0228831D03*
X0208791Y0228798D03*
X0208791Y0228731D03*
X0208791Y0228698D03*
X0208791Y0228631D03*
X0208791Y0228598D03*
X0208791Y0228531D03*
X0208791Y0228498D03*
X0208791Y0228431D03*
X0208791Y0228398D03*
X0208791Y0228331D03*
X0208791Y0228298D03*
X0208791Y0228231D03*
X0208791Y0228198D03*
X0208791Y0228131D03*
X0208791Y0228098D03*
X0208762Y0227931D03*
X0208762Y0227898D03*
X0208762Y0227831D03*
X0208762Y0227798D03*
X0208762Y0227731D03*
X0208762Y0227698D03*
X0208762Y0227631D03*
X0208762Y0227598D03*
X0208762Y0227531D03*
X0208762Y0227498D03*
X0208762Y0227431D03*
X0208762Y0227398D03*
X0208762Y0227331D03*
X0208762Y0227298D03*
X0208762Y0227231D03*
X0208762Y0227198D03*
X0208762Y0227131D03*
X0208762Y0227098D03*
X0208762Y0227031D03*
X0208762Y0226998D03*
X0208762Y0226931D03*
X0208691Y0226098D03*
X0208691Y0226031D03*
X0208691Y0225998D03*
X0208691Y0225931D03*
X0208691Y0225898D03*
X0208691Y0225831D03*
X0208691Y0225798D03*
X0208691Y0225731D03*
X0208691Y0225698D03*
X0208662Y0225431D03*
X0208662Y0225398D03*
X0208662Y0225331D03*
X0208662Y0225298D03*
X0208662Y0225231D03*
X0208662Y0225198D03*
X0187591Y0225031D03*
X0187591Y0224998D03*
X0187591Y0224931D03*
X0187591Y0224898D03*
X0187591Y0224831D03*
X0187562Y0225298D03*
X0187562Y0225331D03*
X0187562Y0225398D03*
X0187562Y0225431D03*
X0187562Y0225498D03*
X0187562Y0225531D03*
X0187562Y0225598D03*
X0187491Y0226398D03*
X0187491Y0226431D03*
X0187491Y0226498D03*
X0187491Y0226531D03*
X0187491Y0226598D03*
X0187491Y0226631D03*
X0187491Y0226698D03*
X0187491Y0226731D03*
X0187491Y0226798D03*
X0187491Y0226831D03*
X0187491Y0226898D03*
X0187491Y0226931D03*
X0187491Y0226998D03*
X0187491Y0227031D03*
X0187462Y0227098D03*
X0187462Y0227131D03*
X0187462Y0227198D03*
X0187462Y0227231D03*
X0187462Y0227298D03*
X0187462Y0227331D03*
X0187462Y0227398D03*
X0187462Y0227431D03*
X0187462Y0227498D03*
X0187462Y0227531D03*
X0187462Y0227598D03*
X0187462Y0227631D03*
X0187462Y0227698D03*
X0187462Y0227731D03*
X0187462Y0227798D03*
X0187462Y0227831D03*
X0187462Y0227898D03*
X0187462Y0227931D03*
X0187462Y0227998D03*
X0187462Y0228031D03*
X0187462Y0228098D03*
X0187462Y0228131D03*
X0187462Y0228198D03*
X0187462Y0228231D03*
X0187462Y0228298D03*
X0187462Y0228331D03*
X0187462Y0229998D03*
X0187462Y0230031D03*
X0187462Y0230098D03*
X0187462Y0230131D03*
X0187462Y0230198D03*
X0187462Y0230231D03*
X0187462Y0230298D03*
X0187462Y0230331D03*
X0187462Y0230398D03*
X0187462Y0230431D03*
X0187462Y0230498D03*
X0187462Y0230531D03*
X0187462Y0230598D03*
X0187462Y0230631D03*
X0187462Y0230698D03*
X0187462Y0230731D03*
X0187462Y0230798D03*
X0187462Y0230831D03*
X0187462Y0230898D03*
X0187462Y0230931D03*
X0187462Y0230998D03*
X0187462Y0231031D03*
X0187462Y0231098D03*
X0187462Y0231131D03*
X0187462Y0231198D03*
X0187462Y0231231D03*
X0187491Y0231298D03*
X0187491Y0231331D03*
X0187491Y0231398D03*
X0187491Y0231431D03*
X0187491Y0231498D03*
X0187491Y0231531D03*
X0187491Y0231598D03*
X0187491Y0231631D03*
X0187491Y0231698D03*
X0187491Y0231731D03*
X0187491Y0231798D03*
X0187491Y0231831D03*
X0187491Y0231898D03*
X0187491Y0231931D03*
X0187491Y0231998D03*
X0187562Y0232798D03*
X0187562Y0232831D03*
X0187562Y0232898D03*
X0187562Y0232931D03*
X0187562Y0232998D03*
X0187562Y0233031D03*
X0187591Y0233298D03*
X0187591Y0233331D03*
X0187591Y0233398D03*
X0187591Y0233431D03*
X0187591Y0233498D03*
D550*
X0198127Y0224831D03*
D551*
X0202362Y0234365D03*
X0208662Y0233165D03*
X0208662Y0233065D03*
X0208662Y0232965D03*
X0208662Y0232865D03*
X0208691Y0232665D03*
X0208691Y0232565D03*
X0208691Y0232465D03*
X0208691Y0232365D03*
X0208691Y0232265D03*
X0208762Y0231365D03*
X0208762Y0231265D03*
X0208762Y0231165D03*
X0208762Y0231065D03*
X0208762Y0230965D03*
X0208762Y0230865D03*
X0208762Y0230765D03*
X0208762Y0230665D03*
X0208762Y0230565D03*
X0208762Y0230465D03*
X0208762Y0230365D03*
X0208791Y0230265D03*
X0208791Y0230165D03*
X0208791Y0230065D03*
X0208791Y0229965D03*
X0208791Y0229865D03*
X0208791Y0229765D03*
X0208791Y0229665D03*
X0208791Y0229565D03*
X0208791Y0229465D03*
X0208791Y0229365D03*
X0208791Y0229265D03*
X0208791Y0229165D03*
X0208791Y0229065D03*
X0208791Y0228965D03*
X0208791Y0228865D03*
X0208791Y0228765D03*
X0208791Y0228665D03*
X0208791Y0228565D03*
X0208791Y0228465D03*
X0208791Y0228365D03*
X0208791Y0228265D03*
X0208791Y0228165D03*
X0208762Y0227965D03*
X0208762Y0227865D03*
X0208762Y0227765D03*
X0208762Y0227665D03*
X0208762Y0227565D03*
X0208762Y0227465D03*
X0208762Y0227365D03*
X0208762Y0227265D03*
X0208762Y0227165D03*
X0208762Y0227065D03*
X0208762Y0226965D03*
X0208691Y0226065D03*
X0208691Y0225965D03*
X0208691Y0225865D03*
X0208691Y0225765D03*
X0208691Y0225665D03*
X0208662Y0225465D03*
X0208662Y0225365D03*
X0208662Y0225265D03*
X0193862Y0234365D03*
X0187591Y0233465D03*
X0187591Y0233365D03*
X0187591Y0233265D03*
X0187562Y0233065D03*
X0187562Y0232965D03*
X0187562Y0232865D03*
X0187562Y0232765D03*
X0187491Y0231965D03*
X0187491Y0231865D03*
X0187491Y0231765D03*
X0187491Y0231665D03*
X0187491Y0231565D03*
X0187491Y0231465D03*
X0187491Y0231365D03*
X0187462Y0231165D03*
X0187462Y0231065D03*
X0187462Y0230965D03*
X0187462Y0230865D03*
X0187462Y0230765D03*
X0187462Y0230665D03*
X0187462Y0230565D03*
X0187462Y0230465D03*
X0187462Y0230365D03*
X0187462Y0230265D03*
X0187462Y0230165D03*
X0187462Y0230065D03*
X0187462Y0229965D03*
X0187462Y0228365D03*
X0187462Y0228265D03*
X0187462Y0228165D03*
X0187462Y0228065D03*
X0187462Y0227965D03*
X0187462Y0227865D03*
X0187462Y0227765D03*
X0187462Y0227665D03*
X0187462Y0227565D03*
X0187462Y0227465D03*
X0187462Y0227365D03*
X0187462Y0227265D03*
X0187462Y0227165D03*
X0187491Y0226965D03*
X0187491Y0226865D03*
X0187491Y0226765D03*
X0187491Y0226665D03*
X0187491Y0226565D03*
X0187491Y0226465D03*
X0187491Y0226365D03*
X0187562Y0225565D03*
X0187562Y0225465D03*
X0187562Y0225365D03*
X0187591Y0225065D03*
X0187591Y0224965D03*
X0187591Y0224865D03*
D552*
X0198106Y0224865D03*
X0198106Y0233465D03*
D553*
X0198112Y0233765D03*
X0198112Y0224965D03*
D554*
X0198112Y0224998D03*
X0198112Y0225031D03*
X0198112Y0233298D03*
X0198112Y0233331D03*
D555*
X0198127Y0225065D03*
D556*
X0198106Y0225098D03*
X0198106Y0225131D03*
X0198106Y0233231D03*
D557*
X0198112Y0233165D03*
X0198112Y0225165D03*
D558*
X0198112Y0225198D03*
D559*
X0198112Y0225231D03*
X0198112Y0233098D03*
D560*
X0198112Y0233065D03*
X0198112Y0225265D03*
D561*
X0198127Y0225298D03*
D562*
X0198106Y0225331D03*
X0198106Y0232998D03*
X0198106Y0233031D03*
D563*
X0198127Y0225365D03*
D564*
X0198112Y0225398D03*
X0198112Y0225431D03*
X0198112Y0232931D03*
D565*
X0198112Y0232865D03*
X0198112Y0225465D03*
D566*
X0198112Y0225498D03*
D567*
X0198106Y0225531D03*
X0198106Y0232798D03*
X0198106Y0232831D03*
D568*
X0198127Y0225565D03*
D569*
X0198112Y0225598D03*
X0198112Y0232731D03*
D570*
X0198112Y0232698D03*
X0198112Y0225631D03*
D571*
X0198112Y0225665D03*
D572*
X0198106Y0225698D03*
X0198106Y0252631D03*
D573*
X0183812Y0244898D03*
X0198112Y0232598D03*
X0198112Y0225731D03*
X0212412Y0244898D03*
D574*
X0198112Y0232565D03*
X0198112Y0225765D03*
D575*
X0198112Y0225965D03*
X0198112Y0232365D03*
D576*
X0198106Y0231298D03*
X0198106Y0227098D03*
X0198106Y0226098D03*
D577*
X0198112Y0226165D03*
X0198112Y0226965D03*
X0198112Y0231365D03*
D578*
X0198127Y0231465D03*
X0198127Y0226265D03*
D579*
X0198106Y0226298D03*
X0198106Y0226331D03*
X0198106Y0226831D03*
X0198106Y0231498D03*
X0198106Y0231998D03*
X0198106Y0232031D03*
D580*
X0198127Y0231965D03*
X0198127Y0226365D03*
D581*
X0198112Y0226465D03*
X0198112Y0226765D03*
X0198112Y0231565D03*
X0198112Y0231865D03*
D582*
X0198127Y0226498D03*
X0198127Y0253131D03*
D583*
X0198112Y0231765D03*
X0198112Y0226565D03*
D584*
X0198127Y0227031D03*
X0198127Y0232231D03*
D585*
X0198112Y0227165D03*
D586*
X0198112Y0227198D03*
X0198112Y0227231D03*
X0198112Y0231098D03*
X0198112Y0231131D03*
X0198112Y0252898D03*
D587*
X0198112Y0232465D03*
X0198112Y0230965D03*
X0198112Y0227365D03*
D588*
X0198112Y0227498D03*
X0198112Y0227531D03*
X0198112Y0230831D03*
X0198112Y0232498D03*
X0198112Y0252798D03*
D589*
X0198106Y0227565D03*
D590*
X0201062Y0227765D03*
X0201262Y0230465D03*
X0201091Y0230565D03*
X0194962Y0230465D03*
X0194991Y0227865D03*
X0195162Y0227765D03*
X0218191Y0242965D03*
D591*
X0201227Y0227865D03*
X0195127Y0230565D03*
D592*
X0194812Y0227965D03*
X0201412Y0227965D03*
X0198112Y0240765D03*
D593*
X0201797Y0228065D03*
X0194427Y0228065D03*
D594*
X0194291Y0228131D03*
X0194262Y0230198D03*
D595*
X0181006Y0230165D03*
X0181006Y0228165D03*
X0177277Y0242365D03*
X0215206Y0230165D03*
X0215206Y0228165D03*
X0218947Y0242365D03*
D596*
X0217377Y0243398D03*
X0194177Y0228198D03*
D597*
X0194127Y0228231D03*
X0202127Y0230098D03*
D598*
X0194077Y0228265D03*
X0183377Y0245365D03*
D599*
X0194027Y0230065D03*
X0193756Y0229265D03*
X0193756Y0229165D03*
X0193756Y0229065D03*
X0202156Y0228265D03*
X0202456Y0228965D03*
X0202456Y0229065D03*
X0202456Y0229165D03*
X0202456Y0229265D03*
X0202456Y0229365D03*
X0202197Y0230065D03*
X0217197Y0243465D03*
D600*
X0193991Y0230031D03*
X0193791Y0229631D03*
X0193791Y0229598D03*
X0193791Y0228798D03*
X0193791Y0228731D03*
X0193791Y0228698D03*
X0193962Y0228331D03*
D601*
X0215227Y0228365D03*
X0215227Y0229965D03*
D602*
X0202377Y0229898D03*
X0202377Y0228498D03*
X0193877Y0228398D03*
D603*
X0202377Y0228465D03*
X0202377Y0229865D03*
D604*
X0193841Y0229831D03*
X0193841Y0228498D03*
X0198112Y0241598D03*
X0198112Y0254631D03*
X0179141Y0243498D03*
D605*
X0193927Y0229998D03*
X0193827Y0229798D03*
X0193827Y0228531D03*
D606*
X0202291Y0229998D03*
X0202391Y0229831D03*
X0202391Y0229798D03*
X0202391Y0228531D03*
X0217091Y0243498D03*
D607*
X0202427Y0229631D03*
X0202427Y0229598D03*
X0202227Y0230031D03*
X0202427Y0228731D03*
X0202427Y0228698D03*
D608*
X0202427Y0228765D03*
X0202427Y0229565D03*
X0202427Y0229665D03*
D609*
X0193777Y0229465D03*
X0193777Y0229365D03*
X0193777Y0228965D03*
X0193777Y0228865D03*
D610*
X0180991Y0229965D03*
D611*
X0193897Y0229965D03*
D612*
X0194091Y0230098D03*
D613*
X0194212Y0230165D03*
X0198112Y0240565D03*
D614*
X0201977Y0230198D03*
D615*
X0194377Y0230265D03*
D616*
X0194462Y0230298D03*
X0201762Y0230298D03*
D617*
X0201462Y0230365D03*
X0194762Y0230365D03*
X0200991Y0252565D03*
D618*
X0192977Y0242998D03*
X0195377Y0230698D03*
X0178077Y0242998D03*
D619*
X0200777Y0230731D03*
X0217977Y0243098D03*
D620*
X0195577Y0230765D03*
D621*
X0200641Y0230765D03*
X0198112Y0240665D03*
X0198112Y0241465D03*
D622*
X0198127Y0230798D03*
D623*
X0198127Y0230898D03*
X0183756Y0244931D03*
D624*
X0198127Y0232431D03*
X0198127Y0230998D03*
D625*
X0198106Y0231065D03*
X0198106Y0252865D03*
D626*
X0198127Y0231165D03*
D627*
X0198127Y0231531D03*
X0198127Y0253098D03*
D628*
X0198106Y0232665D03*
D629*
X0198112Y0232765D03*
D630*
X0198127Y0232898D03*
D631*
X0198112Y0232965D03*
D632*
X0198127Y0233131D03*
D633*
X0198127Y0233198D03*
D634*
X0198106Y0233265D03*
D635*
X0198127Y0233365D03*
D636*
X0198127Y0233431D03*
D637*
X0198127Y0233598D03*
D638*
X0198112Y0233665D03*
D639*
X0193862Y0234398D03*
D640*
X0202377Y0234398D03*
D641*
X0193841Y0234431D03*
D642*
X0202391Y0234431D03*
D643*
X0202412Y0234465D03*
X0193812Y0234465D03*
D644*
X0193791Y0234498D03*
D645*
X0202427Y0234498D03*
D646*
X0193777Y0234531D03*
D647*
X0202441Y0234531D03*
D648*
X0202477Y0234565D03*
X0193747Y0234565D03*
D649*
X0193727Y0234598D03*
X0202497Y0234598D03*
D650*
X0202506Y0234631D03*
X0193706Y0234631D03*
D651*
X0193697Y0234665D03*
D652*
X0202541Y0234665D03*
D653*
X0202562Y0234698D03*
X0193662Y0234698D03*
D654*
X0193641Y0234731D03*
D655*
X0202577Y0234731D03*
D656*
X0188677Y0236065D03*
X0193677Y0251565D03*
D657*
X0198112Y0240465D03*
D658*
X0198112Y0240631D03*
X0198112Y0254798D03*
X0217612Y0243298D03*
D659*
X0176577Y0241465D03*
D660*
X0198106Y0241765D03*
D661*
X0183277Y0245465D03*
X0177177Y0242265D03*
D662*
X0201577Y0242465D03*
D663*
X0201512Y0252365D03*
X0194741Y0252365D03*
X0218841Y0242465D03*
D664*
X0177491Y0242565D03*
D665*
X0193727Y0242765D03*
D666*
X0201191Y0252498D03*
X0177791Y0242798D03*
D667*
X0177877Y0242865D03*
D668*
X0177927Y0242898D03*
X0195127Y0252531D03*
D669*
X0218291Y0242898D03*
D670*
X0178127Y0243031D03*
D671*
X0203477Y0243065D03*
D672*
X0191677Y0243165D03*
D673*
X0204541Y0243165D03*
D674*
X0217862Y0243165D03*
D675*
X0217791Y0243198D03*
D676*
X0217727Y0243231D03*
X0200797Y0252598D03*
X0195427Y0252598D03*
X0178497Y0243231D03*
D677*
X0191591Y0243231D03*
D678*
X0204627Y0243231D03*
D679*
X0217662Y0243265D03*
D680*
X0178777Y0243365D03*
D681*
X0217462Y0243365D03*
D682*
X0205527Y0243565D03*
D683*
X0216897Y0243565D03*
D684*
X0216777Y0243598D03*
D685*
X0205897Y0243631D03*
X0179597Y0243631D03*
D686*
X0179727Y0243665D03*
D687*
X0206112Y0243665D03*
D688*
X0198112Y0254365D03*
X0216512Y0243665D03*
D689*
X0216341Y0243698D03*
D690*
X0198106Y0254098D03*
X0189577Y0243731D03*
D691*
X0206627Y0243731D03*
D692*
X0180541Y0243765D03*
D693*
X0207047Y0243765D03*
D694*
X0211412Y0243798D03*
X0184812Y0243798D03*
D695*
X0184777Y0243831D03*
D696*
X0211462Y0243831D03*
D697*
X0211477Y0243865D03*
X0184747Y0243865D03*
D698*
X0184712Y0243898D03*
X0211512Y0243898D03*
D699*
X0184677Y0243931D03*
D700*
X0211527Y0243931D03*
D701*
X0211562Y0243965D03*
X0184662Y0243965D03*
D702*
X0184627Y0243998D03*
D703*
X0211606Y0243998D03*
D704*
X0184591Y0244031D03*
D705*
X0211627Y0244031D03*
D706*
X0211656Y0244065D03*
X0184556Y0244065D03*
D707*
X0184541Y0244098D03*
D708*
X0211697Y0244098D03*
D709*
X0184491Y0244131D03*
D710*
X0211727Y0244131D03*
D711*
X0211747Y0244165D03*
X0184477Y0244165D03*
D712*
X0184427Y0244198D03*
D713*
X0211777Y0244198D03*
D714*
X0211812Y0244231D03*
X0184412Y0244231D03*
D715*
X0184377Y0244265D03*
D716*
X0211841Y0244265D03*
D717*
X0184341Y0244298D03*
D718*
X0211856Y0244298D03*
D719*
X0211912Y0244331D03*
X0184312Y0244331D03*
D720*
X0184291Y0244365D03*
D721*
X0211941Y0244365D03*
D722*
X0211962Y0244398D03*
X0184262Y0244398D03*
D723*
X0184227Y0244431D03*
D724*
X0211991Y0244431D03*
D725*
X0184191Y0244465D03*
D726*
X0212027Y0244465D03*
D727*
X0184177Y0244498D03*
D728*
X0212062Y0244498D03*
D729*
X0184177Y0244531D03*
D730*
X0184227Y0244565D03*
D731*
X0184262Y0244598D03*
X0211962Y0244598D03*
D732*
X0211927Y0244631D03*
X0184297Y0244631D03*
D733*
X0184341Y0244665D03*
D734*
X0211877Y0244665D03*
D735*
X0184391Y0244698D03*
D736*
X0211827Y0244698D03*
D737*
X0184491Y0244765D03*
D738*
X0211727Y0244765D03*
D739*
X0184527Y0244798D03*
D740*
X0184597Y0244831D03*
D741*
X0184647Y0244865D03*
D742*
X0212391Y0244865D03*
D743*
X0183727Y0244965D03*
D744*
X0183677Y0245031D03*
D745*
X0212577Y0245065D03*
D746*
X0183591Y0245131D03*
D747*
X0198112Y0253698D03*
X0212641Y0245131D03*
D748*
X0212662Y0245165D03*
X0183562Y0245165D03*
D749*
X0183527Y0245198D03*
X0212697Y0245198D03*
D750*
X0183491Y0245231D03*
D751*
X0198127Y0254131D03*
X0212727Y0245231D03*
D752*
X0212762Y0245265D03*
X0183462Y0245265D03*
D753*
X0212777Y0245298D03*
D754*
X0212862Y0245365D03*
D755*
X0183327Y0245398D03*
D756*
X0212877Y0245398D03*
D757*
X0201677Y0252265D03*
D758*
X0201277Y0252465D03*
D759*
X0195227Y0252565D03*
D760*
X0198127Y0252765D03*
D761*
X0198127Y0253165D03*
D762*
X0198106Y0253198D03*
D763*
X0198112Y0253265D03*
D764*
X0198106Y0253298D03*
D765*
X0198112Y0253365D03*
D766*
X0198106Y0253398D03*
D767*
X0198127Y0253498D03*
D768*
X0198127Y0253531D03*
D769*
X0198127Y0253565D03*
D770*
X0198106Y0253765D03*
D771*
X0198112Y0253798D03*
D772*
X0198127Y0253831D03*
D773*
X0198106Y0253931D03*
D774*
X0198112Y0253965D03*
D775*
X0198112Y0253998D03*
D776*
X0198112Y0254065D03*
D777*
X0198112Y0254265D03*
D778*
X0198112Y0254298D03*
D779*
X0198127Y0254465D03*
D780*
X0198112Y0254498D03*
D781*
X0198127Y0254531D03*
D782*
X0198112Y0254565D03*
D783*
X0198127Y0254731D03*
D784*
X0198106Y0254765D03*
D785*
X0198106Y0254965D03*
D786*
X0198127Y0255431D03*
D787*
X0163904Y0237103D02*
X0163904Y0133147D01*
X0068629Y0133147D01*
X0068629Y0237103D01*
X0093530Y0262005D01*
X0139003Y0262005D01*
X0163904Y0237103D01*
D788*
X0145542Y0212570D02*
X0083263Y0212570D01*
X0083263Y0191683D02*
X0145542Y0191683D01*
D789*
X0015384Y0019927D02*
X0014900Y0019927D01*
X0014417Y0020410D01*
X0015384Y0019927D02*
X0015868Y0020410D01*
X0015868Y0022829D01*
X0015384Y0022829D02*
X0016352Y0022829D01*
X0015384Y0029927D02*
X0014417Y0029927D01*
X0014900Y0029927D02*
X0014900Y0032829D01*
X0014417Y0032829D02*
X0015384Y0032829D01*
X0014417Y0039927D02*
X0014417Y0042829D01*
X0014417Y0041378D02*
X0016352Y0041378D01*
X0016352Y0042829D02*
X0016352Y0039927D01*
X0015868Y0049927D02*
X0016352Y0050410D01*
X0016352Y0051378D01*
X0015384Y0051378D01*
X0014417Y0052345D02*
X0014417Y0050410D01*
X0014900Y0049927D01*
X0015868Y0049927D01*
X0016352Y0052345D02*
X0015868Y0052829D01*
X0014900Y0052829D01*
X0014417Y0052345D01*
X0014417Y0059927D02*
X0014417Y0062829D01*
X0016352Y0062829D01*
X0015384Y0061378D02*
X0014417Y0061378D01*
X0014417Y0069927D02*
X0016352Y0069927D01*
X0015384Y0071378D02*
X0014417Y0071378D01*
X0014417Y0072829D02*
X0014417Y0069927D01*
X0014417Y0072829D02*
X0016352Y0072829D01*
X0015868Y0079927D02*
X0016352Y0080410D01*
X0016352Y0082345D01*
X0015868Y0082829D01*
X0014417Y0082829D01*
X0014417Y0079927D01*
X0015868Y0079927D01*
X0015868Y0089927D02*
X0016352Y0090410D01*
X0015868Y0089927D02*
X0014900Y0089927D01*
X0014417Y0090410D01*
X0014417Y0092345D01*
X0014900Y0092829D01*
X0015868Y0092829D01*
X0016352Y0092345D01*
X0015868Y0099927D02*
X0014417Y0099927D01*
X0014417Y0102829D01*
X0015868Y0102829D01*
X0016352Y0102345D01*
X0016352Y0101862D01*
X0015868Y0101378D01*
X0014417Y0101378D01*
X0015868Y0101378D02*
X0016352Y0100894D01*
X0016352Y0100410D01*
X0015868Y0099927D01*
X0016352Y0109927D02*
X0016352Y0111862D01*
X0015384Y0112829D01*
X0014417Y0111862D01*
X0014417Y0109927D01*
X0014417Y0111378D02*
X0016352Y0111378D01*
X0108917Y0115927D02*
X0110852Y0115927D01*
X0109884Y0115927D02*
X0109884Y0118829D01*
X0108917Y0117862D01*
X0111863Y0118345D02*
X0111863Y0116410D01*
X0113798Y0118345D01*
X0113798Y0116410D01*
X0113314Y0115927D01*
X0112347Y0115927D01*
X0111863Y0116410D01*
X0111863Y0118345D02*
X0112347Y0118829D01*
X0113314Y0118829D01*
X0113798Y0118345D01*
X0118917Y0117862D02*
X0119884Y0118829D01*
X0119884Y0115927D01*
X0118917Y0115927D02*
X0120852Y0115927D01*
X0121863Y0115927D02*
X0123798Y0115927D01*
X0122831Y0115927D02*
X0122831Y0118829D01*
X0121863Y0117862D01*
X0128917Y0117862D02*
X0129884Y0118829D01*
X0129884Y0115927D01*
X0128917Y0115927D02*
X0130852Y0115927D01*
X0131863Y0115927D02*
X0133798Y0117862D01*
X0133798Y0118345D01*
X0133314Y0118829D01*
X0132347Y0118829D01*
X0131863Y0118345D01*
X0131863Y0115927D02*
X0133798Y0115927D01*
X0138917Y0115927D02*
X0140852Y0115927D01*
X0139884Y0115927D02*
X0139884Y0118829D01*
X0138917Y0117862D01*
X0141863Y0118345D02*
X0142347Y0118829D01*
X0143314Y0118829D01*
X0143798Y0118345D01*
X0143798Y0117862D01*
X0143314Y0117378D01*
X0143798Y0116894D01*
X0143798Y0116410D01*
X0143314Y0115927D01*
X0142347Y0115927D01*
X0141863Y0116410D01*
X0142831Y0117378D02*
X0143314Y0117378D01*
X0148917Y0117862D02*
X0149884Y0118829D01*
X0149884Y0115927D01*
X0148917Y0115927D02*
X0150852Y0115927D01*
X0151863Y0117378D02*
X0153314Y0118829D01*
X0153314Y0115927D01*
X0153798Y0117378D02*
X0151863Y0117378D01*
X0158917Y0117862D02*
X0159884Y0118829D01*
X0159884Y0115927D01*
X0158917Y0115927D02*
X0160852Y0115927D01*
X0161863Y0116410D02*
X0162347Y0115927D01*
X0163314Y0115927D01*
X0163798Y0116410D01*
X0163798Y0117378D01*
X0163314Y0117862D01*
X0162831Y0117862D01*
X0161863Y0117378D01*
X0161863Y0118829D01*
X0163798Y0118829D01*
X0168917Y0117862D02*
X0169884Y0118829D01*
X0169884Y0115927D01*
X0168917Y0115927D02*
X0170852Y0115927D01*
X0171863Y0116410D02*
X0172347Y0115927D01*
X0173314Y0115927D01*
X0173798Y0116410D01*
X0173798Y0116894D01*
X0173314Y0117378D01*
X0171863Y0117378D01*
X0171863Y0116410D01*
X0171863Y0117378D02*
X0172831Y0118345D01*
X0173798Y0118829D01*
X0178917Y0117862D02*
X0179884Y0118829D01*
X0179884Y0115927D01*
X0178917Y0115927D02*
X0180852Y0115927D01*
X0181863Y0115927D02*
X0181863Y0116410D01*
X0183798Y0118345D01*
X0183798Y0118829D01*
X0181863Y0118829D01*
X0188917Y0117862D02*
X0189884Y0118829D01*
X0189884Y0115927D01*
X0188917Y0115927D02*
X0190852Y0115927D01*
X0191863Y0116410D02*
X0191863Y0116894D01*
X0192347Y0117378D01*
X0193314Y0117378D01*
X0193798Y0116894D01*
X0193798Y0116410D01*
X0193314Y0115927D01*
X0192347Y0115927D01*
X0191863Y0116410D01*
X0192347Y0117378D02*
X0191863Y0117862D01*
X0191863Y0118345D01*
X0192347Y0118829D01*
X0193314Y0118829D01*
X0193798Y0118345D01*
X0193798Y0117862D01*
X0193314Y0117378D01*
X0198917Y0117862D02*
X0199884Y0118829D01*
X0199884Y0115927D01*
X0198917Y0115927D02*
X0200852Y0115927D01*
X0201863Y0116410D02*
X0202347Y0115927D01*
X0203314Y0115927D01*
X0203798Y0116410D01*
X0203798Y0118345D01*
X0203314Y0118829D01*
X0202347Y0118829D01*
X0201863Y0118345D01*
X0201863Y0117862D01*
X0202347Y0117378D01*
X0203798Y0117378D01*
X0208917Y0118345D02*
X0209400Y0118829D01*
X0210368Y0118829D01*
X0210852Y0118345D01*
X0210852Y0117862D01*
X0208917Y0115927D01*
X0210852Y0115927D01*
X0211863Y0116410D02*
X0213798Y0118345D01*
X0213798Y0116410D01*
X0213314Y0115927D01*
X0212347Y0115927D01*
X0211863Y0116410D01*
X0211863Y0118345D01*
X0212347Y0118829D01*
X0213314Y0118829D01*
X0213798Y0118345D01*
X0216884Y0112829D02*
X0217852Y0111862D01*
X0217852Y0109927D01*
X0217852Y0111378D02*
X0215917Y0111378D01*
X0215917Y0111862D02*
X0216884Y0112829D01*
X0215917Y0111862D02*
X0215917Y0109927D01*
X0215917Y0102829D02*
X0217368Y0102829D01*
X0217852Y0102345D01*
X0217852Y0101862D01*
X0217368Y0101378D01*
X0215917Y0101378D01*
X0217368Y0101378D02*
X0217852Y0100894D01*
X0217852Y0100410D01*
X0217368Y0099927D01*
X0215917Y0099927D01*
X0215917Y0102829D01*
X0216400Y0092829D02*
X0215917Y0092345D01*
X0215917Y0090410D01*
X0216400Y0089927D01*
X0217368Y0089927D01*
X0217852Y0090410D01*
X0217852Y0092345D02*
X0217368Y0092829D01*
X0216400Y0092829D01*
X0215917Y0082829D02*
X0217368Y0082829D01*
X0217852Y0082345D01*
X0217852Y0080410D01*
X0217368Y0079927D01*
X0215917Y0079927D01*
X0215917Y0082829D01*
X0215917Y0072829D02*
X0215917Y0069927D01*
X0217852Y0069927D01*
X0216884Y0071378D02*
X0215917Y0071378D01*
X0215917Y0072829D02*
X0217852Y0072829D01*
X0217852Y0062829D02*
X0215917Y0062829D01*
X0215917Y0059927D01*
X0215917Y0061378D02*
X0216884Y0061378D01*
X0216400Y0052829D02*
X0215917Y0052345D01*
X0215917Y0050410D01*
X0216400Y0049927D01*
X0217368Y0049927D01*
X0217852Y0050410D01*
X0217852Y0051378D01*
X0216884Y0051378D01*
X0217852Y0052345D02*
X0217368Y0052829D01*
X0216400Y0052829D01*
X0215917Y0042829D02*
X0215917Y0039927D01*
X0215917Y0041378D02*
X0217852Y0041378D01*
X0217852Y0042829D02*
X0217852Y0039927D01*
X0216884Y0032829D02*
X0215917Y0032829D01*
X0216400Y0032829D02*
X0216400Y0029927D01*
X0215917Y0029927D02*
X0216884Y0029927D01*
X0216884Y0022829D02*
X0217852Y0022829D01*
X0217368Y0022829D02*
X0217368Y0020410D01*
X0216884Y0019927D01*
X0216400Y0019927D01*
X0215917Y0020410D01*
X0213314Y0017329D02*
X0213798Y0016845D01*
X0211863Y0014910D01*
X0212347Y0014427D01*
X0213314Y0014427D01*
X0213798Y0014910D01*
X0213798Y0016845D01*
X0213314Y0017329D02*
X0212347Y0017329D01*
X0211863Y0016845D01*
X0211863Y0014910D01*
X0210852Y0014427D02*
X0208917Y0014427D01*
X0210852Y0016362D01*
X0210852Y0016845D01*
X0210368Y0017329D01*
X0209400Y0017329D01*
X0208917Y0016845D01*
X0203798Y0016845D02*
X0203798Y0014910D01*
X0203314Y0014427D01*
X0202347Y0014427D01*
X0201863Y0014910D01*
X0202347Y0015878D02*
X0201863Y0016362D01*
X0201863Y0016845D01*
X0202347Y0017329D01*
X0203314Y0017329D01*
X0203798Y0016845D01*
X0203798Y0015878D02*
X0202347Y0015878D01*
X0200852Y0014427D02*
X0198917Y0014427D01*
X0199884Y0014427D02*
X0199884Y0017329D01*
X0198917Y0016362D01*
X0193798Y0016362D02*
X0193314Y0015878D01*
X0192347Y0015878D01*
X0191863Y0016362D01*
X0191863Y0016845D01*
X0192347Y0017329D01*
X0193314Y0017329D01*
X0193798Y0016845D01*
X0193798Y0016362D01*
X0193314Y0015878D02*
X0193798Y0015394D01*
X0193798Y0014910D01*
X0193314Y0014427D01*
X0192347Y0014427D01*
X0191863Y0014910D01*
X0191863Y0015394D01*
X0192347Y0015878D01*
X0190852Y0014427D02*
X0188917Y0014427D01*
X0189884Y0014427D02*
X0189884Y0017329D01*
X0188917Y0016362D01*
X0183798Y0016845D02*
X0181863Y0014910D01*
X0181863Y0014427D01*
X0180852Y0014427D02*
X0178917Y0014427D01*
X0179884Y0014427D02*
X0179884Y0017329D01*
X0178917Y0016362D01*
X0181863Y0017329D02*
X0183798Y0017329D01*
X0183798Y0016845D01*
X0173798Y0017329D02*
X0172831Y0016845D01*
X0171863Y0015878D01*
X0173314Y0015878D01*
X0173798Y0015394D01*
X0173798Y0014910D01*
X0173314Y0014427D01*
X0172347Y0014427D01*
X0171863Y0014910D01*
X0171863Y0015878D01*
X0170852Y0014427D02*
X0168917Y0014427D01*
X0169884Y0014427D02*
X0169884Y0017329D01*
X0168917Y0016362D01*
X0163798Y0015878D02*
X0163798Y0014910D01*
X0163314Y0014427D01*
X0162347Y0014427D01*
X0161863Y0014910D01*
X0161863Y0015878D02*
X0162831Y0016362D01*
X0163314Y0016362D01*
X0163798Y0015878D01*
X0163798Y0017329D02*
X0161863Y0017329D01*
X0161863Y0015878D01*
X0160852Y0014427D02*
X0158917Y0014427D01*
X0159884Y0014427D02*
X0159884Y0017329D01*
X0158917Y0016362D01*
X0153798Y0015878D02*
X0151863Y0015878D01*
X0153314Y0017329D01*
X0153314Y0014427D01*
X0150852Y0014427D02*
X0148917Y0014427D01*
X0149884Y0014427D02*
X0149884Y0017329D01*
X0148917Y0016362D01*
X0143798Y0016362D02*
X0143314Y0015878D01*
X0143798Y0015394D01*
X0143798Y0014910D01*
X0143314Y0014427D01*
X0142347Y0014427D01*
X0141863Y0014910D01*
X0140852Y0014427D02*
X0138917Y0014427D01*
X0139884Y0014427D02*
X0139884Y0017329D01*
X0138917Y0016362D01*
X0141863Y0016845D02*
X0142347Y0017329D01*
X0143314Y0017329D01*
X0143798Y0016845D01*
X0143798Y0016362D01*
X0143314Y0015878D02*
X0142831Y0015878D01*
X0133798Y0016362D02*
X0133798Y0016845D01*
X0133314Y0017329D01*
X0132347Y0017329D01*
X0131863Y0016845D01*
X0133798Y0016362D02*
X0131863Y0014427D01*
X0133798Y0014427D01*
X0130852Y0014427D02*
X0128917Y0014427D01*
X0129884Y0014427D02*
X0129884Y0017329D01*
X0128917Y0016362D01*
X0123798Y0014427D02*
X0121863Y0014427D01*
X0122831Y0014427D02*
X0122831Y0017329D01*
X0121863Y0016362D01*
X0120852Y0014427D02*
X0118917Y0014427D01*
X0119884Y0014427D02*
X0119884Y0017329D01*
X0118917Y0016362D01*
X0113798Y0016845D02*
X0111863Y0014910D01*
X0112347Y0014427D01*
X0113314Y0014427D01*
X0113798Y0014910D01*
X0113798Y0016845D01*
X0113314Y0017329D01*
X0112347Y0017329D01*
X0111863Y0016845D01*
X0111863Y0014910D01*
X0110852Y0014427D02*
X0108917Y0014427D01*
X0109884Y0014427D02*
X0109884Y0017329D01*
X0108917Y0016362D01*
M02*
