G75*
%MOIN*%
%OFA0B0*%
%FSLAX25Y25*%
%IPPOS*%
%LPD*%
%AMOC8*
5,1,8,0,0,1.08239X$1,22.5*
%
%ADD10C,0.00000*%
%ADD11C,0.05150*%
%ADD12R,0.05512X0.05512*%
%ADD13C,0.05512*%
D10*
X0001267Y0001277D02*
X0001267Y0266277D01*
X0231267Y0266277D01*
X0231267Y0001277D01*
X0001267Y0001277D01*
X0006936Y0011277D02*
X0006938Y0011408D01*
X0006944Y0011540D01*
X0006954Y0011671D01*
X0006968Y0011802D01*
X0006986Y0011932D01*
X0007008Y0012061D01*
X0007033Y0012190D01*
X0007063Y0012318D01*
X0007097Y0012445D01*
X0007134Y0012572D01*
X0007175Y0012696D01*
X0007220Y0012820D01*
X0007269Y0012942D01*
X0007321Y0013063D01*
X0007377Y0013181D01*
X0007437Y0013299D01*
X0007500Y0013414D01*
X0007567Y0013527D01*
X0007637Y0013639D01*
X0007710Y0013748D01*
X0007786Y0013854D01*
X0007866Y0013959D01*
X0007949Y0014061D01*
X0008035Y0014160D01*
X0008124Y0014257D01*
X0008216Y0014351D01*
X0008311Y0014442D01*
X0008408Y0014531D01*
X0008508Y0014616D01*
X0008611Y0014698D01*
X0008716Y0014777D01*
X0008823Y0014853D01*
X0008933Y0014925D01*
X0009045Y0014994D01*
X0009159Y0015060D01*
X0009274Y0015122D01*
X0009392Y0015181D01*
X0009511Y0015236D01*
X0009632Y0015288D01*
X0009755Y0015335D01*
X0009879Y0015379D01*
X0010004Y0015420D01*
X0010130Y0015456D01*
X0010258Y0015489D01*
X0010386Y0015517D01*
X0010515Y0015542D01*
X0010645Y0015563D01*
X0010775Y0015580D01*
X0010906Y0015593D01*
X0011037Y0015602D01*
X0011168Y0015607D01*
X0011300Y0015608D01*
X0011431Y0015605D01*
X0011563Y0015598D01*
X0011694Y0015587D01*
X0011824Y0015572D01*
X0011954Y0015553D01*
X0012084Y0015530D01*
X0012212Y0015504D01*
X0012340Y0015473D01*
X0012467Y0015438D01*
X0012593Y0015400D01*
X0012717Y0015358D01*
X0012841Y0015312D01*
X0012962Y0015262D01*
X0013082Y0015209D01*
X0013201Y0015152D01*
X0013318Y0015092D01*
X0013432Y0015028D01*
X0013545Y0014960D01*
X0013656Y0014889D01*
X0013765Y0014815D01*
X0013871Y0014738D01*
X0013975Y0014657D01*
X0014076Y0014574D01*
X0014175Y0014487D01*
X0014271Y0014397D01*
X0014364Y0014304D01*
X0014455Y0014209D01*
X0014542Y0014111D01*
X0014627Y0014010D01*
X0014708Y0013907D01*
X0014786Y0013801D01*
X0014861Y0013693D01*
X0014933Y0013583D01*
X0015001Y0013471D01*
X0015066Y0013357D01*
X0015127Y0013240D01*
X0015185Y0013122D01*
X0015239Y0013002D01*
X0015290Y0012881D01*
X0015337Y0012758D01*
X0015380Y0012634D01*
X0015419Y0012509D01*
X0015455Y0012382D01*
X0015486Y0012254D01*
X0015514Y0012126D01*
X0015538Y0011997D01*
X0015558Y0011867D01*
X0015574Y0011736D01*
X0015586Y0011605D01*
X0015594Y0011474D01*
X0015598Y0011343D01*
X0015598Y0011211D01*
X0015594Y0011080D01*
X0015586Y0010949D01*
X0015574Y0010818D01*
X0015558Y0010687D01*
X0015538Y0010557D01*
X0015514Y0010428D01*
X0015486Y0010300D01*
X0015455Y0010172D01*
X0015419Y0010045D01*
X0015380Y0009920D01*
X0015337Y0009796D01*
X0015290Y0009673D01*
X0015239Y0009552D01*
X0015185Y0009432D01*
X0015127Y0009314D01*
X0015066Y0009197D01*
X0015001Y0009083D01*
X0014933Y0008971D01*
X0014861Y0008861D01*
X0014786Y0008753D01*
X0014708Y0008647D01*
X0014627Y0008544D01*
X0014542Y0008443D01*
X0014455Y0008345D01*
X0014364Y0008250D01*
X0014271Y0008157D01*
X0014175Y0008067D01*
X0014076Y0007980D01*
X0013975Y0007897D01*
X0013871Y0007816D01*
X0013765Y0007739D01*
X0013656Y0007665D01*
X0013545Y0007594D01*
X0013433Y0007526D01*
X0013318Y0007462D01*
X0013201Y0007402D01*
X0013082Y0007345D01*
X0012962Y0007292D01*
X0012841Y0007242D01*
X0012717Y0007196D01*
X0012593Y0007154D01*
X0012467Y0007116D01*
X0012340Y0007081D01*
X0012212Y0007050D01*
X0012084Y0007024D01*
X0011954Y0007001D01*
X0011824Y0006982D01*
X0011694Y0006967D01*
X0011563Y0006956D01*
X0011431Y0006949D01*
X0011300Y0006946D01*
X0011168Y0006947D01*
X0011037Y0006952D01*
X0010906Y0006961D01*
X0010775Y0006974D01*
X0010645Y0006991D01*
X0010515Y0007012D01*
X0010386Y0007037D01*
X0010258Y0007065D01*
X0010130Y0007098D01*
X0010004Y0007134D01*
X0009879Y0007175D01*
X0009755Y0007219D01*
X0009632Y0007266D01*
X0009511Y0007318D01*
X0009392Y0007373D01*
X0009274Y0007432D01*
X0009159Y0007494D01*
X0009045Y0007560D01*
X0008933Y0007629D01*
X0008823Y0007701D01*
X0008716Y0007777D01*
X0008611Y0007856D01*
X0008508Y0007938D01*
X0008408Y0008023D01*
X0008311Y0008112D01*
X0008216Y0008203D01*
X0008124Y0008297D01*
X0008035Y0008394D01*
X0007949Y0008493D01*
X0007866Y0008595D01*
X0007786Y0008700D01*
X0007710Y0008806D01*
X0007637Y0008915D01*
X0007567Y0009027D01*
X0007500Y0009140D01*
X0007437Y0009255D01*
X0007377Y0009373D01*
X0007321Y0009491D01*
X0007269Y0009612D01*
X0007220Y0009734D01*
X0007175Y0009858D01*
X0007134Y0009982D01*
X0007097Y0010109D01*
X0007063Y0010236D01*
X0007033Y0010364D01*
X0007008Y0010493D01*
X0006986Y0010622D01*
X0006968Y0010752D01*
X0006954Y0010883D01*
X0006944Y0011014D01*
X0006938Y0011146D01*
X0006936Y0011277D01*
X0006936Y0256277D02*
X0006938Y0256408D01*
X0006944Y0256540D01*
X0006954Y0256671D01*
X0006968Y0256802D01*
X0006986Y0256932D01*
X0007008Y0257061D01*
X0007033Y0257190D01*
X0007063Y0257318D01*
X0007097Y0257445D01*
X0007134Y0257572D01*
X0007175Y0257696D01*
X0007220Y0257820D01*
X0007269Y0257942D01*
X0007321Y0258063D01*
X0007377Y0258181D01*
X0007437Y0258299D01*
X0007500Y0258414D01*
X0007567Y0258527D01*
X0007637Y0258639D01*
X0007710Y0258748D01*
X0007786Y0258854D01*
X0007866Y0258959D01*
X0007949Y0259061D01*
X0008035Y0259160D01*
X0008124Y0259257D01*
X0008216Y0259351D01*
X0008311Y0259442D01*
X0008408Y0259531D01*
X0008508Y0259616D01*
X0008611Y0259698D01*
X0008716Y0259777D01*
X0008823Y0259853D01*
X0008933Y0259925D01*
X0009045Y0259994D01*
X0009159Y0260060D01*
X0009274Y0260122D01*
X0009392Y0260181D01*
X0009511Y0260236D01*
X0009632Y0260288D01*
X0009755Y0260335D01*
X0009879Y0260379D01*
X0010004Y0260420D01*
X0010130Y0260456D01*
X0010258Y0260489D01*
X0010386Y0260517D01*
X0010515Y0260542D01*
X0010645Y0260563D01*
X0010775Y0260580D01*
X0010906Y0260593D01*
X0011037Y0260602D01*
X0011168Y0260607D01*
X0011300Y0260608D01*
X0011431Y0260605D01*
X0011563Y0260598D01*
X0011694Y0260587D01*
X0011824Y0260572D01*
X0011954Y0260553D01*
X0012084Y0260530D01*
X0012212Y0260504D01*
X0012340Y0260473D01*
X0012467Y0260438D01*
X0012593Y0260400D01*
X0012717Y0260358D01*
X0012841Y0260312D01*
X0012962Y0260262D01*
X0013082Y0260209D01*
X0013201Y0260152D01*
X0013318Y0260092D01*
X0013432Y0260028D01*
X0013545Y0259960D01*
X0013656Y0259889D01*
X0013765Y0259815D01*
X0013871Y0259738D01*
X0013975Y0259657D01*
X0014076Y0259574D01*
X0014175Y0259487D01*
X0014271Y0259397D01*
X0014364Y0259304D01*
X0014455Y0259209D01*
X0014542Y0259111D01*
X0014627Y0259010D01*
X0014708Y0258907D01*
X0014786Y0258801D01*
X0014861Y0258693D01*
X0014933Y0258583D01*
X0015001Y0258471D01*
X0015066Y0258357D01*
X0015127Y0258240D01*
X0015185Y0258122D01*
X0015239Y0258002D01*
X0015290Y0257881D01*
X0015337Y0257758D01*
X0015380Y0257634D01*
X0015419Y0257509D01*
X0015455Y0257382D01*
X0015486Y0257254D01*
X0015514Y0257126D01*
X0015538Y0256997D01*
X0015558Y0256867D01*
X0015574Y0256736D01*
X0015586Y0256605D01*
X0015594Y0256474D01*
X0015598Y0256343D01*
X0015598Y0256211D01*
X0015594Y0256080D01*
X0015586Y0255949D01*
X0015574Y0255818D01*
X0015558Y0255687D01*
X0015538Y0255557D01*
X0015514Y0255428D01*
X0015486Y0255300D01*
X0015455Y0255172D01*
X0015419Y0255045D01*
X0015380Y0254920D01*
X0015337Y0254796D01*
X0015290Y0254673D01*
X0015239Y0254552D01*
X0015185Y0254432D01*
X0015127Y0254314D01*
X0015066Y0254197D01*
X0015001Y0254083D01*
X0014933Y0253971D01*
X0014861Y0253861D01*
X0014786Y0253753D01*
X0014708Y0253647D01*
X0014627Y0253544D01*
X0014542Y0253443D01*
X0014455Y0253345D01*
X0014364Y0253250D01*
X0014271Y0253157D01*
X0014175Y0253067D01*
X0014076Y0252980D01*
X0013975Y0252897D01*
X0013871Y0252816D01*
X0013765Y0252739D01*
X0013656Y0252665D01*
X0013545Y0252594D01*
X0013433Y0252526D01*
X0013318Y0252462D01*
X0013201Y0252402D01*
X0013082Y0252345D01*
X0012962Y0252292D01*
X0012841Y0252242D01*
X0012717Y0252196D01*
X0012593Y0252154D01*
X0012467Y0252116D01*
X0012340Y0252081D01*
X0012212Y0252050D01*
X0012084Y0252024D01*
X0011954Y0252001D01*
X0011824Y0251982D01*
X0011694Y0251967D01*
X0011563Y0251956D01*
X0011431Y0251949D01*
X0011300Y0251946D01*
X0011168Y0251947D01*
X0011037Y0251952D01*
X0010906Y0251961D01*
X0010775Y0251974D01*
X0010645Y0251991D01*
X0010515Y0252012D01*
X0010386Y0252037D01*
X0010258Y0252065D01*
X0010130Y0252098D01*
X0010004Y0252134D01*
X0009879Y0252175D01*
X0009755Y0252219D01*
X0009632Y0252266D01*
X0009511Y0252318D01*
X0009392Y0252373D01*
X0009274Y0252432D01*
X0009159Y0252494D01*
X0009045Y0252560D01*
X0008933Y0252629D01*
X0008823Y0252701D01*
X0008716Y0252777D01*
X0008611Y0252856D01*
X0008508Y0252938D01*
X0008408Y0253023D01*
X0008311Y0253112D01*
X0008216Y0253203D01*
X0008124Y0253297D01*
X0008035Y0253394D01*
X0007949Y0253493D01*
X0007866Y0253595D01*
X0007786Y0253700D01*
X0007710Y0253806D01*
X0007637Y0253915D01*
X0007567Y0254027D01*
X0007500Y0254140D01*
X0007437Y0254255D01*
X0007377Y0254373D01*
X0007321Y0254491D01*
X0007269Y0254612D01*
X0007220Y0254734D01*
X0007175Y0254858D01*
X0007134Y0254982D01*
X0007097Y0255109D01*
X0007063Y0255236D01*
X0007033Y0255364D01*
X0007008Y0255493D01*
X0006986Y0255622D01*
X0006968Y0255752D01*
X0006954Y0255883D01*
X0006944Y0256014D01*
X0006938Y0256146D01*
X0006936Y0256277D01*
X0216936Y0256277D02*
X0216938Y0256408D01*
X0216944Y0256540D01*
X0216954Y0256671D01*
X0216968Y0256802D01*
X0216986Y0256932D01*
X0217008Y0257061D01*
X0217033Y0257190D01*
X0217063Y0257318D01*
X0217097Y0257445D01*
X0217134Y0257572D01*
X0217175Y0257696D01*
X0217220Y0257820D01*
X0217269Y0257942D01*
X0217321Y0258063D01*
X0217377Y0258181D01*
X0217437Y0258299D01*
X0217500Y0258414D01*
X0217567Y0258527D01*
X0217637Y0258639D01*
X0217710Y0258748D01*
X0217786Y0258854D01*
X0217866Y0258959D01*
X0217949Y0259061D01*
X0218035Y0259160D01*
X0218124Y0259257D01*
X0218216Y0259351D01*
X0218311Y0259442D01*
X0218408Y0259531D01*
X0218508Y0259616D01*
X0218611Y0259698D01*
X0218716Y0259777D01*
X0218823Y0259853D01*
X0218933Y0259925D01*
X0219045Y0259994D01*
X0219159Y0260060D01*
X0219274Y0260122D01*
X0219392Y0260181D01*
X0219511Y0260236D01*
X0219632Y0260288D01*
X0219755Y0260335D01*
X0219879Y0260379D01*
X0220004Y0260420D01*
X0220130Y0260456D01*
X0220258Y0260489D01*
X0220386Y0260517D01*
X0220515Y0260542D01*
X0220645Y0260563D01*
X0220775Y0260580D01*
X0220906Y0260593D01*
X0221037Y0260602D01*
X0221168Y0260607D01*
X0221300Y0260608D01*
X0221431Y0260605D01*
X0221563Y0260598D01*
X0221694Y0260587D01*
X0221824Y0260572D01*
X0221954Y0260553D01*
X0222084Y0260530D01*
X0222212Y0260504D01*
X0222340Y0260473D01*
X0222467Y0260438D01*
X0222593Y0260400D01*
X0222717Y0260358D01*
X0222841Y0260312D01*
X0222962Y0260262D01*
X0223082Y0260209D01*
X0223201Y0260152D01*
X0223318Y0260092D01*
X0223432Y0260028D01*
X0223545Y0259960D01*
X0223656Y0259889D01*
X0223765Y0259815D01*
X0223871Y0259738D01*
X0223975Y0259657D01*
X0224076Y0259574D01*
X0224175Y0259487D01*
X0224271Y0259397D01*
X0224364Y0259304D01*
X0224455Y0259209D01*
X0224542Y0259111D01*
X0224627Y0259010D01*
X0224708Y0258907D01*
X0224786Y0258801D01*
X0224861Y0258693D01*
X0224933Y0258583D01*
X0225001Y0258471D01*
X0225066Y0258357D01*
X0225127Y0258240D01*
X0225185Y0258122D01*
X0225239Y0258002D01*
X0225290Y0257881D01*
X0225337Y0257758D01*
X0225380Y0257634D01*
X0225419Y0257509D01*
X0225455Y0257382D01*
X0225486Y0257254D01*
X0225514Y0257126D01*
X0225538Y0256997D01*
X0225558Y0256867D01*
X0225574Y0256736D01*
X0225586Y0256605D01*
X0225594Y0256474D01*
X0225598Y0256343D01*
X0225598Y0256211D01*
X0225594Y0256080D01*
X0225586Y0255949D01*
X0225574Y0255818D01*
X0225558Y0255687D01*
X0225538Y0255557D01*
X0225514Y0255428D01*
X0225486Y0255300D01*
X0225455Y0255172D01*
X0225419Y0255045D01*
X0225380Y0254920D01*
X0225337Y0254796D01*
X0225290Y0254673D01*
X0225239Y0254552D01*
X0225185Y0254432D01*
X0225127Y0254314D01*
X0225066Y0254197D01*
X0225001Y0254083D01*
X0224933Y0253971D01*
X0224861Y0253861D01*
X0224786Y0253753D01*
X0224708Y0253647D01*
X0224627Y0253544D01*
X0224542Y0253443D01*
X0224455Y0253345D01*
X0224364Y0253250D01*
X0224271Y0253157D01*
X0224175Y0253067D01*
X0224076Y0252980D01*
X0223975Y0252897D01*
X0223871Y0252816D01*
X0223765Y0252739D01*
X0223656Y0252665D01*
X0223545Y0252594D01*
X0223433Y0252526D01*
X0223318Y0252462D01*
X0223201Y0252402D01*
X0223082Y0252345D01*
X0222962Y0252292D01*
X0222841Y0252242D01*
X0222717Y0252196D01*
X0222593Y0252154D01*
X0222467Y0252116D01*
X0222340Y0252081D01*
X0222212Y0252050D01*
X0222084Y0252024D01*
X0221954Y0252001D01*
X0221824Y0251982D01*
X0221694Y0251967D01*
X0221563Y0251956D01*
X0221431Y0251949D01*
X0221300Y0251946D01*
X0221168Y0251947D01*
X0221037Y0251952D01*
X0220906Y0251961D01*
X0220775Y0251974D01*
X0220645Y0251991D01*
X0220515Y0252012D01*
X0220386Y0252037D01*
X0220258Y0252065D01*
X0220130Y0252098D01*
X0220004Y0252134D01*
X0219879Y0252175D01*
X0219755Y0252219D01*
X0219632Y0252266D01*
X0219511Y0252318D01*
X0219392Y0252373D01*
X0219274Y0252432D01*
X0219159Y0252494D01*
X0219045Y0252560D01*
X0218933Y0252629D01*
X0218823Y0252701D01*
X0218716Y0252777D01*
X0218611Y0252856D01*
X0218508Y0252938D01*
X0218408Y0253023D01*
X0218311Y0253112D01*
X0218216Y0253203D01*
X0218124Y0253297D01*
X0218035Y0253394D01*
X0217949Y0253493D01*
X0217866Y0253595D01*
X0217786Y0253700D01*
X0217710Y0253806D01*
X0217637Y0253915D01*
X0217567Y0254027D01*
X0217500Y0254140D01*
X0217437Y0254255D01*
X0217377Y0254373D01*
X0217321Y0254491D01*
X0217269Y0254612D01*
X0217220Y0254734D01*
X0217175Y0254858D01*
X0217134Y0254982D01*
X0217097Y0255109D01*
X0217063Y0255236D01*
X0217033Y0255364D01*
X0217008Y0255493D01*
X0216986Y0255622D01*
X0216968Y0255752D01*
X0216954Y0255883D01*
X0216944Y0256014D01*
X0216938Y0256146D01*
X0216936Y0256277D01*
X0216936Y0011277D02*
X0216938Y0011408D01*
X0216944Y0011540D01*
X0216954Y0011671D01*
X0216968Y0011802D01*
X0216986Y0011932D01*
X0217008Y0012061D01*
X0217033Y0012190D01*
X0217063Y0012318D01*
X0217097Y0012445D01*
X0217134Y0012572D01*
X0217175Y0012696D01*
X0217220Y0012820D01*
X0217269Y0012942D01*
X0217321Y0013063D01*
X0217377Y0013181D01*
X0217437Y0013299D01*
X0217500Y0013414D01*
X0217567Y0013527D01*
X0217637Y0013639D01*
X0217710Y0013748D01*
X0217786Y0013854D01*
X0217866Y0013959D01*
X0217949Y0014061D01*
X0218035Y0014160D01*
X0218124Y0014257D01*
X0218216Y0014351D01*
X0218311Y0014442D01*
X0218408Y0014531D01*
X0218508Y0014616D01*
X0218611Y0014698D01*
X0218716Y0014777D01*
X0218823Y0014853D01*
X0218933Y0014925D01*
X0219045Y0014994D01*
X0219159Y0015060D01*
X0219274Y0015122D01*
X0219392Y0015181D01*
X0219511Y0015236D01*
X0219632Y0015288D01*
X0219755Y0015335D01*
X0219879Y0015379D01*
X0220004Y0015420D01*
X0220130Y0015456D01*
X0220258Y0015489D01*
X0220386Y0015517D01*
X0220515Y0015542D01*
X0220645Y0015563D01*
X0220775Y0015580D01*
X0220906Y0015593D01*
X0221037Y0015602D01*
X0221168Y0015607D01*
X0221300Y0015608D01*
X0221431Y0015605D01*
X0221563Y0015598D01*
X0221694Y0015587D01*
X0221824Y0015572D01*
X0221954Y0015553D01*
X0222084Y0015530D01*
X0222212Y0015504D01*
X0222340Y0015473D01*
X0222467Y0015438D01*
X0222593Y0015400D01*
X0222717Y0015358D01*
X0222841Y0015312D01*
X0222962Y0015262D01*
X0223082Y0015209D01*
X0223201Y0015152D01*
X0223318Y0015092D01*
X0223432Y0015028D01*
X0223545Y0014960D01*
X0223656Y0014889D01*
X0223765Y0014815D01*
X0223871Y0014738D01*
X0223975Y0014657D01*
X0224076Y0014574D01*
X0224175Y0014487D01*
X0224271Y0014397D01*
X0224364Y0014304D01*
X0224455Y0014209D01*
X0224542Y0014111D01*
X0224627Y0014010D01*
X0224708Y0013907D01*
X0224786Y0013801D01*
X0224861Y0013693D01*
X0224933Y0013583D01*
X0225001Y0013471D01*
X0225066Y0013357D01*
X0225127Y0013240D01*
X0225185Y0013122D01*
X0225239Y0013002D01*
X0225290Y0012881D01*
X0225337Y0012758D01*
X0225380Y0012634D01*
X0225419Y0012509D01*
X0225455Y0012382D01*
X0225486Y0012254D01*
X0225514Y0012126D01*
X0225538Y0011997D01*
X0225558Y0011867D01*
X0225574Y0011736D01*
X0225586Y0011605D01*
X0225594Y0011474D01*
X0225598Y0011343D01*
X0225598Y0011211D01*
X0225594Y0011080D01*
X0225586Y0010949D01*
X0225574Y0010818D01*
X0225558Y0010687D01*
X0225538Y0010557D01*
X0225514Y0010428D01*
X0225486Y0010300D01*
X0225455Y0010172D01*
X0225419Y0010045D01*
X0225380Y0009920D01*
X0225337Y0009796D01*
X0225290Y0009673D01*
X0225239Y0009552D01*
X0225185Y0009432D01*
X0225127Y0009314D01*
X0225066Y0009197D01*
X0225001Y0009083D01*
X0224933Y0008971D01*
X0224861Y0008861D01*
X0224786Y0008753D01*
X0224708Y0008647D01*
X0224627Y0008544D01*
X0224542Y0008443D01*
X0224455Y0008345D01*
X0224364Y0008250D01*
X0224271Y0008157D01*
X0224175Y0008067D01*
X0224076Y0007980D01*
X0223975Y0007897D01*
X0223871Y0007816D01*
X0223765Y0007739D01*
X0223656Y0007665D01*
X0223545Y0007594D01*
X0223433Y0007526D01*
X0223318Y0007462D01*
X0223201Y0007402D01*
X0223082Y0007345D01*
X0222962Y0007292D01*
X0222841Y0007242D01*
X0222717Y0007196D01*
X0222593Y0007154D01*
X0222467Y0007116D01*
X0222340Y0007081D01*
X0222212Y0007050D01*
X0222084Y0007024D01*
X0221954Y0007001D01*
X0221824Y0006982D01*
X0221694Y0006967D01*
X0221563Y0006956D01*
X0221431Y0006949D01*
X0221300Y0006946D01*
X0221168Y0006947D01*
X0221037Y0006952D01*
X0220906Y0006961D01*
X0220775Y0006974D01*
X0220645Y0006991D01*
X0220515Y0007012D01*
X0220386Y0007037D01*
X0220258Y0007065D01*
X0220130Y0007098D01*
X0220004Y0007134D01*
X0219879Y0007175D01*
X0219755Y0007219D01*
X0219632Y0007266D01*
X0219511Y0007318D01*
X0219392Y0007373D01*
X0219274Y0007432D01*
X0219159Y0007494D01*
X0219045Y0007560D01*
X0218933Y0007629D01*
X0218823Y0007701D01*
X0218716Y0007777D01*
X0218611Y0007856D01*
X0218508Y0007938D01*
X0218408Y0008023D01*
X0218311Y0008112D01*
X0218216Y0008203D01*
X0218124Y0008297D01*
X0218035Y0008394D01*
X0217949Y0008493D01*
X0217866Y0008595D01*
X0217786Y0008700D01*
X0217710Y0008806D01*
X0217637Y0008915D01*
X0217567Y0009027D01*
X0217500Y0009140D01*
X0217437Y0009255D01*
X0217377Y0009373D01*
X0217321Y0009491D01*
X0217269Y0009612D01*
X0217220Y0009734D01*
X0217175Y0009858D01*
X0217134Y0009982D01*
X0217097Y0010109D01*
X0217063Y0010236D01*
X0217033Y0010364D01*
X0217008Y0010493D01*
X0216986Y0010622D01*
X0216968Y0010752D01*
X0216954Y0010883D01*
X0216944Y0011014D01*
X0216938Y0011146D01*
X0216936Y0011277D01*
D11*
X0159574Y0165844D03*
X0159574Y0173718D03*
X0159574Y0181592D03*
X0159574Y0189466D03*
X0159574Y0197340D03*
X0159574Y0205214D03*
X0159574Y0213088D03*
X0159574Y0220962D03*
X0159574Y0228836D03*
X0159574Y0236710D03*
X0072960Y0236710D03*
X0072960Y0228836D03*
X0072960Y0220962D03*
X0072960Y0213088D03*
X0072960Y0205214D03*
X0072960Y0197340D03*
X0072960Y0189466D03*
X0072960Y0181592D03*
X0072960Y0173718D03*
X0072960Y0165844D03*
D12*
X0021267Y0111277D03*
D13*
X0031267Y0111277D03*
X0041267Y0111277D03*
X0041267Y0101277D03*
X0041267Y0091277D03*
X0041267Y0081277D03*
X0041267Y0071277D03*
X0041267Y0061277D03*
X0041267Y0051277D03*
X0041267Y0041277D03*
X0041267Y0031277D03*
X0041267Y0021277D03*
X0031267Y0021277D03*
X0031267Y0031277D03*
X0031267Y0041277D03*
X0031267Y0051277D03*
X0031267Y0061277D03*
X0031267Y0071277D03*
X0031267Y0081277D03*
X0031267Y0091277D03*
X0031267Y0101277D03*
X0021267Y0101277D03*
X0021267Y0091277D03*
X0021267Y0081277D03*
X0021267Y0071277D03*
X0021267Y0061277D03*
X0021267Y0051277D03*
X0021267Y0041277D03*
X0021267Y0031277D03*
X0021267Y0021277D03*
X0051267Y0021277D03*
X0051267Y0031277D03*
X0051267Y0041277D03*
X0051267Y0051277D03*
X0051267Y0061277D03*
X0051267Y0071277D03*
X0051267Y0081277D03*
X0051267Y0091277D03*
X0051267Y0101277D03*
X0051267Y0111277D03*
X0061267Y0111277D03*
X0071267Y0111277D03*
X0081267Y0111277D03*
X0081267Y0101277D03*
X0081267Y0091277D03*
X0081267Y0081277D03*
X0081267Y0071277D03*
X0081267Y0061277D03*
X0081267Y0051277D03*
X0081267Y0041277D03*
X0081267Y0031277D03*
X0081267Y0021277D03*
X0071267Y0021277D03*
X0071267Y0031277D03*
X0071267Y0041277D03*
X0071267Y0051277D03*
X0071267Y0061277D03*
X0071267Y0071277D03*
X0071267Y0081277D03*
X0071267Y0091277D03*
X0071267Y0101277D03*
X0061267Y0101277D03*
X0061267Y0091277D03*
X0061267Y0081277D03*
X0061267Y0071277D03*
X0061267Y0061277D03*
X0061267Y0051277D03*
X0061267Y0041277D03*
X0061267Y0031277D03*
X0061267Y0021277D03*
X0091267Y0021277D03*
X0091267Y0031277D03*
X0091267Y0041277D03*
X0091267Y0051277D03*
X0091267Y0061277D03*
X0091267Y0071277D03*
X0091267Y0081277D03*
X0091267Y0091277D03*
X0091267Y0101277D03*
X0091267Y0111277D03*
X0101267Y0111277D03*
X0111267Y0111277D03*
X0111267Y0101277D03*
X0111267Y0091277D03*
X0111267Y0081277D03*
X0111267Y0071277D03*
X0111267Y0061277D03*
X0111267Y0051277D03*
X0111267Y0041277D03*
X0111267Y0031277D03*
X0111267Y0021277D03*
X0101267Y0021277D03*
X0101267Y0031277D03*
X0101267Y0041277D03*
X0101267Y0051277D03*
X0101267Y0061277D03*
X0101267Y0071277D03*
X0101267Y0081277D03*
X0101267Y0091277D03*
X0101267Y0101277D03*
X0121267Y0101277D03*
X0121267Y0091277D03*
X0131267Y0091277D03*
X0131267Y0101277D03*
X0131267Y0111277D03*
X0141267Y0111277D03*
X0141267Y0101277D03*
X0141267Y0091277D03*
X0141267Y0081277D03*
X0141267Y0071277D03*
X0141267Y0061277D03*
X0141267Y0051277D03*
X0141267Y0041277D03*
X0141267Y0031277D03*
X0141267Y0021277D03*
X0131267Y0021277D03*
X0131267Y0031277D03*
X0131267Y0041277D03*
X0131267Y0051277D03*
X0131267Y0061277D03*
X0131267Y0071277D03*
X0131267Y0081277D03*
X0121267Y0081277D03*
X0121267Y0071277D03*
X0121267Y0061277D03*
X0121267Y0051277D03*
X0121267Y0041277D03*
X0121267Y0031277D03*
X0121267Y0021277D03*
X0151267Y0021277D03*
X0151267Y0031277D03*
X0151267Y0041277D03*
X0151267Y0051277D03*
X0151267Y0061277D03*
X0151267Y0071277D03*
X0151267Y0081277D03*
X0151267Y0091277D03*
X0151267Y0101277D03*
X0151267Y0111277D03*
X0161267Y0111277D03*
X0171267Y0111277D03*
X0181267Y0111277D03*
X0181267Y0101277D03*
X0181267Y0091277D03*
X0181267Y0081277D03*
X0181267Y0071277D03*
X0181267Y0061277D03*
X0181267Y0051277D03*
X0181267Y0041277D03*
X0181267Y0031277D03*
X0181267Y0021277D03*
X0171267Y0021277D03*
X0171267Y0031277D03*
X0171267Y0041277D03*
X0171267Y0051277D03*
X0171267Y0061277D03*
X0171267Y0071277D03*
X0171267Y0081277D03*
X0171267Y0091277D03*
X0171267Y0101277D03*
X0161267Y0101277D03*
X0161267Y0091277D03*
X0161267Y0081277D03*
X0161267Y0071277D03*
X0161267Y0061277D03*
X0161267Y0051277D03*
X0161267Y0041277D03*
X0161267Y0031277D03*
X0161267Y0021277D03*
X0191267Y0021277D03*
X0191267Y0031277D03*
X0191267Y0041277D03*
X0191267Y0051277D03*
X0191267Y0061277D03*
X0191267Y0071277D03*
X0191267Y0081277D03*
X0191267Y0091277D03*
X0191267Y0101277D03*
X0191267Y0111277D03*
X0201267Y0111277D03*
X0211267Y0111277D03*
X0211267Y0101277D03*
X0211267Y0091277D03*
X0211267Y0081277D03*
X0211267Y0071277D03*
X0211267Y0061277D03*
X0211267Y0051277D03*
X0211267Y0041277D03*
X0211267Y0031277D03*
X0211267Y0021277D03*
X0201267Y0021277D03*
X0201267Y0031277D03*
X0201267Y0041277D03*
X0201267Y0051277D03*
X0201267Y0061277D03*
X0201267Y0071277D03*
X0201267Y0081277D03*
X0201267Y0091277D03*
X0201267Y0101277D03*
X0121267Y0111277D03*
M02*
