%
M48
M72
T01C0.03150
T02C0.03346
T03C0.08661
%
T01
X21267Y21277
X21267Y31277
X21267Y41277
X21267Y51277
X21267Y61277
X21267Y71277
X21267Y81277
X21267Y91277
X21267Y101277
X21267Y111277
X31267Y111277
X41267Y111277
X41267Y101277
X41267Y91277
X41267Y81277
X41267Y71277
X41267Y61277
X41267Y51277
X41267Y41277
X41267Y31277
X41267Y21277
X31267Y21277
X31267Y31277
X31267Y41277
X31267Y51277
X31267Y61277
X31267Y71277
X31267Y81277
X31267Y91277
X31267Y101277
X51267Y101277
X51267Y91277
X61267Y91277
X61267Y101277
X61267Y111277
X71267Y111277
X81267Y111277
X81267Y101277
X81267Y91277
X81267Y81277
X81267Y71277
X81267Y61277
X81267Y51277
X81267Y41277
X81267Y31277
X81267Y21277
X71267Y21277
X71267Y31277
X71267Y41277
X71267Y51277
X71267Y61277
X71267Y71277
X71267Y81277
X71267Y91277
X71267Y101277
X61267Y81277
X61267Y71277
X61267Y61277
X61267Y51277
X61267Y41277
X61267Y31277
X61267Y21277
X51267Y21277
X51267Y31277
X51267Y41277
X51267Y51277
X51267Y71277
X51267Y81277
X51267Y111277
X91267Y111277
X101267Y111277
X111267Y111277
X111267Y101277
X111267Y91277
X111267Y81277
X111267Y71277
X111267Y61277
X111267Y51277
X111267Y41277
X111267Y31277
X111267Y21277
X101267Y21277
X101267Y31277
X101267Y41277
X101267Y51277
X101267Y61277
X101267Y71277
X101267Y81277
X101267Y91277
X101267Y101277
X91267Y101277
X91267Y91277
X91267Y81277
X91267Y71277
X91267Y61277
X91267Y51277
X91267Y41277
X91267Y31277
X91267Y21277
X121267Y21277
X121267Y31277
X121267Y41277
X121267Y51277
X121267Y61277
X121267Y71277
X121267Y81277
X121267Y91277
X121267Y101277
X121267Y111277
X131267Y111277
X141267Y111277
X141267Y101277
X141267Y91277
X141267Y81277
X141267Y71277
X141267Y61277
X141267Y51277
X141267Y41277
X141267Y31277
X141267Y21277
X131267Y21277
X131267Y31277
X131267Y41277
X131267Y51277
X131267Y61277
X131267Y71277
X131267Y81277
X131267Y91277
X131267Y101277
X151267Y101277
X151267Y91277
X161267Y91277
X161267Y101277
X161267Y111277
X171267Y111277
X181267Y111277
X181267Y101277
X181267Y91277
X181267Y81277
X181267Y71277
X181267Y61277
X181267Y51277
X181267Y41277
X181267Y31277
X181267Y21277
X171267Y21277
X171267Y31277
X171267Y41277
X171267Y51277
X171267Y61277
X171267Y71277
X171267Y81277
X171267Y91277
X171267Y101277
X161267Y81277
X161267Y71277
X161267Y61277
X161267Y51277
X161267Y41277
X161267Y31277
X161267Y21277
X151267Y21277
X151267Y31277
X151267Y41277
X151267Y51277
X151267Y61277
X151267Y71277
X151267Y81277
X151267Y111277
X191267Y111277
X201267Y111277
X211267Y111277
X211267Y101277
X211267Y91277
X211267Y81277
X211267Y71277
X211267Y61277
X211267Y51277
X211267Y41277
X211267Y31277
X211267Y21277
X201267Y21277
X201267Y31277
X201267Y41277
X201267Y51277
X201267Y61277
X201267Y71277
X201267Y81277
X201267Y91277
X201267Y101277
X191267Y101277
X191267Y91277
X191267Y81277
X191267Y71277
X191267Y61277
X191267Y51277
X191267Y41277
X191267Y31277
X191267Y21277
X159574Y165844
X159574Y173718
X159574Y181592
X159574Y189466
X159574Y197340
X159574Y205214
X159574Y213088
X159574Y220962
X159574Y228836
X159574Y236710
X72960Y236710
X72960Y228836
X72960Y220962
X72960Y213088
X72960Y205214
X72960Y197340
X72960Y189466
X72960Y181592
X72960Y173718
X72960Y165844
T02
X51267Y61277
T03
X11267Y11277
X221267Y11277
X221267Y256277
X11267Y256277
M30
